<svg width="1924" height="808" viewBox="0 0 1924 808" fill="none" xmlns="http://www.w3.org/2000/svg">
<rect width="1920" height="800" rx="30" fill="url(#paint0_linear_872_76)"/>
<mask id="mask0_872_76" style="mask-type:alpha" maskUnits="userSpaceOnUse" x="0" y="0" width="1920" height="800">
<rect width="1920" height="800" rx="30" fill="url(#paint1_linear_872_76)"/>
</mask>
<g mask="url(#mask0_872_76)">
<mask id="mask1_872_76" style="mask-type:luminance" maskUnits="userSpaceOnUse" x="650" y="-167" width="1402" height="1086">
<path d="M1600.42 -51.0171L1602.28 -48.3644L1602.66 -48.0558C1601.91 -49.0537 1601.17 -50.0418 1600.42 -51.0171ZM1590.44 -60.6774C1591.97 -58.425 1593.5 -56.1253 1595.06 -53.7789C1595.62 -53.3841 1596.19 -52.9811 1596.77 -52.5664C1595.12 -54.9057 1593.49 -57.1834 1591.88 -59.4081C1591.4 -59.8388 1590.92 -60.2598 1590.44 -60.6774ZM1584.04 -70.0467L1586.32 -66.7383L1586.79 -66.3638C1585.86 -67.6108 1584.95 -68.8383 1584.04 -70.0467ZM1457.03 550.707L1457.02 550.817L1457.03 550.694L1457.03 550.707ZM1582.25 -67.3612C1584.17 -64.3926 1586.12 -61.3485 1588.1 -58.2344C1588.9 -57.7688 1589.71 -57.2824 1590.52 -56.774C1588.51 -59.7898 1586.52 -62.723 1584.56 -65.5748C1583.78 -66.1906 1583.01 -66.7841 1582.25 -67.3612ZM1574.44 -79.2286C1576.02 -76.8633 1577.62 -74.4537 1579.24 -71.9846C1579.81 -71.5939 1580.38 -71.1948 1580.96 -70.782C1579.26 -73.2276 1577.58 -75.6139 1575.92 -77.9347C1575.42 -78.3745 1574.93 -78.8043 1574.44 -79.2286ZM1567.61 -89.3042C1568.57 -87.9111 1569.54 -86.4967 1570.51 -85.0658L1571.09 -84.6121C1569.92 -86.2079 1568.76 -87.7717 1567.61 -89.3042ZM1458.84 533.926L1458.34 535.312C1458.18 537.336 1458.01 539.352 1457.85 541.365L1458.19 540.276C1458.41 538.166 1458.63 536.05 1458.84 533.926ZM1461.79 525.563L1461.73 525.754L1461.56 527.503L1461.79 525.563ZM1618.44 -29.9049L1618.75 -29.6568L1617.06 -31.8599L1618.44 -29.9049ZM1611.07 -35.4798C1611.63 -35.0845 1612.2 -34.6815 1612.76 -34.2676C1611.16 -36.5051 1609.58 -38.6935 1608.02 -40.8301C1607.55 -41.2505 1607.08 -41.6619 1606.61 -42.0701C1608.09 -39.9148 1609.57 -37.7189 1611.07 -35.4798ZM1603.96 -40.1384C1604.77 -39.6556 1605.58 -39.1583 1606.4 -38.6342C1604.43 -41.5425 1602.48 -44.3755 1600.57 -47.1373C1599.78 -47.7605 1599.01 -48.3644 1598.24 -48.9516C1600.12 -46.0776 1602.03 -43.145 1603.96 -40.1384ZM1597.18 -43.8206C1598.1 -43.3739 1599.04 -42.8928 1599.99 -42.3896C1597.75 -45.8483 1595.54 -49.2111 1593.38 -52.488C1592.42 -53.1476 1591.47 -53.7771 1590.54 -54.3771L1592.78 -50.8127C1594.25 -48.4548 1595.72 -46.1278 1597.18 -43.8206ZM1460.4 517.142C1460.1 517.886 1459.8 518.624 1459.5 519.364C1459.32 522.06 1459.13 524.75 1458.93 527.428L1459.67 525.267C1459.93 522.569 1460.17 519.859 1460.4 517.142ZM1463.65 508.726C1463.46 509.24 1463.27 509.764 1463.08 510.276C1462.91 512.39 1462.73 514.499 1462.55 516.601L1462.95 515.327C1463.19 513.133 1463.42 510.931 1463.65 508.726ZM1466.69 500.325L1466.56 500.704L1466.23 504.091L1466.69 500.325ZM1634.83 -11.3685L1635.08 -11.1717L1633.75 -12.8867L1634.83 -11.3685ZM1627.3 -17.109C1627.85 -16.7124 1628.41 -16.3038 1628.97 -15.8906C1627.41 -18.0409 1625.87 -20.1467 1624.34 -22.2074L1622.96 -23.4282C1624.39 -21.3597 1625.84 -19.2547 1627.3 -17.109ZM1620.22 -21.8259C1620.97 -21.3625 1621.73 -20.881 1622.49 -20.3859C1620.55 -23.208 1618.64 -25.9589 1616.75 -28.6424C1615.96 -29.2741 1615.18 -29.8895 1614.41 -30.4875C1615.29 -29.1517 1616.18 -27.8032 1617.08 -26.4389C1618.13 -24.8884 1619.18 -23.3535 1620.22 -21.8259ZM1613.48 -25.6473C1614.3 -25.2273 1615.12 -24.792 1615.96 -24.3305L1615.33 -25.2517L1615.32 -25.2657C1613.32 -28.305 1611.35 -31.2725 1609.41 -34.1671C1608.46 -34.8339 1607.52 -35.4733 1606.59 -36.0872C1608.9 -32.5465 1611.2 -29.0684 1613.48 -25.6473ZM1606.93 -28.647C1607.85 -28.2781 1608.79 -27.8763 1609.74 -27.4506C1607.56 -30.737 1605.36 -34.0762 1603.16 -37.4713L1603.15 -37.4771L1602.34 -38.744C1601.32 -39.3425 1600.32 -39.9071 1599.33 -40.4388C1601.88 -36.4296 1604.42 -32.5006 1606.93 -28.647ZM1461.77 500.089C1461.35 501.033 1460.93 501.977 1460.51 502.913C1460.33 506.14 1460.14 509.357 1459.94 512.562C1460.3 511.631 1460.66 510.704 1461.02 509.765C1461.28 506.552 1461.53 503.325 1461.77 500.089ZM1465.28 491.842C1464.95 492.637 1464.62 493.425 1464.29 494.213C1464.1 496.987 1463.9 499.755 1463.69 502.512L1464.51 500.194C1464.77 497.419 1465.03 494.636 1465.28 491.842ZM1468.62 483.418L1467.96 485.136C1467.78 487.342 1467.59 489.546 1467.39 491.741L1467.87 490.248C1468.13 487.979 1468.38 485.702 1468.62 483.418ZM1471.75 475.017L1471.54 475.584L1471.09 479.984L1471.13 479.87C1471.34 478.256 1471.55 476.639 1471.75 475.017ZM1657.7 15.2119L1657.12 14.7081C1658.62 16.6143 1660.11 18.4977 1661.59 20.3652C1660.28 18.6177 1658.98 16.9006 1657.7 15.2119ZM1651.41 7.18175L1651.61 7.33733L1650.55 5.99051L1651.41 7.18175ZM1644.12 1.60781C1644.55 1.92257 1644.99 2.23771 1645.42 2.56158C1643.91 0.501948 1642.41 -1.51593 1640.92 -3.49282C1640.46 -3.90809 1639.99 -4.32425 1639.53 -4.7289L1641.39 -2.05127L1644.12 1.60781ZM1637.22 -3.09258C1637.75 -2.75957 1638.27 -2.42522 1638.8 -2.07733C1636.89 -4.80801 1635.01 -7.47431 1633.15 -10.0768C1632.42 -10.6652 1631.7 -11.2363 1630.97 -11.797C1633.07 -8.85017 1635.16 -5.94948 1637.22 -3.09258ZM1630.44 -7.11828C1631.15 -6.7311 1631.86 -6.33477 1632.58 -5.9192C1630.9 -8.26225 1629.2 -10.6297 1627.5 -13.0314L1627.49 -13.0525L1625.67 -15.7446C1624.85 -16.3222 1624.04 -16.8868 1623.25 -17.4271C1625.66 -13.9262 1628.06 -10.492 1630.44 -7.11828ZM1623.81 -10.3951C1624.67 -10.0173 1625.53 -9.62034 1626.39 -9.20072C1623.83 -12.8559 1621.25 -16.5797 1618.65 -20.3818C1617.73 -20.9403 1616.82 -21.4803 1615.93 -21.9896C1618.58 -18.0418 1621.21 -14.1798 1623.81 -10.3951ZM1617.37 -12.901C1618.31 -12.5876 1619.27 -12.2452 1620.23 -11.8756C1617.5 -15.8684 1614.74 -19.949 1611.95 -24.1185C1610.94 -24.6256 1609.95 -25.0973 1608.96 -25.5401C1611.79 -21.228 1614.59 -17.0169 1617.37 -12.901ZM1462.95 482.721C1462.43 483.796 1461.91 484.869 1461.38 485.932C1461.21 489.621 1461.03 493.298 1460.84 496.963C1461.31 495.879 1461.77 494.79 1462.23 493.694C1462.48 490.05 1462.72 486.392 1462.95 482.721ZM1466.71 474.705C1466.26 475.691 1465.81 476.671 1465.36 477.648C1465.17 480.96 1464.96 484.261 1464.74 487.55C1465.13 486.578 1465.53 485.607 1465.91 484.625C1466.19 481.331 1466.45 478.023 1466.71 474.705ZM1470.32 466.478C1469.96 467.317 1469.6 468.147 1469.24 468.978C1469.03 471.84 1468.81 474.695 1468.59 477.54L1469.48 475.09C1469.77 472.229 1470.05 469.359 1470.32 466.478ZM1473.77 458.043L1473.03 459.894C1472.82 462.2 1472.61 464.502 1472.4 466.797L1472.95 465.143C1473.23 462.784 1473.5 460.417 1473.77 458.043ZM1477.02 449.561L1476.72 450.364C1476.56 451.945 1476.39 453.524 1476.22 455.099L1476.33 454.741C1476.57 453.02 1476.8 451.292 1477.02 449.561ZM1655.21 16.233L1656.06 16.7964C1654.67 15.0201 1653.26 13.226 1651.86 11.4129L1651.83 11.3777L1649.81 8.57652L1648.66 7.65017C1650.86 10.5594 1653.04 13.419 1655.21 16.233ZM1648.29 11.9347C1648.87 12.2687 1649.45 12.607 1650.03 12.9572C1647.55 9.70716 1645.05 6.39715 1642.53 3.02514C1641.94 2.59963 1641.36 2.18681 1640.77 1.77919C1643.3 5.23298 1645.81 8.6159 1648.29 11.9347ZM1641.5 8.30498C1642.27 8.67796 1643.04 9.07129 1643.82 9.47577C1641.13 5.85818 1638.42 2.16589 1635.69 -1.60551C1634.89 -2.11429 1634.09 -2.60567 1633.3 -3.08018C1636.06 0.800717 1638.79 4.59497 1641.5 8.30498ZM1634.9 5.40804C1635.79 5.75157 1636.68 6.11654 1637.58 6.50578C1634.73 2.57768 1631.86 -1.43794 1628.96 -5.55181C1628.02 -6.05632 1627.09 -6.53524 1626.17 -6.99059C1629.11 -2.75395 1632.02 1.37666 1634.9 5.40804ZM1628.49 3.2539C1629.45 3.52594 1630.42 3.82073 1631.41 4.14632C1628.43 -0.0425212 1625.42 -4.3359 1622.38 -8.74073C1621.36 -9.18172 1620.35 -9.59627 1619.35 -9.97367C1622.43 -5.44318 1625.47 -1.03603 1628.49 3.2539ZM1126.32 693.975L1127.45 693.15L1127.08 693.17L1125.82 693.936L1126.32 693.975ZM1463.96 464.979C1463.35 466.123 1462.73 467.258 1462.1 468.386C1461.95 472.484 1461.79 476.572 1461.62 480.643C1462.18 479.466 1462.74 478.278 1463.29 477.088C1463.53 473.066 1463.75 469.029 1463.96 464.979ZM1467.95 457.244C1467.4 458.351 1466.85 459.457 1466.28 460.551C1466.1 464.316 1465.9 468.07 1465.7 471.811C1466.19 470.69 1466.69 469.562 1467.18 468.43C1467.45 464.714 1467.71 460.985 1467.95 457.244ZM1471.82 449.241C1471.34 450.268 1470.86 451.295 1470.37 452.312C1470.16 455.704 1469.94 459.086 1469.7 462.456C1470.13 461.435 1470.55 460.408 1470.96 459.377C1471.26 456.009 1471.54 452.63 1471.82 449.241ZM1475.55 440.993C1475.16 441.887 1474.77 442.78 1474.37 443.666C1474.14 446.615 1473.91 449.556 1473.66 452.489C1473.99 451.631 1474.32 450.775 1474.65 449.91C1474.96 446.949 1475.26 443.974 1475.55 440.993ZM1479.14 432.559L1478.29 434.598C1478.07 437.003 1477.84 439.402 1477.6 441.793C1477.81 441.191 1478.03 440.594 1478.24 439.987C1478.55 437.518 1478.85 435.042 1479.14 432.559ZM1482.53 424.066L1482.1 425.164C1481.91 426.875 1481.72 428.583 1481.52 430.288L1481.76 429.581C1482.02 427.748 1482.28 425.908 1482.53 424.066ZM1674.61 36.4345L1674.72 36.5113L1672.03 33.3029L1674.61 36.4345ZM1667.37 31.7057C1667.78 31.9594 1668.19 32.2097 1668.61 32.4704C1665.97 29.242 1663.32 25.9486 1660.64 22.5862L1659.48 21.7339C1662.13 25.1303 1664.76 28.4526 1667.37 31.7057ZM1660.3 27.6477C1660.96 28.0005 1661.62 28.36 1662.29 28.7316C1659.45 25.1522 1656.59 21.487 1653.7 17.7393C1653.02 17.294 1652.35 16.8592 1651.68 16.4355C1654.58 20.2642 1657.45 24.0005 1660.3 27.6477ZM1653.42 24.2776C1654.24 24.6417 1655.07 25.0292 1655.9 25.4272C1652.91 21.5504 1649.88 17.5775 1646.83 13.5017C1645.97 13.0131 1645.13 12.5463 1644.29 12.0942C1647.36 16.2652 1650.41 20.3247 1653.42 24.2776ZM1646.76 21.6333C1647.68 21.956 1648.61 22.2987 1649.55 22.6653C1646.43 18.5447 1643.29 14.3136 1640.1 9.96363C1639.13 9.49747 1638.17 9.05317 1637.22 8.63802C1640.43 13.0987 1643.61 17.4273 1646.76 21.6333ZM1640.3 19.6995C1641.29 19.9455 1642.28 20.2075 1643.29 20.5052C1640.08 16.1815 1636.83 11.7288 1633.54 7.14309C1632.51 6.75306 1631.48 6.39896 1630.47 6.07067C1633.79 10.7583 1637.06 15.2998 1640.3 19.6995ZM1134.8 690.713L1135.87 689.831L1135.72 689.855L1134.48 690.722L1134.8 690.713ZM1130.48 694.31L1132.13 692.924L1131.33 692.956L1129.56 694.231L1130.48 694.31ZM1464.8 446.771C1464.1 447.959 1463.39 449.136 1462.68 450.305C1462.56 454.772 1462.42 459.228 1462.27 463.669C1462.92 462.443 1463.57 461.205 1464.21 459.962C1464.42 455.58 1464.62 451.182 1464.8 446.771ZM1469.03 439.38C1468.38 440.556 1467.73 441.721 1467.06 442.88C1466.9 447.059 1466.72 451.228 1466.53 455.383C1467.13 454.176 1467.72 452.956 1468.31 451.733C1468.56 447.63 1468.8 443.512 1469.03 439.38ZM1473.15 431.689C1472.56 432.825 1471.96 433.954 1471.36 435.077C1471.16 438.935 1470.95 442.783 1470.72 446.62C1471.25 445.462 1471.78 444.293 1472.31 443.122C1472.6 439.324 1472.88 435.512 1473.15 431.689ZM1477.15 423.716C1476.63 424.777 1476.11 425.828 1475.58 426.879C1475.35 430.372 1475.11 433.859 1474.85 437.333C1475.31 436.262 1475.76 435.181 1476.21 434.102C1476.54 430.651 1476.85 427.189 1477.15 423.716ZM1481.03 415.477C1480.6 416.415 1480.16 417.348 1479.73 418.28C1479.48 421.335 1479.21 424.385 1478.95 427.425C1479.31 426.503 1479.68 425.575 1480.04 424.647C1480.38 421.599 1480.71 418.542 1481.03 415.477ZM1484.77 407.041C1484.44 407.802 1484.11 408.557 1483.78 409.315C1483.52 411.843 1483.27 414.366 1483 416.881L1483.79 414.753C1484.12 412.19 1484.45 409.618 1484.77 407.041ZM1488.31 398.592L1487.75 399.953C1487.53 401.803 1487.3 403.65 1487.08 405.493L1487.43 404.491C1487.72 402.53 1488.02 400.563 1488.31 398.592ZM1688.27 52.6057L1688.92 53.0357C1686.12 49.8529 1683.3 46.5975 1680.45 43.2675L1680.04 42.9543C1682.81 46.2484 1685.56 49.4635 1688.27 52.6057ZM1680.65 47.9064C1681.18 48.2169 1681.72 48.5369 1682.26 48.8581C1679.24 45.3135 1676.19 41.6795 1673.11 37.9501C1672.59 37.5945 1672.07 37.2474 1671.56 36.9017C1674.62 40.6687 1677.65 44.3364 1680.65 47.9064ZM1673.33 43.9625C1674.07 44.3319 1674.82 44.7148 1675.57 45.1076C1672.39 41.2748 1669.17 37.3357 1665.92 33.2847C1665.17 32.8212 1664.41 32.3744 1663.66 31.9371C1666.92 36.066 1670.14 40.0726 1673.33 43.9625ZM1666.27 40.7335C1667.15 41.0962 1668.02 41.473 1668.91 41.8685C1665.62 37.8047 1662.28 33.6169 1658.91 29.3016C1658.01 28.8256 1657.11 28.3684 1656.22 27.9299C1659.61 32.3374 1662.96 36.6026 1666.27 40.7335ZM1659.48 38.2109C1660.43 38.5213 1661.39 38.8505 1662.37 39.2056C1658.98 34.9503 1655.56 30.5545 1652.09 26.0165C1651.09 25.5784 1650.1 25.1605 1649.11 24.7734C1652.61 29.4097 1656.07 33.8866 1659.48 38.2109ZM1652.92 36.378C1653.93 36.6115 1654.95 36.8685 1655.97 37.1522C1652.52 32.7386 1649.02 28.1703 1645.48 23.4425C1644.42 23.0851 1643.38 22.7596 1642.34 22.4615C1645.92 27.275 1649.44 31.9121 1652.92 36.378ZM1143.36 686.588L1143.96 686.039L1143.24 686.603L1143.36 686.588ZM1138.99 690.612L1140.62 689.107L1140.01 689.195L1138.24 690.625L1138.99 690.612ZM1134.64 694.7L1136.68 692.775L1135.58 692.804L1133.44 694.583L1134.64 694.7ZM1101.64 698.781C1102.67 698.782 1103.69 698.776 1104.72 698.765L1103.86 698.528C1102.79 698.485 1101.72 698.436 1100.64 698.377L1101.64 698.781ZM1093.36 698.621C1094.14 698.65 1094.92 698.674 1095.7 698.695L1093.6 697.885L1091.62 697.711L1093.36 698.621ZM1465.49 428.104C1464.7 429.309 1463.91 430.504 1463.1 431.688C1463.01 436.483 1462.91 441.267 1462.79 446.036C1463.53 444.79 1464.26 443.535 1464.99 442.269C1465.17 437.562 1465.34 432.839 1465.49 428.104ZM1469.95 421.051C1469.21 422.265 1468.46 423.471 1467.7 424.666C1467.56 429.208 1467.41 433.737 1467.24 438.256C1467.93 437.003 1468.62 435.743 1469.3 434.473C1469.53 430.013 1469.75 425.538 1469.95 421.051ZM1474.31 413.7C1473.62 414.904 1472.92 416.098 1472.22 417.285C1472.03 421.544 1471.84 425.791 1471.62 430.028C1472.26 428.794 1472.89 427.554 1473.51 426.304C1473.79 422.116 1474.06 417.915 1474.31 413.7ZM1478.57 406.049C1477.94 407.217 1477.31 408.38 1476.67 409.535C1476.44 413.477 1476.2 417.407 1475.95 421.326C1476.52 420.137 1477.09 418.942 1477.65 417.74C1477.97 413.856 1478.28 409.958 1478.57 406.049ZM1482.74 398.117C1482.17 399.221 1481.61 400.319 1481.04 401.41C1480.78 404.988 1480.51 408.555 1480.23 412.114C1480.73 411.003 1481.22 409.887 1481.71 408.767C1482.06 405.227 1482.41 401.676 1482.74 398.117ZM1486.79 389.914C1486.31 390.92 1485.82 391.921 1485.33 392.919C1485.05 396.081 1484.76 399.236 1484.45 402.383C1484.87 401.386 1485.29 400.382 1485.7 399.378C1486.07 396.233 1486.44 393.078 1486.79 389.914ZM1490.7 381.564L1489.55 384.059C1489.26 386.704 1488.97 389.346 1488.67 391.982C1488.98 391.201 1489.29 390.418 1489.59 389.632C1489.97 386.95 1490.34 384.26 1490.7 381.564ZM1494.43 373.16L1493.71 374.824C1493.45 376.819 1493.19 378.811 1492.93 380.8L1493.41 379.468C1493.76 377.37 1494.1 375.267 1494.43 373.16ZM1497.92 364.898L1497.8 365.188L1497.52 367.072L1497.92 364.898ZM1703.48 69.7016L1704.59 70.4071C1701.37 66.9325 1698.11 63.3577 1694.81 59.6804L1693.85 58.989C1697.1 62.6692 1700.31 66.2396 1703.48 69.7016ZM1695.28 64.8402C1695.92 65.194 1696.56 65.5609 1697.21 65.9312C1693.8 62.1468 1690.35 58.243 1686.86 54.2152C1686.22 53.7964 1685.58 53.3815 1684.94 52.9799C1688.43 57.0681 1691.88 61.0201 1695.28 64.8402ZM1687.58 60.8567C1688.38 61.2428 1689.2 61.6418 1690.01 62.0527C1686.49 58.0343 1682.92 53.8775 1679.3 49.5772C1678.46 49.0975 1677.63 48.63 1676.81 48.1784C1680.45 52.5608 1684.04 56.7866 1687.58 60.8567ZM1680.25 57.6362C1681.17 58.0019 1682.09 58.3883 1683.02 58.7881C1679.4 54.5791 1675.74 50.2133 1672.02 45.6856C1671.06 45.2108 1670.11 44.7518 1669.17 44.3184C1672.91 48.9345 1676.61 53.372 1680.25 57.6362ZM1673.25 55.1269C1674.23 55.4364 1675.23 55.7738 1676.22 56.1264C1672.54 51.7666 1668.8 47.2325 1665.01 42.5208C1663.99 42.1021 1662.97 41.7088 1661.96 41.3375C1665.78 46.13 1669.54 50.7239 1673.25 55.1269ZM1666.55 53.2909C1667.57 53.5246 1668.61 53.7908 1669.64 54.0716C1665.91 49.5981 1662.12 44.9344 1658.27 40.0741C1657.2 39.7339 1656.14 39.4275 1655.09 39.144C1658.97 44.0739 1662.79 48.7876 1666.55 53.2909ZM1147.59 686.047L1149.15 684.465L1148.73 684.568L1147.01 686.117L1147.59 686.047ZM1143.2 690.564L1145.22 688.478L1144.29 688.6L1142.14 690.57L1143.2 690.564ZM1138.81 695.143L1141.15 692.694L1139.83 692.711L1137.41 694.988L1138.81 695.143ZM1135.19 697.092L1135.75 696.943L1135.39 696.904L1135.19 697.092ZM1117.97 700.493C1119.44 700.296 1120.88 700.083 1122.31 699.849C1120.69 700.029 1119.06 700.183 1117.41 700.314L1117.97 700.493ZM1108.25 701.528C1109.78 701.406 1111.3 701.266 1112.8 701.109L1111.4 700.689C1109.83 700.761 1108.24 700.813 1106.64 700.847L1108.25 701.528ZM1099.78 702.035C1101.05 701.983 1102.31 701.922 1103.56 701.85L1101.23 700.896C1100.02 700.892 1098.81 700.876 1097.58 700.854L1099.78 702.035ZM1466.02 408.943C1465.15 410.149 1464.27 411.342 1463.38 412.525C1463.33 417.623 1463.26 422.711 1463.17 427.786C1463.99 426.537 1464.81 425.277 1465.62 424.006C1465.77 418.998 1465.9 413.976 1466.02 408.943ZM1470.71 402.246C1469.88 403.473 1469.04 404.688 1468.19 405.894C1468.08 410.765 1467.96 415.626 1467.82 420.474C1468.6 419.205 1469.38 417.925 1470.15 416.635C1470.35 411.852 1470.54 407.053 1470.71 402.246ZM1475.32 395.25C1474.53 396.485 1473.74 397.712 1472.93 398.929C1472.77 403.549 1472.6 408.161 1472.41 412.761C1473.14 411.486 1473.87 410.202 1474.59 408.911C1474.85 404.368 1475.09 399.813 1475.32 395.25ZM1479.84 387.945C1479.11 389.173 1478.36 390.392 1477.61 391.603C1477.4 395.953 1477.18 400.293 1476.94 404.621C1477.62 403.361 1478.29 402.094 1478.96 400.818C1479.27 396.538 1479.56 392.247 1479.84 387.945ZM1484.29 380.357C1483.6 381.558 1482.92 382.75 1482.22 383.937C1481.97 387.976 1481.7 392.007 1481.42 396.027C1482.04 394.801 1482.65 393.57 1483.26 392.332C1483.62 388.35 1483.96 384.359 1484.29 380.357ZM1488.64 372.488C1488.02 373.643 1487.39 374.793 1486.76 375.937C1486.47 379.623 1486.17 383.299 1485.85 386.968C1486.4 385.799 1486.95 384.626 1487.5 383.448C1487.89 379.804 1488.27 376.151 1488.64 372.488ZM1492.88 364.419C1492.34 365.477 1491.79 366.531 1491.25 367.582C1490.93 370.859 1490.6 374.13 1490.26 377.394C1490.73 376.345 1491.19 375.29 1491.66 374.233C1492.07 370.971 1492.48 367.698 1492.88 364.419ZM1497 356.186L1495.67 358.88C1495.35 361.66 1495.01 364.435 1494.67 367.207L1495.75 364.612C1496.18 361.809 1496.59 358.999 1497 356.186ZM1500.98 347.853L1500.05 349.839C1499.74 351.994 1499.44 354.147 1499.12 356.297L1499.8 354.599C1500.19 352.355 1500.59 350.106 1500.98 347.853ZM1504.7 339.709L1504.38 340.434L1503.71 344.388L1503.78 344.209L1504.7 339.709ZM1744.64 107.316L1744.52 107.227C1745.31 107.939 1746.09 108.645 1746.87 109.344L1744.64 107.316ZM1731.29 94.7939L1731.4 94.8728C1729.06 92.6043 1726.69 90.2831 1724.31 87.9068C1726.65 90.2588 1728.98 92.5558 1731.29 94.7939ZM1720.85 87.9523C1721.33 88.2472 1721.82 88.5563 1722.3 88.8589C1718.59 85.1352 1714.83 81.2706 1711.02 77.261L1709.56 76.2505C1713.38 80.31 1717.15 84.2101 1720.85 87.9523ZM1711.78 82.6812C1712.49 83.0664 1713.2 83.4685 1713.92 83.8699C1710.05 79.8694 1706.13 75.7056 1702.15 71.3717C1701.4 70.9009 1700.65 70.4383 1699.91 69.9881C1703.93 74.4062 1707.88 78.6364 1711.78 82.6812ZM1703.52 78.4842C1704.36 78.882 1705.21 79.2923 1706.06 79.715C1702.11 75.5243 1698.1 71.1504 1694.02 66.5852C1693.12 66.0889 1692.23 65.6074 1691.34 65.1418C1695.46 69.7989 1699.52 74.2451 1703.52 78.4842ZM1695.8 75.1345C1696.74 75.5047 1697.68 75.8943 1698.62 76.2944C1694.6 71.956 1690.52 67.4143 1686.37 62.6605C1685.38 62.1872 1684.39 61.7347 1683.4 61.3005C1687.61 66.145 1691.74 70.7534 1695.8 75.1345ZM1688.54 72.5178C1689.51 72.8329 1690.5 73.1655 1691.49 73.5149C1687.42 69.0693 1683.29 64.3999 1679.09 59.5003C1678.04 59.0867 1677 58.695 1675.97 58.3276C1680.23 63.3127 1684.42 68.0402 1688.54 72.5178ZM1681.64 70.5553C1682.64 70.7994 1683.64 71.0585 1684.65 71.3421C1680.56 66.8264 1676.39 62.0676 1672.15 57.0599C1671.07 56.7251 1670 56.4121 1668.94 56.1292C1673.25 61.2155 1677.48 66.0209 1681.64 70.5553ZM1156.26 680.616L1157.74 678.978L1157.53 679.05L1155.87 680.702L1156.26 680.616ZM1151.83 685.562L1153.8 683.35L1153.05 683.523L1150.93 685.66L1151.83 685.562ZM1147.4 690.568L1149.73 687.927L1148.57 688.062L1146.14 690.562L1147.4 690.568ZM1142.98 695.632L1145.55 692.675L1144.1 692.675L1141.44 695.445L1142.98 695.632ZM1139.12 697.883L1140.3 697.443L1139.61 697.363L1139.12 697.883ZM1133.88 699.662L1134.59 699.44L1133.8 699.643L1133.88 699.662ZM1123.75 702.365C1125.77 701.91 1127.74 701.419 1129.68 700.891L1129.03 700.749C1126.9 701.198 1124.72 701.599 1122.52 701.957L1123.75 702.365ZM1114.38 704.18C1116.15 703.89 1117.89 703.577 1119.61 703.239L1117.78 702.653C1115.99 702.889 1114.17 703.099 1112.33 703.283L1114.38 704.18ZM1105.89 705.381C1107.44 705.197 1108.96 704.996 1110.48 704.781L1107.91 703.676C1106.4 703.792 1104.88 703.893 1103.35 703.978L1105.89 705.381ZM1466.4 389.294C1465.44 390.485 1464.48 391.668 1463.51 392.839C1463.5 398.214 1463.47 403.581 1463.42 408.937C1464.32 407.7 1465.21 406.449 1466.1 405.191C1466.22 399.903 1466.32 394.602 1466.4 389.294ZM1471.33 382.942C1470.41 384.164 1469.48 385.373 1468.54 386.574C1468.47 391.748 1468.38 396.914 1468.28 402.069C1469.14 400.803 1470 399.526 1470.85 398.238C1471.03 393.151 1471.19 388.052 1471.33 382.942ZM1476.19 376.297C1475.3 377.541 1474.41 378.777 1473.51 380.002C1473.38 384.958 1473.23 389.905 1473.07 394.841C1473.9 393.554 1474.72 392.257 1475.53 390.95C1475.77 386.076 1475.98 381.192 1476.19 376.297ZM1480.97 369.373C1480.13 370.626 1479.28 371.871 1478.43 373.106C1478.24 377.817 1478.04 382.519 1477.82 387.213C1478.6 385.918 1479.37 384.616 1480.14 383.305C1480.44 378.671 1480.71 374.027 1480.97 369.373ZM1485.69 362.171C1484.9 363.419 1484.09 364.658 1483.29 365.891C1483.04 370.333 1482.79 374.767 1482.52 379.194C1483.25 377.91 1483.97 376.618 1484.69 375.319C1485.04 370.947 1485.37 366.563 1485.69 362.171ZM1490.35 354.689C1489.6 355.925 1488.84 357.152 1488.08 358.375C1487.79 362.514 1487.49 366.645 1487.17 370.769C1487.85 369.5 1488.52 368.229 1489.19 366.949C1489.59 362.871 1489.97 358.785 1490.35 354.689ZM1494.91 346.997C1494.22 348.185 1493.53 349.37 1492.83 350.547C1492.5 354.34 1492.15 358.127 1491.79 361.908C1492.41 360.7 1493.02 359.487 1493.62 358.269C1494.06 354.519 1494.49 350.762 1494.91 346.997ZM1499.39 339.102C1498.78 340.207 1498.16 341.306 1497.54 342.401C1497.17 345.794 1496.79 349.182 1496.41 352.566C1496.94 351.459 1497.47 350.348 1497.99 349.233C1498.47 345.862 1498.93 342.486 1499.39 339.102ZM1503.77 331.028L1502.21 333.948C1501.82 336.863 1501.44 339.774 1501.04 342.681C1501.47 341.729 1501.91 340.778 1502.34 339.821C1502.82 336.896 1503.3 333.963 1503.77 331.028ZM1508.01 322.933L1506.84 325.197C1506.47 327.516 1506.11 329.833 1505.73 332.148L1506.62 330.099C1507.09 327.713 1507.55 325.324 1508.01 322.933ZM1512.03 314.971L1511.44 316.157L1510.57 320.754L1510.88 320.024L1512.03 314.971ZM1741.25 110.256C1740.53 109.808 1739.82 109.379 1739.11 108.946C1745.38 114.458 1751.48 119.438 1757.4 123.906C1752.14 119.721 1746.76 115.173 1741.25 110.256ZM1756.99 120.855L1756.25 120.325C1757.29 121.161 1758.31 121.984 1759.33 122.793C1758.55 122.155 1757.77 121.509 1756.99 120.855ZM1742.33 108.426L1743.69 109.288C1739.24 105.263 1734.71 101.019 1730.09 96.5489C1729.48 96.1257 1728.87 95.707 1728.27 95.2954C1733.05 99.938 1737.73 104.312 1742.33 108.426ZM1731.47 102.056C1732.16 102.432 1732.85 102.823 1733.54 103.212C1728.99 98.9584 1724.36 94.4592 1719.64 89.7075C1718.82 89.2033 1718 88.7062 1717.19 88.2226C1722.05 93.1239 1726.81 97.7328 1731.47 102.056ZM1722.24 97.2975C1723.04 97.681 1723.84 98.0777 1724.65 98.481C1720.06 94.0897 1715.39 89.4308 1710.63 84.4988C1709.7 83.9948 1708.77 83.5038 1707.85 83.0272C1712.74 88.0974 1717.54 92.8519 1722.24 97.2975ZM1713.92 93.5929C1714.79 93.9506 1715.66 94.3178 1716.54 94.698C1711.92 90.206 1707.21 85.4261 1702.41 80.3492C1701.41 79.8799 1700.41 79.4286 1699.42 78.9948C1704.36 84.2011 1709.19 89.0626 1713.92 93.5929ZM1706.25 90.6784C1707.15 90.9865 1708.04 91.3089 1708.95 91.6428C1704.3 87.0904 1699.57 82.2253 1694.74 77.0399C1693.71 76.6328 1692.68 76.2505 1691.66 75.8824C1696.63 81.1817 1701.49 86.1101 1706.25 90.6784ZM1699.14 88.4675C1700.03 88.714 1700.92 88.9756 1701.82 89.2479C1697.15 84.6628 1692.39 79.7432 1687.52 74.4747C1686.48 74.143 1685.44 73.8363 1684.41 73.5473C1689.43 78.9201 1694.34 83.8887 1699.14 88.4675ZM1165.01 674.295L1166.26 672.783L1164.81 674.358L1165.01 674.295ZM1160.54 679.688L1162.45 677.368L1161.89 677.556L1159.81 679.841L1160.54 679.688ZM1156.08 685.128L1158.37 682.319L1157.37 682.54L1154.96 685.238L1156.08 685.128ZM1151.62 690.623L1154.2 687.441L1152.87 687.58L1150.2 690.598L1151.62 690.623ZM1147.17 696.167L1149.94 692.71L1148.36 692.692L1145.51 695.95L1147.17 696.167ZM1138.66 700.778C1140.76 699.901 1142.79 698.973 1144.76 697.987L1143.84 697.871L1143.42 698.359L1143.25 698.551L1143.02 698.646C1141.34 699.332 1139.62 699.977 1137.86 700.586L1138.66 700.778ZM1129.27 704.231C1131.31 703.574 1133.31 702.879 1135.25 702.141L1133.98 701.85C1131.88 702.494 1129.74 703.09 1127.55 703.64L1129.27 704.231ZM1120.26 706.803C1122.14 706.327 1124 705.825 1125.82 705.293L1123.64 704.561C1121.75 704.98 1119.82 705.368 1117.87 705.725L1120.26 706.803ZM1111.82 708.707C1113.54 708.362 1115.24 707.999 1116.91 707.613L1114.11 706.368C1112.43 706.639 1110.73 706.89 1109.01 707.12L1111.82 708.707ZM1466.63 369.154C1465.59 370.326 1464.55 371.488 1463.5 372.639C1463.52 378.266 1463.53 383.886 1463.52 389.497C1464.5 388.285 1465.48 387.059 1466.45 385.822C1466.53 380.275 1466.59 374.718 1466.63 369.154ZM1471.8 363.125C1470.79 364.332 1469.78 365.528 1468.76 366.715C1468.72 372.166 1468.66 377.611 1468.59 383.048C1469.54 381.801 1470.49 380.544 1471.43 379.273C1471.57 373.899 1471.69 368.516 1471.8 363.125ZM1476.91 356.837C1475.93 358.072 1474.95 359.296 1473.96 360.513C1473.85 365.773 1473.74 371.027 1473.61 376.273C1474.53 374.99 1475.44 373.698 1476.34 372.397C1476.55 367.219 1476.74 362.031 1476.91 356.837ZM1481.97 350.292C1481.02 351.544 1480.07 352.787 1479.12 354.022C1478.95 359.067 1478.78 364.107 1478.58 369.14C1479.46 367.84 1480.34 366.529 1481.2 365.21C1481.47 360.246 1481.73 355.272 1481.97 350.292ZM1486.97 343.494C1486.06 344.755 1485.15 346.008 1484.23 347.255C1484 352.06 1483.77 356.858 1483.51 361.652C1484.35 360.343 1485.18 359.028 1486.01 357.704C1486.35 352.975 1486.66 348.238 1486.97 343.494ZM1491.92 336.443C1491.05 337.709 1490.17 338.967 1489.29 340.22C1489.01 344.759 1488.71 349.294 1488.4 353.822C1489.2 352.51 1489.99 351.192 1490.78 349.866C1491.17 345.398 1491.55 340.924 1491.92 336.443ZM1496.81 329.188C1495.98 330.435 1495.16 331.678 1494.32 332.914C1493.98 337.154 1493.63 341.388 1493.27 345.619C1494.01 344.328 1494.75 343.032 1495.49 341.73C1495.94 337.556 1496.38 333.374 1496.81 329.188ZM1501.63 321.733C1500.87 322.94 1500.1 324.144 1499.32 325.344C1498.93 329.243 1498.53 333.138 1498.12 337.028C1498.8 335.787 1499.48 334.541 1500.16 333.291C1500.66 329.444 1501.15 325.591 1501.63 321.733ZM1506.4 314.097C1505.7 315.241 1505 316.381 1504.29 317.517C1503.86 321.022 1503.42 324.525 1502.97 328.023C1503.59 326.863 1504.2 325.699 1504.8 324.531C1505.35 321.058 1505.88 317.579 1506.4 314.097ZM1511.08 306.36C1510.47 307.389 1509.85 308.416 1509.23 309.44C1508.78 312.482 1508.33 315.52 1507.86 318.557L1509.41 315.491C1509.97 312.451 1510.53 309.406 1511.08 306.36ZM1515.64 298.592L1514.16 301.128C1513.72 303.602 1513.28 306.075 1512.83 308.547L1513.99 306.153C1514.55 303.634 1515.1 301.114 1515.64 298.592ZM1520 290.975L1519.07 292.611L1517.96 297.831L1518.56 296.553C1519.04 294.695 1519.52 292.835 1520 290.975ZM1523.99 283.863L1523.99 283.87L1523.98 283.901L1523.99 283.863ZM1797.7 150.337C1811.08 158.1 1823.91 165.241 1836.19 171.763C1827.39 166.851 1818.31 161.565 1808.94 155.887C1807.16 155.01 1805.36 154.087 1803.54 153.116C1801.61 152.25 1799.67 151.324 1797.7 150.337ZM1748.17 119.502L1748.83 119.841C1742.87 115.041 1736.74 109.745 1730.45 103.933C1729.6 103.468 1728.75 103.007 1727.92 102.564C1734.89 108.895 1741.64 114.531 1748.17 119.502ZM1738.16 114.593L1739.33 115.136C1733.46 110.344 1727.44 105.042 1721.25 99.2127C1720.35 98.7798 1719.45 98.3585 1718.56 97.9506C1725.3 104.178 1731.83 109.716 1738.16 114.593ZM1729.71 110.974C1730.12 111.136 1730.53 111.312 1730.94 111.478C1725.12 106.71 1719.13 101.405 1712.98 95.5423C1712.07 95.1703 1711.16 94.8107 1710.26 94.4642C1716.95 100.681 1723.44 106.175 1729.71 110.974ZM1722.39 108.258C1722.73 108.375 1723.08 108.507 1723.43 108.628C1717.58 103.901 1711.56 98.5951 1705.38 92.6899C1704.48 92.3825 1703.59 92.0881 1702.7 91.8071C1709.48 98.0716 1716.04 103.543 1722.39 108.258ZM1169.31 672.923L1171.15 670.533L1170.77 670.695L1168.76 673.096L1169.31 672.923ZM1164.82 678.81L1167.07 675.853L1166.24 676.121L1163.84 679.005L1164.82 678.81ZM1160.33 684.742L1162.88 681.363L1161.7 681.608L1159.04 684.855L1160.33 684.742ZM1155.84 690.721L1158.62 687.016L1157.16 687.151C1156.21 688.321 1155.25 689.499 1154.3 690.68L1155.84 690.721ZM1151.36 696.744L1154.29 692.796L1152.62 692.757L1149.62 696.499L1151.36 696.744ZM1143.39 701.93C1145.39 700.864 1147.32 699.747 1149.17 698.573L1148.07 698.423L1147.9 698.644L1147.77 698.81L1147.57 698.915C1145.79 699.859 1143.96 700.753 1142.07 701.603L1143.39 701.93ZM1134.63 706.108C1136.66 705.248 1138.63 704.347 1140.54 703.401L1138.85 702.99C1136.8 703.832 1134.7 704.624 1132.54 705.368L1134.63 706.108ZM1125.97 709.424C1127.92 708.753 1129.82 708.047 1131.68 707.312L1129.23 706.459C1127.29 707.07 1125.32 707.647 1123.3 708.191L1125.97 709.424ZM1117.65 712.034C1119.48 711.513 1121.27 710.966 1123.04 710.398L1120.05 709.032C1118.26 709.474 1116.44 709.89 1114.6 710.286L1117.65 712.034ZM1461.26 354.036C1456.03 359.17 1450.63 364.085 1445.04 368.73L1445.04 368.732C1401.83 406.074 1357.23 449.071 1309.71 502.534C1286.33 528.839 1262.25 557.681 1237.27 589.629C1260.11 563.394 1282.29 539.607 1303.86 517.701C1351.75 469.048 1396.54 429.716 1438.64 393.494L1438.66 393.478C1446.66 386.894 1454.21 379.624 1461.39 371.818C1461.36 365.895 1461.32 359.966 1461.26 354.036ZM1466.72 348.536C1465.6 349.688 1464.48 350.829 1463.35 351.961C1463.41 357.813 1463.46 363.662 1463.49 369.504C1464.55 368.32 1465.6 367.123 1466.65 365.916C1466.69 360.129 1466.71 354.334 1466.72 348.536ZM1472.13 342.805C1471.04 343.991 1469.94 345.169 1468.83 346.336C1468.83 352.04 1468.81 357.74 1468.78 363.436C1469.81 362.212 1470.84 360.974 1471.87 359.728C1471.97 354.092 1472.06 348.45 1472.13 342.805ZM1477.5 336.85C1476.43 338.064 1475.35 339.271 1474.27 340.468C1474.2 346.007 1474.12 351.541 1474.02 357.073C1475.03 355.813 1476.03 354.543 1477.03 353.262C1477.2 347.797 1477.36 342.325 1477.5 336.85ZM1482.83 330.675C1481.79 331.912 1480.74 333.14 1479.68 334.36C1479.54 339.709 1479.39 345.058 1479.23 350.4C1480.21 349.115 1481.18 347.819 1482.14 346.517C1482.39 341.241 1482.62 335.959 1482.83 330.675ZM1488.12 324.29C1487.1 325.541 1486.08 326.785 1485.05 328.022C1484.85 333.161 1484.63 338.297 1484.4 343.43C1485.35 342.125 1486.29 340.812 1487.22 339.491C1487.54 334.429 1487.83 329.361 1488.12 324.29ZM1493.38 317.693C1492.39 318.956 1491.4 320.213 1490.4 321.463C1490.13 326.365 1489.84 331.267 1489.54 336.166C1490.46 334.843 1491.36 333.514 1492.27 332.18C1492.65 327.355 1493.02 322.526 1493.38 317.693ZM1498.6 310.922C1497.64 312.182 1496.68 313.438 1495.72 314.689C1495.38 319.327 1495.03 323.963 1494.67 328.594C1495.54 327.275 1496.41 325.948 1497.27 324.617C1497.73 320.055 1498.17 315.489 1498.6 310.922ZM1503.77 303.988C1502.86 305.232 1501.94 306.47 1501.02 307.705C1500.62 312.042 1500.2 316.377 1499.78 320.71C1500.61 319.41 1501.43 318.106 1502.24 316.798C1502.77 312.53 1503.28 308.26 1503.77 303.988ZM1508.92 296.898C1508.05 298.109 1507.18 299.317 1506.31 300.521C1505.85 304.516 1505.38 308.513 1504.9 312.506C1505.67 311.244 1506.44 309.977 1507.21 308.708C1507.79 304.774 1508.36 300.836 1508.92 296.898ZM1514.01 289.704C1513.2 290.856 1512.4 292.005 1511.58 293.153C1511.08 296.761 1510.56 300.369 1510.04 303.976C1510.74 302.783 1511.45 301.587 1512.15 300.389C1512.78 296.828 1513.4 293.265 1514.01 289.704ZM1519.04 282.446L1516.86 285.617C1516.32 288.767 1515.78 291.919 1515.23 295.07L1517.08 291.841C1517.74 288.709 1518.39 285.577 1519.04 282.446ZM1523.97 275.207L1522.12 277.931C1521.59 280.54 1521.05 283.15 1520.51 285.76L1522 283.083C1522.67 280.458 1523.32 277.831 1523.97 275.207ZM1528.74 268.114L1527.41 270.102L1525.98 275.874L1526.94 274.124L1528.74 268.114ZM1533.16 261.481L1532.71 262.146L1531.85 265.08L1531.89 264.989L1533.16 261.481ZM1178.17 665.249L1179.9 662.83L1179.71 662.931L1177.78 665.406L1178.17 665.249ZM1173.64 671.598L1175.83 668.525L1175.15 668.811L1172.81 671.848L1173.64 671.598ZM1169.12 677.98L1171.64 674.417L1170.59 674.742L1167.95 678.202L1169.12 677.98ZM1164.6 684.403L1167.36 680.47L1166.02 680.732L1163.16 684.512L1164.6 684.403ZM1160.08 690.862L1163.02 686.646L1161.45 686.772L1158.43 690.802L1160.08 690.862ZM1155.56 697.361L1158.64 692.927L1156.88 692.868L1153.74 697.089L1155.56 697.361ZM1148.11 703.127C1150.01 701.871 1151.83 700.564 1153.57 699.202L1152.31 699.017L1152.27 699.077L1152.11 699.177C1150.28 700.405 1148.38 701.572 1146.4 702.689L1148.11 703.127ZM1139.9 708.008C1141.89 706.944 1143.82 705.836 1145.68 704.683L1143.68 704.177C1141.69 705.217 1139.65 706.207 1137.54 707.149L1139.9 708.008ZM1131.57 712.054C1133.55 711.181 1135.48 710.276 1137.35 709.333L1134.69 708.376C1132.74 709.186 1130.74 709.961 1128.7 710.699L1131.57 712.054ZM1123.4 715.375C1125.3 714.666 1127.16 713.928 1128.98 713.167L1125.84 711.695C1123.99 712.323 1122.1 712.923 1120.18 713.496L1123.4 715.375ZM1460.98 332.795C1457.4 336.066 1453.76 339.266 1450.06 342.381L1450.06 342.38C1405.71 380.856 1361.27 427.54 1314.06 485.887C1292.59 512.412 1270.56 541.35 1247.69 573.027C1268.4 547.052 1288.52 523.198 1308.13 501.127C1355.72 447.581 1400.39 404.524 1443.66 367.131L1443.68 367.119C1449.74 362.079 1455.58 356.719 1461.23 351.095C1461.16 344.996 1461.08 338.896 1460.98 332.795ZM1466.67 327.49C1465.48 328.626 1464.28 329.754 1463.07 330.876C1463.17 336.915 1463.25 342.955 1463.32 348.992C1464.46 347.833 1465.59 346.666 1466.72 345.486C1466.72 339.489 1466.7 333.489 1466.67 327.49ZM1472.34 322.002C1471.16 323.167 1469.97 324.326 1468.77 325.479C1468.81 331.402 1468.83 337.33 1468.83 343.255C1469.95 342.058 1471.07 340.85 1472.17 339.633C1472.24 333.757 1472.3 327.88 1472.34 322.002ZM1477.97 316.345C1476.8 317.534 1475.63 318.717 1474.46 319.894C1474.42 325.684 1474.37 331.477 1474.31 337.267C1475.41 336.035 1476.5 334.794 1477.58 333.545C1477.73 327.813 1477.85 322.078 1477.97 316.345ZM1483.58 310.521C1482.43 311.73 1481.28 312.932 1480.12 314.129C1480.02 319.759 1479.9 325.391 1479.76 331.022C1480.84 329.763 1481.91 328.497 1482.97 327.223C1483.19 321.657 1483.39 316.087 1483.58 310.521ZM1489.17 304.544C1488.04 305.765 1486.91 306.983 1485.77 308.195C1485.59 313.641 1485.4 319.089 1485.19 324.536C1486.24 323.255 1487.28 321.967 1488.32 320.672C1488.62 315.296 1488.9 309.918 1489.17 304.544ZM1494.74 298.42C1493.63 299.652 1492.52 300.881 1491.4 302.104C1491.15 307.339 1490.88 312.577 1490.6 317.813C1491.62 316.514 1492.64 315.207 1493.66 313.895C1494.03 308.736 1494.39 303.577 1494.74 298.42ZM1500.29 292.17C1499.21 293.406 1498.12 294.636 1497.02 295.864C1496.69 300.858 1496.35 305.856 1495.99 310.853C1496.99 309.544 1497.98 308.229 1498.97 306.91C1499.43 301.996 1499.87 297.082 1500.29 292.17ZM1505.83 285.815C1504.77 287.04 1503.71 288.261 1502.65 289.482C1502.24 294.204 1501.82 298.931 1501.39 303.657C1502.35 302.354 1503.31 301.045 1504.27 299.733C1504.8 295.091 1505.32 290.453 1505.83 285.815ZM1511.35 279.355C1510.32 280.563 1509.3 281.77 1508.27 282.975C1507.79 287.39 1507.3 291.81 1506.8 296.229C1507.72 294.941 1508.64 293.647 1509.56 292.351C1510.17 288.018 1510.76 283.686 1511.35 279.355ZM1516.85 272.832L1513.89 276.355C1513.34 280.423 1512.79 284.496 1512.22 288.57C1513.1 287.316 1513.98 286.059 1514.85 284.801C1515.53 280.808 1516.19 276.817 1516.85 272.832ZM1522.33 266.267L1519.52 269.639C1518.92 273.314 1518.31 276.994 1517.69 280.676L1520.14 277.084C1520.88 273.475 1521.61 269.868 1522.33 266.267ZM1527.77 259.712L1525.17 262.851C1524.52 266.076 1523.88 269.304 1523.22 272.535L1525.45 269.231C1526.22 266.054 1527 262.881 1527.77 259.712ZM1533.13 253.221L1532.46 254.035L1530.84 255.996C1530.19 258.693 1529.53 261.397 1528.87 264.102L1530.77 261.248C1531.56 258.567 1532.35 255.892 1533.13 253.221ZM1538.35 246.912L1536.54 249.097L1534.74 255.265L1536.13 253.16L1538.35 246.912ZM1543.25 241.009L1542.26 242.195L1540.97 245.824L1541.52 244.995L1542.5 242.728L1543.25 241.009ZM1187.08 656.655L1188.68 654.265L1186.87 656.759L1187.08 656.655ZM1182.52 663.47L1184.63 660.317L1184.11 660.585L1181.85 663.743L1182.52 663.47ZM1177.96 670.32L1180.43 666.607L1179.53 666.979L1176.92 670.622L1177.96 670.32ZM1173.41 677.197L1176.15 673.054L1174.94 673.415L1172.09 677.434L1173.41 677.197ZM1168.86 684.106L1171.8 679.638L1170.34 679.907L1167.31 684.208L1168.86 684.106ZM1164.31 691.045L1167.41 686.323L1165.75 686.44L1162.58 690.965L1164.31 691.045ZM1159.76 698.012L1162.97 693.1L1161.15 693.022L1157.88 697.717L1159.76 698.012ZM1152.83 704.366C1154.62 702.92 1156.34 701.421 1157.97 699.869L1156.4 699.627C1154.63 701.09 1152.77 702.49 1150.83 703.836L1152.83 704.366ZM1145.13 709.939C1147.07 708.669 1148.94 707.356 1150.74 705.996L1148.49 705.405C1146.58 706.646 1144.59 707.835 1142.54 708.976L1145.13 709.939ZM1137.12 714.708C1139.1 713.63 1141.02 712.515 1142.88 711.363L1140.06 710.32C1138.12 711.333 1136.13 712.308 1134.08 713.244L1137.12 714.708ZM1129.11 718.733C1131.05 717.829 1132.95 716.899 1134.81 715.939L1131.54 714.376C1129.65 715.195 1127.71 715.983 1125.73 716.744L1129.11 718.733ZM1460.58 311.281C1458.76 312.869 1456.93 314.449 1455.08 316.016C1409.6 355.627 1365.32 406.003 1318.4 469.242C1298.84 495.606 1278.82 524.202 1258.07 555.18C1276.67 529.886 1294.74 506.404 1312.41 484.555C1359.71 426.1 1404.24 379.33 1448.68 340.774L1448.69 340.763C1452.85 337.264 1456.93 333.656 1460.94 329.96C1460.84 323.731 1460.71 317.503 1460.58 311.281ZM1466.5 306.063C1465.23 307.201 1463.95 308.334 1462.66 309.463C1462.79 315.646 1462.92 321.835 1463.02 328.024C1464.24 326.884 1465.45 325.733 1466.66 324.576C1466.62 318.402 1466.57 312.23 1466.5 306.063ZM1472.42 300.737C1471.15 301.891 1469.87 303.043 1468.59 304.191C1468.66 310.303 1468.72 316.424 1468.76 322.545C1469.96 321.37 1471.16 320.19 1472.35 319.001C1472.39 312.909 1472.41 306.82 1472.42 300.737ZM1478.31 295.322C1477.06 296.488 1475.79 297.652 1474.52 298.812C1474.52 304.828 1474.5 310.85 1474.47 316.875C1475.66 315.674 1476.85 314.465 1478.02 313.251C1478.14 307.271 1478.23 301.293 1478.31 295.322ZM1484.21 289.815C1482.97 290.99 1481.71 292.162 1480.46 293.332C1480.38 299.221 1480.29 305.12 1480.18 311.019C1481.35 309.795 1482.52 308.564 1483.68 307.327C1483.88 301.485 1484.05 295.647 1484.21 289.815ZM1490.11 284.235L1486.39 287.766C1486.23 293.498 1486.06 299.238 1485.88 304.983C1487.03 303.741 1488.18 302.495 1489.33 301.242C1489.6 295.569 1489.86 289.898 1490.11 284.235ZM1496.01 278.584L1492.32 282.126C1492.08 287.672 1491.83 293.226 1491.56 298.784C1492.7 297.525 1493.84 296.262 1494.97 294.994C1495.33 289.519 1495.68 284.047 1496.01 278.584ZM1501.92 272.89L1498.26 276.422C1497.94 281.747 1497.6 287.084 1497.25 292.422C1498.37 291.154 1499.49 289.885 1500.6 288.611C1501.05 283.365 1501.49 278.123 1501.92 272.89ZM1507.82 267.167L1504.21 270.662C1503.8 275.736 1503.38 280.819 1502.95 285.908C1504.05 284.64 1505.14 283.373 1506.23 282.102C1506.77 277.116 1507.3 272.137 1507.82 267.167ZM1513.73 261.413L1512.2 262.908L1510.19 264.863C1509.69 269.649 1509.19 274.445 1508.67 279.247C1509.74 277.987 1510.81 276.728 1511.88 275.464C1512.5 270.773 1513.12 266.088 1513.73 261.413ZM1519.65 255.666L1516.17 259.042C1515.59 263.505 1515.01 267.977 1514.41 272.455L1517.53 268.733C1518.25 264.368 1518.95 260.012 1519.65 255.666ZM1525.57 249.938L1522.19 253.209C1521.53 257.308 1520.87 261.416 1520.2 265.532L1523.2 261.91C1524 257.91 1524.79 253.919 1525.57 249.938ZM1531.48 244.26L1528.22 247.385C1527.5 251.077 1526.77 254.78 1526.03 258.491L1528.9 255.028C1529.76 251.429 1530.63 247.84 1531.48 244.26ZM1537.37 238.668L1534.29 241.582L1531.96 251.316L1534.63 248.092L1537.37 238.668ZM1543.21 233.196C1542.27 234.065 1541.34 234.939 1540.4 235.816L1540.08 236.91L1538.03 243.985L1540.4 241.128L1540.9 239.71L1543.21 233.196ZM1548.92 227.942C1548.13 228.664 1547.33 229.385 1546.54 230.113L1544.29 236.453L1546.21 234.164L1548.92 227.942ZM1554.33 223.051L1552.72 224.492L1550.96 228.524L1552.08 227.218L1554.33 223.051ZM1196.05 647.11L1196.15 646.953L1196.04 647.118L1196.05 647.11ZM1191.47 654.414L1193.48 651.21L1193.14 651.422L1190.95 654.674L1191.47 654.414ZM1186.89 661.736L1189.29 657.899L1188.53 658.287L1185.99 662.087L1186.89 661.736ZM1182.3 669.086L1185 664.76L1183.92 665.192L1181.1 669.423L1182.3 669.086ZM1177.72 676.457L1180.65 671.751L1179.3 672.134L1176.28 676.699L1177.72 676.457ZM1173.14 683.849L1176.23 678.857L1174.68 679.125L1171.5 683.942L1173.14 683.849ZM1168.56 691.263L1171.78 686.047L1170.05 686.15L1166.76 691.165L1168.56 691.263ZM1163.96 698.698L1164.02 698.623L1167.29 693.314L1165.42 693.216L1162.05 698.382L1163.96 698.698ZM1157.55 705.645C1159.25 704.007 1160.86 702.319 1162.38 700.579L1160.56 700.282C1158.91 701.925 1157.16 703.51 1155.33 705.04L1157.55 705.645ZM1150.32 711.901C1152.21 710.426 1154.01 708.905 1155.74 707.339L1153.3 706.679C1151.47 708.12 1149.55 709.511 1147.56 710.854L1150.32 711.901ZM1142.62 717.381C1144.59 716.095 1146.5 714.773 1148.33 713.412L1145.37 712.292C1143.46 713.513 1141.48 714.69 1139.44 715.831L1142.62 717.381ZM1134.79 722.12C1136.76 721.016 1138.68 719.879 1140.54 718.713L1137.17 717.075C1135.26 718.093 1133.31 719.079 1131.3 720.035L1134.79 722.12ZM1460.07 289.686C1413.45 330.433 1369.34 384.49 1322.74 452.597C1305.1 478.361 1287.12 506.14 1268.49 535.971C1284.96 511.807 1300.98 489.169 1316.7 467.976C1363.71 404.616 1408.09 354.131 1453.7 314.413L1453.71 314.404C1456 312.457 1458.27 310.495 1460.52 308.521C1460.39 302.235 1460.23 295.955 1460.07 289.686ZM1466.22 284.387L1462.14 287.899C1462.31 294.155 1462.46 300.421 1462.6 306.696C1463.9 305.551 1465.19 304.404 1466.47 303.252C1466.4 296.956 1466.32 290.666 1466.22 284.387ZM1472.38 279.094L1468.3 282.593C1468.4 288.843 1468.49 295.104 1468.56 301.372C1469.85 300.21 1471.14 299.043 1472.42 297.873C1472.42 291.605 1472.41 285.344 1472.38 279.094ZM1478.56 273.821L1474.48 277.295C1474.51 283.5 1474.53 289.716 1474.53 295.941C1475.81 294.763 1477.08 293.583 1478.35 292.401C1478.44 286.198 1478.5 280.003 1478.56 273.821ZM1484.76 268.571L1480.69 272.012C1480.64 278.131 1480.57 284.264 1480.49 290.405C1481.77 289.215 1483.03 288.025 1484.3 286.833C1484.46 280.735 1484.62 274.645 1484.76 268.571ZM1490.97 263.358C1489.62 264.485 1488.27 265.619 1486.91 266.756C1486.78 272.753 1486.63 278.762 1486.47 284.781L1490.24 281.189C1490.5 275.233 1490.74 269.287 1490.97 263.358ZM1497.22 258.184C1495.87 259.298 1494.51 260.414 1493.16 261.537C1492.94 267.37 1492.7 273.219 1492.45 279.077L1496.2 275.472C1496.55 269.697 1496.89 263.931 1497.22 258.184ZM1503.48 253.073C1502.13 254.165 1500.78 255.263 1499.43 256.367C1499.12 261.998 1498.79 267.646 1498.45 273.304L1502.17 269.699C1502.62 264.144 1503.06 258.6 1503.48 253.073ZM1509.77 248.031C1508.42 249.097 1507.08 250.171 1505.74 251.25C1505.33 256.642 1504.91 262.051 1504.47 267.471L1508.16 263.89C1508.7 258.589 1509.24 253.302 1509.77 248.031ZM1516.09 243.063C1514.75 244.103 1513.42 245.149 1512.08 246.202C1511.57 251.315 1511.05 256.446 1510.52 261.59L1510.72 261.394L1514.17 258.041C1514.82 253.035 1515.46 248.039 1516.09 243.063ZM1522.43 238.187C1521.1 239.196 1519.77 240.211 1518.45 241.234C1517.84 246.033 1517.23 250.848 1516.61 255.676L1520.21 252.186C1520.95 247.505 1521.7 242.836 1522.43 238.187ZM1528.8 233.417C1527.48 234.388 1526.17 235.366 1524.86 236.349C1524.16 240.795 1523.45 245.257 1522.74 249.733L1526.28 246.32L1528.8 233.417ZM1535.17 228.768C1533.88 229.695 1532.59 230.629 1531.31 231.57L1528.93 243.783L1532.38 240.483L1534.29 232.477L1535.17 228.768ZM1541.56 224.249C1540.3 225.125 1539.05 226.009 1537.79 226.9L1536.34 232.967L1535.19 237.821C1536.3 236.767 1537.42 235.716 1538.53 234.671L1541.56 224.249ZM1547.94 219.89C1546.74 220.702 1545.53 221.52 1544.32 222.345L1541.56 231.841C1542.61 230.858 1543.67 229.881 1544.73 228.906C1545.8 225.885 1546.87 222.881 1547.94 219.89ZM1554.28 215.715C1553.15 216.448 1552.02 217.183 1550.89 217.927L1548.05 225.864C1549.03 224.976 1550 224.091 1550.98 223.211C1552.08 220.699 1553.18 218.201 1554.28 215.715ZM1560.5 211.774C1559.5 212.393 1558.5 213.019 1557.51 213.649C1556.6 215.696 1555.69 217.752 1554.78 219.819C1555.62 219.074 1556.46 218.328 1557.3 217.59C1558.36 215.641 1559.43 213.702 1560.5 211.774ZM1566.42 208.167L1564.16 209.524C1563.41 210.876 1562.66 212.232 1561.9 213.595L1563.68 212.082C1564.59 210.77 1565.51 209.464 1566.42 208.167ZM1571.52 205.181L1570.9 205.54L1569.99 206.802L1570.14 206.68L1571.52 205.181ZM1200.47 644.406L1202.37 641.19L1202.2 641.314L1200.12 644.622L1200.47 644.406ZM1195.86 652.222L1198.18 648.289L1197.57 648.663L1195.1 652.598L1195.86 652.222ZM1191.26 660.046L1193.89 655.565L1192.94 656.043L1190.18 660.461L1191.26 660.046ZM1186.64 667.897L1189.53 662.979L1188.3 663.457L1185.31 668.258L1186.64 667.897ZM1182.03 675.757L1185.11 670.502L1183.66 670.903L1180.49 676.002L1182.03 675.757ZM1177.42 683.631L1180.65 678.124L1179.01 678.39L1175.71 683.714L1177.42 683.631ZM1172.81 691.517L1176.14 685.811L1174.35 685.902L1170.95 691.402L1172.81 691.517ZM1168.15 699.41L1168.44 698.994L1171.61 693.563L1169.69 693.448L1166.22 699.079L1168.15 699.41ZM1162.28 706.963C1163.89 705.134 1165.4 703.254 1166.8 701.324L1164.81 700.984C1163.27 702.808 1161.63 704.58 1159.9 706.295L1162.28 706.963ZM1155.48 713.893C1157.31 712.211 1159.05 710.485 1160.7 708.711L1158.13 707.997C1156.38 709.639 1154.53 711.233 1152.6 712.779L1155.48 713.893ZM1148.11 720.083C1150.06 718.587 1151.92 717.053 1153.72 715.48L1150.65 714.299C1148.78 715.726 1146.84 717.113 1144.82 718.459L1148.11 720.083ZM1140.45 725.522C1142.44 724.214 1144.37 722.878 1146.23 721.507L1142.77 719.803C1140.86 721.023 1138.89 722.207 1136.87 723.362L1140.45 725.522ZM1153.9 725.333C1152.02 726.966 1150.08 728.565 1148.05 730.128C1156.09 735.025 1164.24 740.044 1172.43 745.093C1247.33 791.246 1325.95 839.694 1358.32 815.232C1396.59 786.309 1421.32 733.862 1436.95 667.729C1421.16 722.037 1398.06 765.202 1364.62 790.553C1330.95 816.366 1257.58 778.586 1185.31 741.374C1174.77 735.949 1164.26 730.534 1153.9 725.333ZM1161.21 718.415C1159.43 720.262 1157.56 722.062 1155.61 723.825C1165.73 728.913 1175.99 734.199 1186.28 739.495C1257.96 776.404 1330.73 813.877 1363.34 788.874L1363.34 788.871C1401.39 760.028 1425.95 707.77 1441.53 642.144C1425.8 695.966 1402.87 738.917 1369.65 764.184L1369.65 764.186C1335.75 790.532 1267.13 762.092 1197.82 733.364C1185.57 728.287 1173.3 723.204 1161.21 718.415ZM1167.84 710.747C1166.25 712.797 1164.56 714.798 1162.76 716.752C1174.62 721.457 1186.64 726.438 1198.63 731.409C1267.37 759.899 1335.42 788.104 1368.35 762.515L1368.36 762.51C1406.14 733.78 1430.51 681.818 1446.08 616.874C1430.37 670.052 1407.62 712.672 1374.68 737.817L1374.68 737.819C1340.5 764.699 1275.89 744.385 1209.34 723.457C1195.5 719.106 1181.58 714.729 1167.84 710.747ZM1173.48 702.509C1172.17 704.705 1170.73 706.85 1169.2 708.944C1182.71 712.87 1196.38 717.168 1209.97 721.443C1275.98 742.199 1340.06 762.348 1373.37 736.16L1373.38 736.151C1410.52 707.809 1434.6 656.895 1450.21 593.563L1450.29 592.947C1434.6 644.842 1412.12 686.628 1379.71 711.454L1379.71 711.456C1345.24 738.852 1284.13 725.743 1220.2 712.028C1204.68 708.7 1188.99 705.336 1173.48 702.509ZM1178.25 694.013L1174.7 700.403L1174.61 700.565C1189.9 703.366 1205.35 706.678 1220.65 709.962C1284.08 723.569 1344.71 736.576 1378.39 709.803L1378.41 709.792C1413.06 683.252 1436.28 636.991 1451.95 579.602C1452.09 578.329 1452.24 577.056 1452.39 575.778C1436.83 623.264 1415.18 661.673 1384.74 685.089L1384.74 685.091C1350.02 712.96 1292.05 706.321 1230.66 699.29C1213.31 697.302 1195.69 695.29 1178.25 694.013ZM1182.98 685.517L1179.39 691.973C1196.54 693.252 1213.85 695.234 1230.9 697.189C1291.84 704.168 1349.38 710.758 1383.41 683.444L1383.43 683.432C1415.63 658.673 1437.92 616.853 1453.54 565.153C1453.75 563.126 1453.95 561.085 1454.15 559.046C1438.81 601.943 1418.11 636.83 1389.76 658.725L1389.76 658.727C1354.85 687 1299.8 686.208 1240.92 685.36C1221.82 685.086 1202.31 684.807 1182.98 685.517ZM1187.69 677.034L1185.23 681.474L1184.18 683.356C1203.14 682.703 1222.24 682.977 1240.96 683.246C1299.43 684.088 1354.12 684.876 1388.43 657.085L1388.45 657.07C1418.23 634.08 1439.51 596.506 1454.97 550.269C1455.21 547.644 1455.44 545.008 1455.66 542.363C1440.64 580.699 1420.97 612.062 1394.77 632.38L1394.77 632.378C1359.77 660.946 1307.5 665.436 1251.19 670.275C1230.35 672.063 1208.95 673.903 1187.69 677.034ZM1192.4 668.565L1188.99 674.708C1209.77 671.711 1230.66 669.915 1251.01 668.165C1307 663.355 1358.96 658.888 1393.45 630.726L1393.47 630.709C1420.87 609.46 1441.08 575.92 1456.27 534.867C1456.52 531.715 1456.75 528.547 1456.98 525.372C1442.39 559.303 1423.84 587.283 1399.79 606.018L1399.79 606.015C1364.86 634.748 1315.32 643.98 1261.67 653.978C1239.05 658.194 1215.69 662.551 1192.4 668.565ZM1197.1 660.117L1193.82 666.02C1216.51 660.247 1239.25 656.004 1261.28 651.898C1314.67 641.949 1363.96 632.762 1398.47 604.367L1398.49 604.347C1423.57 584.809 1442.63 555.038 1457.43 518.859C1457.67 515.29 1457.9 511.705 1458.11 508.108C1444.07 537.808 1426.71 562.516 1404.82 579.655L1404.82 579.653C1370.17 608.357 1323.42 621.765 1272.61 636.335C1248.08 643.372 1222.6 650.683 1197.1 660.117ZM1201.79 651.683L1198.68 657.279C1223.46 648.23 1248.19 641.138 1272.02 634.303C1322.63 619.791 1369.19 606.437 1403.49 578.01L1403.51 577.99C1426.3 560.145 1444.15 533.946 1458.44 502.375C1458.66 498.425 1458.87 494.458 1459.06 490.478C1445.69 516.165 1429.59 537.749 1409.85 553.29L1409.84 553.288C1375.79 581.689 1331.99 598.635 1284.33 617.072C1257.68 627.385 1229.81 638.17 1201.79 651.683ZM1206.47 643.274L1203.57 648.484C1230.74 635.542 1257.73 625.096 1283.57 615.097C1331.07 596.719 1374.73 579.827 1408.51 551.652L1408.53 551.632C1429.07 535.459 1445.65 512.613 1459.3 485.355C1459.5 481.049 1459.68 476.725 1459.85 472.388C1447.26 494.305 1432.51 512.956 1414.9 526.909L1414.9 526.91C1381.9 554.599 1341.38 574.3 1297.34 595.711C1268.2 609.876 1237.51 624.801 1206.47 643.274ZM1211.15 634.878L1208.52 639.602C1238.55 621.941 1268.2 607.519 1296.41 593.807C1340.33 572.456 1380.74 552.811 1413.53 525.291L1413.55 525.271C1431.89 510.748 1447.12 491.043 1460.02 467.803C1460.19 463.167 1460.34 458.514 1460.47 453.847C1448.79 472.268 1435.44 488.173 1419.92 500.548L1419.92 500.548C1388.72 526.885 1352.05 548.282 1312.38 571.436C1280.18 590.227 1245.99 610.188 1211.15 634.878ZM1215.81 626.516L1213.52 630.619C1247.18 607.044 1280.17 587.786 1311.31 569.613C1350.89 546.513 1387.47 525.167 1418.55 498.93L1418.57 498.913C1434.76 486.017 1448.58 469.218 1460.59 449.683C1460.72 444.749 1460.83 439.798 1460.93 434.837C1450.29 450.035 1438.41 463.376 1424.94 474.184L1424.95 474.185C1396.7 498.154 1364.92 519.685 1330.83 542.78C1294.61 567.316 1255.78 593.628 1215.81 626.516ZM1220.48 618.159L1218.63 621.481C1257.19 590.119 1294.63 564.747 1329.64 541.033C1363.66 517.98 1395.39 496.49 1423.57 472.573L1423.6 472.555C1437.67 461.265 1450.01 447.155 1461.01 431.016C1461.1 425.804 1461.18 420.578 1461.24 415.34C1451.76 427.6 1441.41 438.566 1429.97 447.819L1429.97 447.819C1406.79 467.586 1381.77 486.7 1355.33 506.898C1313.43 538.909 1267.96 573.648 1220.48 618.159ZM1225.12 609.862L1223.86 612.127C1269.65 569.701 1313.51 536.186 1354.05 505.221C1380.43 485.069 1405.39 465.998 1428.59 446.213L1428.62 446.195C1440.62 436.49 1451.43 424.867 1461.28 411.813C1461.33 406.34 1461.37 400.857 1461.39 395.362C1453.21 404.972 1444.45 413.747 1434.99 421.457L1434.99 421.459C1421.26 433.228 1406.79 445.287 1391.9 457.705C1340.98 500.151 1284.96 546.859 1225.12 609.862ZM1229.79 601.534L1229.29 602.44C1287.05 542.365 1341.19 497.228 1390.54 456.087C1405.25 443.825 1419.53 431.919 1433.61 419.852L1433.64 419.837C1443.62 411.699 1452.83 402.347 1461.4 392.068C1461.42 386.359 1461.42 380.64 1461.4 374.915C1454.63 382.154 1447.52 388.918 1440.02 395.092L1440.02 395.093C1397.94 431.31 1353.16 470.626 1305.36 519.184C1280.98 543.945 1255.81 571.123 1229.79 601.534ZM1459.48 268.45C1397.79 324.476 1342.15 407.19 1279.02 515.269C1293.31 492.752 1307.26 471.469 1320.99 451.4C1367.71 383.127 1411.95 328.929 1458.72 288.054L1458.73 288.049L1460 286.952C1459.84 280.772 1459.66 274.605 1459.48 268.45ZM1465.84 262.813C1464.41 264.065 1462.97 265.311 1461.54 266.585C1461.73 272.765 1461.9 278.962 1462.07 285.167L1466.18 281.632C1466.07 275.346 1465.96 269.072 1465.84 262.813ZM1472.25 257.331C1470.81 258.542 1469.36 259.749 1467.92 260.99C1468.04 267.258 1468.16 273.544 1468.26 279.841L1472.37 276.318C1472.34 269.974 1472.3 263.643 1472.25 257.331ZM1478.7 252.008C1477.24 253.178 1475.8 254.388 1474.35 255.594C1474.4 261.887 1474.44 268.198 1474.47 274.523L1478.58 271.024C1478.63 264.669 1478.67 258.328 1478.7 252.008ZM1485.21 246.941C1483.75 248.065 1482.29 249.212 1480.83 250.355C1480.8 256.623 1480.76 262.912 1480.71 269.216C1482.08 268.056 1483.45 266.9 1484.82 265.748C1484.96 259.462 1485.09 253.191 1485.21 246.941ZM1491.76 242.06C1490.29 243.132 1488.82 244.176 1487.36 245.273C1487.24 251.474 1487.11 257.699 1486.98 263.939C1488.34 262.791 1489.71 261.649 1491.08 260.511C1491.32 254.342 1491.55 248.189 1491.76 242.06ZM1498.36 237.337C1496.88 238.367 1495.4 239.413 1493.93 240.476C1493.72 246.528 1493.5 252.605 1493.27 258.698C1494.64 257.563 1496.01 256.435 1497.38 255.312C1497.72 249.3 1498.05 243.306 1498.36 237.337ZM1505.01 232.811C1503.52 233.798 1502.04 234.825 1500.56 235.844C1500.24 241.707 1499.92 247.595 1499.59 253.502C1500.96 252.385 1502.33 251.275 1503.71 250.17C1504.15 244.362 1504.58 238.573 1505.01 232.811ZM1511.69 228.549C1510.2 229.481 1508.72 230.421 1507.24 231.371C1506.82 237.008 1506.39 242.673 1505.96 248.356C1507.33 247.263 1508.69 246.179 1510.06 245.098C1510.61 239.558 1511.16 234.039 1511.69 228.549ZM1518.43 224.444C1516.94 225.328 1515.44 226.202 1513.96 227.113C1513.44 232.476 1512.91 237.866 1512.37 243.278C1513.73 242.208 1515.1 241.144 1516.47 240.089C1517.13 234.85 1517.78 229.633 1518.43 224.444ZM1525.21 220.506C1523.71 221.348 1522.22 222.223 1520.73 223.099C1520.1 228.132 1519.46 233.194 1518.82 238.274C1520.18 237.232 1521.54 236.199 1522.9 235.171L1524.76 223.373L1525.21 220.506ZM1532.02 216.835C1530.52 217.623 1529.04 218.436 1527.55 219.245L1526.85 223.698L1525.33 233.348C1526.68 232.34 1528.04 231.339 1529.39 230.346L1529.82 228.167L1532.02 216.835ZM1538.86 213.364C1537.38 214.095 1535.89 214.801 1534.42 215.551L1531.9 228.518C1533.24 227.547 1534.58 226.581 1535.92 225.627C1536.9 221.514 1537.88 217.426 1538.86 213.364ZM1545.73 210.051C1544.25 210.735 1542.78 211.434 1541.32 212.148C1540.39 216.003 1539.47 219.88 1538.53 223.78C1539.86 222.853 1541.18 221.932 1542.51 221.021C1543.58 217.342 1544.66 213.683 1545.73 210.051ZM1552.61 206.965C1551.16 207.595 1549.72 208.257 1548.28 208.911C1547.27 212.298 1546.27 215.709 1545.26 219.141C1546.55 218.266 1547.85 217.402 1549.14 216.544C1550.3 213.328 1551.45 210.135 1552.61 206.965ZM1559.46 204.137C1558.07 204.7 1556.67 205.255 1555.27 205.832C1554.21 208.74 1553.15 211.667 1552.08 214.613C1553.33 213.8 1554.59 212.995 1555.84 212.196C1557.05 209.491 1558.26 206.804 1559.46 204.137ZM1566.28 201.474C1564.95 201.973 1563.62 202.469 1562.3 202.987C1561.22 205.367 1560.14 207.762 1559.06 210.174C1560.24 209.44 1561.42 208.711 1562.6 207.991C1563.82 205.803 1565.05 203.63 1566.28 201.474ZM1572.97 199.053C1571.76 199.475 1570.56 199.925 1569.35 200.363C1568.32 202.164 1567.28 203.978 1566.25 205.804C1567.31 205.18 1568.37 204.559 1569.43 203.945C1570.6 202.3 1571.79 200.671 1572.97 199.053ZM1579.27 196.979C1578.34 197.277 1577.41 197.57 1576.49 197.871C1575.62 199.043 1574.75 200.222 1573.88 201.409C1574.69 200.957 1575.5 200.508 1576.32 200.061C1577.3 199.025 1578.28 197.998 1579.27 196.979ZM1584.8 195.209C1584.41 195.327 1584.03 195.464 1583.64 195.582L1582.46 196.768L1583.27 196.351C1583.78 195.967 1584.29 195.588 1584.8 195.209ZM1578.84 194.721C1580.12 194.31 1581.4 193.883 1582.7 193.49C1638.41 137.297 1702.2 106.758 1811.25 168.44C1850.34 186.583 1884.76 201.155 1915.15 212.365C1881.61 199.673 1842.9 181.766 1798.14 158.127L1798.08 158.097L1798.06 158.08C1688.2 86.4253 1629.96 126.864 1578.84 194.721ZM1571.13 197.289C1572.53 196.792 1573.93 196.308 1575.35 195.835C1627.49 125.659 1686.42 82.7546 1799.19 156.288C1825.8 170.341 1850.24 182.355 1872.73 192.452C1846.66 180.204 1817.84 164.783 1785.94 145.899L1785.9 145.877L1785.85 145.842C1783.86 144.385 1781.9 142.986 1779.95 141.611C1777.49 140.455 1774.98 139.19 1772.44 137.817C1768.9 136.296 1765.29 134.531 1761.6 132.523C1758 130.998 1754.33 129.206 1750.58 127.153C1741.51 123.353 1731.94 117.803 1721.86 110.377C1664.96 90.915 1627.29 116.113 1595.41 159.57C1587 171.029 1578.99 183.765 1571.13 197.289ZM1563.68 199.975C1565.12 199.43 1566.59 198.928 1568.04 198.402C1576.34 184.016 1584.8 170.47 1593.71 158.32C1625.09 115.537 1661.98 90.1502 1716.68 106.44C1710.76 101.779 1704.65 96.4851 1698.37 90.5304C1659.32 79.8435 1630.92 94.854 1607.37 123.914C1591.17 143.895 1577.22 170.505 1563.68 199.975ZM1556.34 202.925C1557.84 202.316 1559.33 201.7 1560.84 201.109C1574.73 170.7 1589.02 143.188 1605.72 122.581C1629.11 93.7263 1657.12 78.3774 1695.14 87.4274C1690.44 82.851 1685.64 77.9106 1680.74 72.5963C1651.29 65.576 1628.77 75.7725 1610.11 96.901C1588.75 121.093 1572.32 159.554 1556.34 202.925ZM1549.14 206.012C1550.65 205.328 1552.17 204.639 1553.7 203.991C1569.96 159.681 1586.64 120.28 1608.52 95.5002C1627.12 74.4438 1649.38 63.911 1678.16 69.7737C1674.03 65.2147 1669.83 60.3972 1665.55 55.3058C1642.04 50.1063 1623.5 57.5196 1608.08 73.7175C1582.97 100.1 1565.91 149.68 1549.14 206.012ZM1542.02 209.249C1543.53 208.528 1545.06 207.844 1546.59 207.151C1563.61 149.844 1580.86 99.2554 1606.56 72.2563C1621.96 56.0802 1640.31 48.3462 1663.32 52.6225C1659.54 48.0724 1655.71 43.3161 1651.82 38.3433C1632.16 34.018 1616.36 39.6343 1603.17 52.602C1575.19 80.1158 1558.62 140.492 1542.02 209.249ZM1534.97 212.718C1536.5 211.955 1538.02 211.206 1539.56 210.462C1556.37 140.69 1573.07 79.2373 1601.68 51.1006C1614.88 38.1267 1630.54 32.2011 1649.79 35.7248C1646.28 31.1926 1642.72 26.4924 1639.12 21.6138C1621.96 17.5831 1608 21.935 1596.34 32.7423C1566.1 60.7673 1550.78 131.84 1534.97 212.718ZM1528 216.398C1529.52 215.567 1531.05 214.728 1532.59 213.929C1548.58 132.024 1563.98 59.8522 1594.9 31.1944C1606.58 20.3709 1620.4 15.712 1637.2 19.0059C1633.92 14.518 1630.59 9.88957 1627.23 5.10903C1611.59 0.940806 1598.82 4.32398 1588.17 13.6854C1556.13 41.8486 1542.59 123.593 1528 216.398ZM1521.08 220.239C1522.6 219.363 1524.13 218.502 1525.66 217.658C1540.41 123.798 1553.98 40.9168 1586.77 12.0954C1597.45 2.71611 1610.09 -0.976917 1625.37 2.4638C1622.29 -1.94699 1619.17 -6.47366 1616.02 -11.1314C1601.18 -15.8192 1589.08 -13.2429 1579.04 -4.83112C1545.72 23.0748 1534.29 114.552 1521.32 218.366L1521.08 220.239ZM1514.24 224.239C1515.75 223.329 1517.27 222.468 1518.79 221.581L1519.22 218.104C1532.25 113.848 1543.73 21.9777 1577.67 -6.45477C1587.74 -14.884 1599.71 -17.7897 1614.18 -13.8653C1611.31 -18.1362 1608.42 -22.5069 1605.49 -26.9852C1590.83 -32.6042 1578.94 -30.7996 1569.18 -22.972C1535.63 3.92442 1526.19 101.132 1515.37 212.574L1514.24 224.239ZM1507.45 228.531C1508.95 227.573 1510.46 226.608 1511.97 225.67L1513.27 212.371C1524.13 100.457 1533.6 2.83511 1567.85 -24.6182C1577.63 -32.4609 1589.36 -34.6297 1603.62 -29.8576C1600.98 -33.9212 1598.32 -38.0637 1595.64 -42.2985C1580.58 -49.3478 1568.52 -48.3553 1558.76 -40.8358C1525.12 -14.9254 1517.68 87.628 1509.06 206.34C1508.53 213.68 1507.99 221.082 1507.45 228.531ZM1500.71 232.983C1502.21 231.956 1503.71 230.923 1505.22 229.934C1505.81 221.958 1506.39 214.036 1506.96 206.183C1515.61 86.9675 1523.08 -16.02 1557.47 -42.5074C1567.25 -50.0349 1579.11 -51.4451 1593.68 -45.3901L1590.98 -49.6918C1589.46 -52.1191 1587.97 -54.493 1586.48 -56.8372C1570.5 -65.9371 1557.91 -65.9148 1547.92 -58.4947C1514.3 -33.5381 1508.82 74.0142 1502.43 199.672C1501.87 210.652 1501.3 221.77 1500.71 232.983ZM1494.03 237.592C1495.52 236.533 1497.02 235.504 1498.52 234.472C1499.14 222.718 1499.73 211.065 1500.32 199.564C1506.74 73.3655 1512.24 -34.6479 1546.66 -60.1956C1556.62 -67.5959 1568.93 -68.1448 1584.26 -60.3305C1581.98 -63.8935 1579.74 -67.3624 1577.54 -70.7265C1560.34 -82.328 1547.05 -83.4127 1536.72 -76.0052C1503.22 -51.9659 1499.68 60.2755 1495.5 192.588C1495.04 207.371 1494.56 222.404 1494.03 237.592ZM1487.41 242.417C1488.89 241.321 1490.38 240.249 1491.86 239.175C1492.41 223.423 1492.9 207.837 1493.39 192.52C1497.58 59.6458 1501.14 -53.0727 1535.49 -77.722C1545.72 -85.0634 1558.58 -84.6763 1574.85 -74.8185C1572.78 -77.9465 1570.75 -80.9827 1568.75 -83.9358C1550.09 -98.4928 1535.97 -100.841 1525.26 -93.3967C1491.94 -70.2257 1490.28 46.4185 1488.31 185.102C1488.04 203.864 1487.77 223.027 1487.41 242.417ZM1480.84 247.472C1482.31 246.317 1483.78 245.157 1485.27 244.032C1485.64 224.079 1485.92 204.362 1486.2 185.069C1488.17 45.7948 1489.84 -71.3459 1524.05 -95.1316C1534.56 -102.443 1548.03 -101.035 1565.35 -88.9063C1563.59 -91.4699 1561.86 -93.9564 1560.15 -96.3773C1539.79 -114.413 1524.7 -118.22 1513.56 -110.697C1480.48 -88.3572 1480.66 32.4289 1480.87 177.223C1480.9 200.139 1480.94 223.651 1480.84 247.472ZM1474.32 252.686C1475.78 251.483 1477.25 250.289 1478.72 249.122C1478.82 224.738 1478.79 200.669 1478.76 177.226C1478.54 31.8166 1478.36 -89.4825 1512.38 -112.45C1523.15 -119.722 1537.2 -117.254 1555.58 -102.764C1554.28 -104.549 1553.01 -106.29 1551.75 -107.994C1529.44 -130.071 1513.29 -135.551 1501.68 -127.926C1468.88 -106.375 1470.84 18.3087 1473.21 168.969C1473.64 196.181 1474.08 224.237 1474.32 252.686ZM1467.86 258.054C1469.31 256.818 1470.77 255.628 1472.23 254.419C1471.98 225.389 1471.53 196.758 1471.09 169.008C1468.72 17.7092 1466.75 -107.503 1500.52 -129.691C1511.4 -136.839 1525.83 -133.432 1544.94 -116.971L1543.61 -118.676C1519.09 -145.44 1501.74 -152.842 1489.65 -145.094C1457.17 -124.289 1460.85 4.06812 1465.34 160.358C1466.25 192.001 1467.18 224.784 1467.86 258.054ZM1461.45 263.669C1462.89 262.397 1464.33 261.126 1465.78 259.874C1465.1 226.002 1464.15 192.62 1463.22 160.419C1458.72 3.46984 1455.02 -125.429 1488.5 -146.877C1498.88 -153.523 1512.68 -149.987 1530.93 -133.97C1506.5 -161.611 1489.32 -169.626 1477.47 -162.216C1445.34 -142.122 1450.7 -10.3009 1457.27 151.399C1458.74 187.633 1460.27 225.358 1461.45 263.669ZM1209.53 633.435L1211.22 630.406L1209.35 633.566L1209.53 633.435ZM1204.9 641.745L1207.13 637.75L1206.67 638.073L1204.29 642.11L1204.9 641.745ZM1200.26 650.071L1202.83 645.456L1202.02 645.945L1199.32 650.53L1200.26 650.071ZM1195.63 658.401L1198.47 653.299L1197.36 653.841L1194.41 658.855L1195.63 658.401ZM1190.99 666.748L1194.04 661.259L1192.7 661.765L1189.55 667.123L1190.99 666.748ZM1186.35 675.094L1189.57 669.305L1188.03 669.713L1184.73 675.338L1186.35 675.094ZM1181.71 683.448L1183.38 680.439L1185.05 677.431L1183.35 677.692L1179.94 683.519L1181.71 683.448ZM1177.06 691.804L1180.5 685.613L1178.67 685.692L1175.17 691.672L1177.06 691.804ZM1172.4 700.162C1172.55 699.896 1172.71 699.636 1172.86 699.369L1175.92 693.848L1173.97 693.715L1170.41 699.808L1172.4 700.162ZM1167.03 708.318C1168.55 706.296 1169.95 704.225 1171.25 702.105L1169.11 701.727C1167.69 703.737 1166.16 705.694 1164.52 707.599L1167.03 708.318ZM1160.65 715.916C1162.41 714.027 1164.08 712.094 1165.64 710.115L1162.98 709.354C1161.3 711.199 1159.53 712.997 1157.67 714.746L1160.65 715.916ZM1153.58 722.809C1155.5 721.102 1157.33 719.358 1159.07 717.571L1155.93 716.341C1154.11 717.979 1152.2 719.573 1150.21 721.127L1153.58 722.809ZM1146.12 728.955C1148.1 727.44 1150.02 725.89 1151.86 724.308L1148.34 722.556C1146.44 723.98 1144.48 725.371 1142.45 726.729L1146.12 728.955ZM796.107 475.567L785.41 486.228C763.377 520.093 753.19 573.344 742.865 627.343C731.101 688.856 719.152 751.344 689.376 786.701C678.967 799.059 666.346 808.094 650.759 812.629L652.481 814.357C667.956 809.611 680.553 800.467 690.995 788.068C721.125 752.291 733.127 689.524 744.944 627.738C756.544 567.075 767.968 507.359 796.107 475.567ZM2051.13 138.289L2049.53 136.683C2046.22 144.395 2042.6 151.593 2038.66 158.237L2044.19 152.727C2046.63 148.137 2048.95 143.321 2051.13 138.289ZM686.176 848.164C692.267 844.169 697.673 839.126 702.51 833.203C724.665 806.066 735.18 760.596 745.84 714.492C759.335 656.134 773.063 596.761 811.042 571.453L811.051 571.449C843.126 550.471 893.62 582.046 952.73 619.011C973.491 631.996 995.325 645.649 1017.77 657.911C991.413 642.235 966.244 624.419 942.766 607.801C887.073 568.377 840.968 535.742 811.846 554.878L811.846 554.879C774.356 579.949 760.822 640.545 747.43 700.508C736.505 749.427 725.671 797.933 701.938 826.817C696.161 833.849 689.631 839.714 682.165 844.14L680.602 842.571C688.067 838.244 694.572 832.452 700.306 825.474C723.721 796.978 734.5 748.718 745.37 700.047C758.854 639.67 772.482 578.655 810.666 553.121L810.675 553.118C841.007 533.177 887.65 566.192 943.992 606.076C962.283 619.023 981.605 632.699 1001.71 645.513C977.51 628.854 954.721 610.739 933.597 593.946C880.967 552.106 838.729 518.529 811.468 536.547L811.47 536.548C773.778 561.838 760.339 624.052 746.955 686.008C735.832 737.502 724.745 788.822 699.737 819.083C693.051 827.174 685.378 833.748 676.468 838.423L674.882 836.832C683.81 832.273 691.466 825.775 698.111 817.734C722.788 787.874 733.821 736.806 744.889 685.565C758.363 623.189 771.894 560.554 810.29 534.79L810.295 534.79C838.842 515.916 881.619 549.92 934.917 592.291C950.909 605.005 967.857 618.476 985.642 631.494C963.648 614.195 943.158 596.014 924.261 579.241C874.906 535.437 836.477 501.331 811.09 518.22L811.089 518.219C773.192 543.739 759.842 607.552 746.467 671.485C735.159 725.545 723.831 779.697 697.541 811.34C689.932 820.497 681.084 827.755 670.65 832.586L669.032 830.963C679.508 826.27 688.352 819.096 695.92 809.985C721.863 778.762 733.138 724.86 744.395 671.049C757.857 606.694 771.294 542.459 809.91 516.462L809.915 516.456C836.66 498.666 875.625 533.247 925.668 577.662C939.511 589.948 954.209 602.993 969.725 615.886C949.95 598.288 931.685 580.271 914.903 563.716C868.97 518.401 834.235 484.137 810.716 499.887L810.715 499.886C772.599 525.635 759.333 591.034 745.968 656.93C734.482 713.565 722.921 770.57 695.354 803.588C686.812 813.819 676.753 821.739 664.714 826.631L663.062 824.974C675.165 820.244 685.23 812.418 693.734 802.233C720.952 769.633 732.461 712.885 743.896 656.505C757.346 590.184 770.698 524.363 809.534 498.132L809.536 498.129C834.488 481.42 869.753 516.207 916.387 562.213C928.182 573.849 940.711 586.209 953.983 598.635C936.464 581.102 920.383 563.524 905.647 547.415C863.217 501.034 832.021 466.931 810.342 481.552L810.341 481.551C771.997 507.534 758.815 574.504 745.461 642.345C733.807 701.554 722.022 761.428 693.168 795.83C683.682 807.141 672.371 815.687 658.652 820.549L656.976 818.867C670.783 814.189 682.104 805.738 691.555 794.469C720.046 760.498 731.78 700.886 743.382 641.938C756.822 573.666 770.088 506.272 809.154 479.802L809.157 479.799C832.349 464.159 864.064 498.829 907.2 545.983C917.029 556.726 927.457 568.126 938.511 579.728C923.271 562.643 909.338 545.8 896.582 530.38C857.69 483.362 829.848 449.705 809.968 463.218C807.683 464.771 805.491 466.476 803.38 468.317L812.095 459.631C833.152 450.391 860.607 483.577 898.206 529.03C925.84 562.436 959.013 602.535 999.007 637.234C1004.58 641.887 1010.27 646.44 1016.09 650.863C1021.52 654.822 1027.04 658.67 1032.66 662.381C1037.98 665.735 1043.37 668.972 1048.83 672.06C1053.91 674.781 1059.04 677.376 1064.22 679.828C1069.11 681.997 1074.03 684.04 1078.98 685.932C1083.55 687.537 1088.13 689.016 1092.71 690.354C1096.93 691.444 1101.14 692.409 1105.34 693.245L1105.71 693.242C1108.44 692.829 1111.18 692.47 1113.95 692.158C1116.71 691.462 1119.49 690.818 1122.29 690.22C1125.09 689.235 1127.9 688.301 1130.73 687.412C1133.57 686.14 1136.41 684.916 1139.27 683.736C1142.12 682.18 1144.98 680.669 1147.85 679.202C1150.73 677.351 1153.62 675.545 1156.52 673.781C1159.43 671.626 1162.36 669.514 1165.28 667.445C1168.21 664.997 1171.14 662.595 1174.07 660.231C1177.02 657.488 1179.96 654.792 1182.89 652.132C1185.88 649.047 1188.87 646.007 1191.85 643.009C1194.86 639.615 1197.85 636.267 1200.84 632.961C1203.88 629.225 1206.9 625.538 1209.91 621.893C1212.96 617.835 1215.99 613.825 1219.01 609.86C1222.06 605.468 1225.1 601.124 1228.13 596.826C1231.2 592.088 1234.25 587.401 1237.28 582.763C1240.38 577.641 1243.46 572.574 1246.52 567.558C1323.42 431.961 1387.22 330.553 1459.39 265.483C1458.2 226.578 1456.65 188.26 1455.15 151.482C1448.56 -10.8935 1443.18 -143.266 1476.35 -164.011C1491.09 -173.226 1513.1 -160.719 1545.51 -119.529C1550.45 -114.14 1555.66 -108 1561.15 -101.069C1566.16 -95.6269 1571.43 -89.4537 1576.98 -82.5156C1582.03 -77.0507 1587.33 -70.8885 1592.9 -63.991C1598.05 -58.4479 1603.46 -52.2185 1609.13 -45.2689C1614.31 -39.7268 1619.73 -33.535 1625.41 -26.6551C1630.71 -21.0403 1636.25 -14.7818 1642.04 -7.85375C1647.38 -2.24232 1652.96 3.9842 1658.78 10.8484C1664.22 16.4936 1669.9 22.7336 1675.8 29.595C1681.36 35.2673 1687.13 41.5137 1693.13 48.3619C1698.76 54.0112 1704.6 60.2047 1710.66 66.975C1714.22 70.4818 1717.88 74.1976 1721.61 78.1174C1729.55 85.6998 1737.29 92.8573 1744.84 99.6018C1758.37 111.331 1771.29 121.877 1783.65 131.319C1793.02 130.665 1801.72 127.699 1809.78 122.654C1843.49 101.574 1866.46 44.5598 1882.42 -30.9853L1884.13 -29.2666C1868.03 46.2133 1844.87 103.207 1810.9 124.448C1803.21 129.261 1794.96 132.245 1786.13 133.214L1787.76 134.443L1787.85 134.507L1787.86 134.513C1789.13 135.453 1790.4 136.383 1791.67 137.3C1803.7 137.461 1814.65 134.081 1824.63 127.59C1857.12 106.446 1879.43 52.652 1895.07 -18.2938L1896.77 -16.5816C1881.01 54.2872 1858.51 108.063 1825.78 129.361C1816.25 135.563 1805.87 139.022 1794.55 139.383C1796.21 140.576 1797.86 141.744 1799.5 142.9C1814.45 144.237 1827.8 140.494 1839.71 132.411C1870.89 111.27 1892.48 60.7358 1907.74 -5.57406L1909.45 -3.86436C1894.06 62.3626 1872.29 112.87 1840.9 134.158C1829.5 141.89 1816.85 145.787 1802.81 145.228C1804.21 146.202 1805.6 147.163 1806.99 148.11C1825.21 151.034 1841.14 146.965 1855.07 137.103C1884.8 116.044 1905.61 68.8084 1920.45 7.17424L1922.14 8.87424C1907.19 70.4187 1886.22 117.63 1856.29 138.826C1842.98 148.252 1827.93 152.553 1810.89 150.748C1811.97 151.474 1813.05 152.203 1814.12 152.913C1836.02 157.862 1854.72 153.498 1870.72 141.644C1898.89 120.77 1918.81 76.852 1933.17 19.9376L1934.86 21.6356C1920.39 78.4566 1900.32 122.342 1871.98 143.345C1856.73 154.643 1839.12 159.349 1818.77 155.965C1819.46 156.417 1820.15 156.853 1820.84 157.297C1846.88 164.746 1868.57 160.092 1886.69 146.017C1913.16 125.448 1932.11 84.8949 1945.93 32.7363L1947.61 34.4233C1933.69 86.4821 1914.61 127.002 1887.99 147.688C1870.8 161.042 1850.52 166.173 1826.54 160.905L1827.03 161.208C1857.79 171.709 1882.73 166.768 1903.01 150.2C1927.64 130.083 1945.52 92.9338 1958.71 45.5673L1960.39 47.2524C1947.1 94.513 1929.11 131.615 1904.35 151.837C1885.92 166.891 1863.8 172.633 1837.16 166.332C1871.17 178.319 1898.17 172.71 1919.71 154.167C1942.35 134.677 1959.03 100.962 1971.53 58.4231L1973.2 60.1012C1960.62 102.526 1943.84 136.189 1921.1 155.767C1901.66 172.507 1877.93 179.006 1848.85 172.001C1885.69 184.841 1914.37 178.332 1936.82 157.896C1957.32 139.24 1972.69 109.014 1984.39 71.3267L1986.05 72.9911C1974.27 110.559 1958.82 140.728 1938.25 159.456C1917.8 178.076 1892.35 185.441 1860.55 177.663C1900.57 191.421 1931.03 183.906 1954.37 161.368C1972.57 143.788 1986.5 117.099 1997.3 84.2768L1998.95 85.9328C1988.09 118.629 1974.09 145.253 1955.83 162.887C1934.34 183.644 1907.01 191.997 1872.05 183.28C1915.75 198.133 1948.14 189.467 1972.35 164.571C1988.13 148.345 2000.48 125.242 2010.26 97.2826L2011.9 98.9283C2002.07 126.759 1989.67 149.787 1973.86 166.048C1951.38 189.168 1922.07 198.647 1883.59 188.907C1931.4 204.938 1965.78 194.994 1990.77 167.509C2004.01 152.947 2014.64 133.469 2023.27 110.339L2024.9 111.972C2016.24 134.964 2005.58 154.364 1992.33 168.934C1968.87 194.732 1937.4 205.452 1894.76 194.427C1947.4 211.904 1983.92 200.569 2009.61 170.2C2020.23 157.643 2029.03 141.837 2036.36 123.474L2037.98 125.093C2030.63 143.315 2021.83 159.034 2011.22 171.573C1986.93 200.292 1953.24 212.384 1905.92 199.948C1944.25 212.504 1974.12 211.192 1997.54 199.221L1993.03 203.712C1972.47 212.462 1947.33 213.609 1916.46 205.299C1941.88 213.555 1963.63 216.342 1982.27 214.436L1979.9 216.802C1964.27 218.008 1946.57 216.048 1926.47 210.497C1944.71 216.375 1961.08 219.761 1975.79 220.891L1973.82 222.858C1962.24 221.822 1949.67 219.429 1936.01 215.571C1948.88 219.675 1960.84 222.7 1971.96 224.709L1970.15 226.517C1961.79 224.946 1952.97 222.816 1943.65 220.097C1952.64 222.948 1961.19 225.351 1969.33 227.332L1967.6 229.062C1960.38 227.276 1952.86 225.169 1945 222.715C1952.72 225.203 1960.13 227.426 1967.25 229.403L1965.54 231.109C1924.11 219.513 1873.19 199.529 1810.35 170.358L1810.28 170.317C1704.37 110.385 1641.52 138.474 1587 192.228C1588.01 191.934 1589.04 191.66 1590.06 191.376C1649.35 149.041 1717.94 130.66 1823.36 180.619L1823.36 180.617C1879.74 203.188 1926.48 220.045 1965.33 231.325L1963.63 233.018C1924.87 221.71 1878.42 204.94 1822.57 182.584L1822.51 182.555C1721.04 134.442 1653.91 150.265 1596.2 189.712C1596.68 189.589 1597.17 189.485 1597.66 189.364C1604.08 186.451 1610.62 183.769 1617.28 181.343C1675.82 160.044 1744.25 158.471 1835.49 192.807C1885.15 209.505 1927.34 223.104 1963.26 233.38L1961.56 235.082C1925.79 224.824 1883.92 211.328 1834.79 194.807L1834.75 194.795C1744.05 160.657 1676.09 162.195 1618.01 183.329C1615.02 184.415 1612.07 185.554 1609.13 186.741C1674.64 173.033 1751.43 178.834 1847.56 204.988C1865.63 209.903 1879.72 213.76 1893.18 217.448C1917.77 224.181 1940.24 230.337 1960.81 235.827L1959.08 237.555C1938.82 232.142 1916.73 226.094 1892.62 219.491C1877.16 215.256 1860.86 210.79 1847.01 207.024C1745.38 179.375 1665.45 174.598 1597.61 191.71C1593.2 193.728 1588.84 195.855 1584.53 198.084C1580.17 201.359 1575.85 204.756 1571.57 208.263C1567.58 212.608 1563.63 217.066 1559.69 221.608C1556.05 226.95 1552.41 232.382 1548.77 237.869L1544.16 246.529C1542.37 249.887 1540.58 253.258 1538.77 256.636C1535.77 263.534 1532.74 270.46 1529.65 277.374C1526.93 284.784 1524.16 292.189 1521.32 299.551C1518.83 307.415 1516.26 315.244 1513.61 323C1511.33 331.07 1508.98 339.083 1506.53 346.998C1504.43 355.235 1502.25 363.392 1499.95 371.435C1497.99 379.847 1495.92 388.158 1493.74 396.339C1491.89 404.809 1489.95 413.166 1487.88 421.381C1486.13 429.848 1484.28 438.195 1482.32 446.391C1480.65 454.897 1478.87 463.274 1476.98 471.492C1475.4 479.879 1473.72 488.131 1471.91 496.227C1470.39 504.654 1468.75 512.939 1466.99 521.063C1465.48 529.653 1463.85 538.088 1462.11 546.356C1460.67 554.71 1459.12 562.914 1457.46 570.956C1456.06 579.307 1454.54 587.509 1452.91 595.545C1451.52 604.04 1450 612.378 1448.37 620.544C1433.92 709.444 1407.09 781.02 1359.6 816.915C1326.07 842.249 1246.82 793.413 1171.32 746.889C1162.89 741.693 1154.51 736.525 1146.24 731.495C1105.01 762.286 1035.81 779.818 968.527 796.859C910.319 811.602 853.545 825.979 817.841 848.195C784.789 868.763 768.419 895.404 756.005 918.225L754.451 916.666C766.949 893.742 783.484 867.082 816.721 846.4C852.705 824.01 909.636 809.591 968.005 794.81C1034.74 777.908 1103.36 760.524 1144.3 730.314L1140.5 728.014C1100.27 754.009 1036.3 767.784 973.28 781.353C913.27 794.272 854.115 807.009 817.465 829.864C781.141 852.595 765.258 885.138 752.182 911.926L751.375 913.58L749.799 911.999L750.287 910.999C763.484 883.962 779.516 851.117 816.344 828.07C853.308 805.019 912.641 792.245 972.832 779.284C1035.23 765.849 1098.56 752.21 1138.48 726.798L1134.74 724.55C1095.59 746.062 1036.51 756.368 977.664 766.628C916.001 777.378 854.603 788.083 817.089 811.532L817.088 811.532C780.926 834.29 765.284 869.087 752.118 898.38C750.432 902.132 748.786 905.794 747.142 909.333L745.548 907.733C747.078 904.424 748.616 901.006 750.187 897.509C763.472 867.953 779.255 832.841 815.965 809.741L815.968 809.738C853.818 786.078 915.426 775.337 977.299 764.549C1035.44 754.411 1093.83 744.228 1132.65 723.296L1128.98 721.114C1090.96 738.469 1036.38 745.586 981.58 752.728C918.42 760.96 854.969 769.228 816.715 793.199L816.715 793.199C780.636 816.024 765.22 852.985 751.985 884.718C748.985 891.91 746.097 898.837 743.103 905.28L741.512 903.684C744.376 897.472 747.154 890.81 750.036 883.9C763.39 851.885 778.942 814.593 815.585 791.413L815.588 791.41C854.238 767.192 917.915 758.893 981.301 750.631C1035.31 743.591 1089.12 736.573 1126.76 719.8L1123.19 717.699C1086.31 731.226 1035.84 735.428 984.887 739.666C920.426 745.028 855.202 750.453 816.338 774.868L816.337 774.867C780.302 797.783 765.093 836.833 751.807 870.954C747.593 881.772 743.571 892.1 739.13 901.294L737.547 899.706C741.824 890.752 745.739 880.701 749.835 870.182C763.238 835.763 778.579 796.373 815.208 773.082L815.211 773.079C854.519 748.385 920 742.939 984.715 737.556C1034.78 733.391 1084.38 729.263 1120.82 716.314C1119.66 715.64 1118.51 714.971 1117.36 714.308C1081.61 724.332 1034.82 725.873 987.457 727.429C921.911 729.584 855.281 731.775 815.969 756.532L815.971 756.534C779.921 779.572 764.908 820.639 751.583 857.094C746.247 871.688 741.18 885.552 735.131 897.282L733.564 895.71C739.419 884.22 744.381 870.649 749.599 856.37C763.042 819.595 778.187 778.165 814.825 754.751L814.834 754.748C854.63 729.679 921.552 727.48 987.386 725.316C1033.75 723.792 1079.57 722.285 1114.79 712.828L1111.47 710.934C1076.78 717.77 1033.21 716.876 989.126 715.97C922.73 714.606 855.144 713.217 815.593 738.2L815.594 738.203C779.513 761.372 764.68 804.404 751.323 843.155C744.952 861.64 738.914 879.159 731.047 893.185L729.497 891.629C737.128 877.854 743.066 860.63 749.326 842.466C762.797 803.382 777.758 759.981 814.449 736.42L814.455 736.419C854.551 711.09 922.459 712.486 989.172 713.856C1032.12 714.739 1074.58 715.608 1108.62 709.325C1107.57 708.731 1106.51 708.142 1105.46 707.56C1071.72 711.491 1030.92 708.354 989.75 705.185C922.777 700.032 854.788 694.802 815.22 719.867L815.221 719.868C779.079 743.185 764.414 788.132 751.034 829.141C743.704 851.609 736.756 872.908 726.844 888.967L725.307 887.426C734.941 871.634 741.795 850.63 749.021 828.482C762.511 787.135 777.297 741.814 814.069 718.092L814.079 718.089C854.244 692.638 922.591 697.898 989.918 703.078C1029.79 706.146 1069.3 709.184 1102.25 705.786C1101.26 705.242 1100.27 704.702 1099.28 704.171C1066.33 705.438 1027.85 700.198 989.204 694.933C921.95 685.772 854.177 676.542 814.843 701.537L814.844 701.538C778.616 725.015 764.109 771.829 750.714 815.058C742.492 841.59 734.687 866.784 722.497 884.606L720.977 883.081C732.854 865.547 740.57 840.644 748.695 814.428C762.198 770.849 776.823 723.655 813.693 699.761L813.702 699.758C853.69 674.341 921.851 683.625 989.49 692.838C1026.63 697.898 1063.61 702.934 1095.56 702.171C1094.64 701.682 1093.72 701.197 1092.81 700.719C1060.46 699.501 1023.88 692.25 987.385 685.019C920.188 671.703 853.293 658.447 814.465 683.21L814.463 683.208C778.131 706.861 763.771 755.5 750.367 800.908C741.316 831.574 732.692 860.778 717.993 880.086L716.488 878.577C730.848 859.575 739.381 830.66 748.341 800.309C761.853 754.535 776.328 705.505 813.314 681.432L813.32 681.426C852.862 656.207 920.179 669.547 987.798 682.946C1022.5 689.823 1057.28 696.714 1088.32 698.395C1087.48 697.964 1086.64 697.538 1085.8 697.117C1053.9 693.524 1018.89 684.326 984.261 675.229C917.489 657.687 852.143 640.521 814.089 664.879L814.087 664.878C777.635 688.709 763.413 739.14 750.003 786.705C740.567 820.176 731.525 852.242 715.373 872.914C714.706 873.768 714.024 874.597 713.332 875.41L711.831 873.904C712.467 873.153 713.093 872.391 713.707 871.606C729.602 851.261 738.588 819.393 747.966 786.127C761.483 738.191 775.813 687.366 812.937 663.102L812.943 663.096C851.775 638.241 917.568 655.525 984.797 673.187C1017.19 681.697 1049.92 690.293 1080.04 694.28L1079.84 694.183C1079.13 693.844 1078.43 693.501 1077.73 693.156C1046.27 687.236 1012.71 676.172 979.846 665.334C913.897 643.587 850.734 622.76 813.711 646.548L813.71 646.546C777.112 670.572 763.023 722.76 749.612 772.447C739.88 808.5 730.499 843.25 713.095 865.285C711.627 867.143 710.1 868.908 708.516 870.578L707.017 869.074C708.546 867.463 710.02 865.762 711.435 863.971C728.58 842.264 737.903 807.726 747.575 771.893C761.091 721.823 775.287 669.233 812.557 644.773L812.566 644.764C850.436 620.434 914.07 641.417 980.512 663.327C1010.73 673.292 1041.54 683.449 1070.7 689.594L1069.06 688.735C1037.93 680.555 1005.58 667.636 974.224 655.115C909.518 629.277 849.092 605.15 813.338 628.214L813.337 628.213C776.587 652.433 762.621 706.352 749.21 758.141C739.206 796.766 729.507 834.22 710.837 857.628C708.545 860.503 706.115 863.16 703.542 865.587L702.042 864.083C704.566 861.716 706.941 859.118 709.183 856.308C727.572 833.252 737.216 796.013 747.162 757.611C760.674 705.432 774.745 651.11 812.181 626.443L812.186 626.437C848.865 602.778 909.781 627.1 975.011 653.148C1003.44 664.499 1032.69 676.178 1061.05 684.332L1060.28 683.896C1029.24 673.475 997.719 658.613 967.523 644.373C904.492 614.649 847.259 587.662 812.961 609.881L812.96 609.88C776.045 634.305 762.198 689.927 748.788 743.791C738.53 784.989 728.527 825.171 708.595 849.948C705.457 853.85 702.072 857.36 698.412 860.44L696.901 858.925C700.52 855.909 703.858 852.462 706.947 848.622C726.585 824.21 736.532 784.25 746.732 743.279C760.24 689.02 774.191 632.99 811.801 608.114L811.81 608.105C847.092 585.248 904.835 612.476 968.429 642.465C994.849 654.925 1022.29 667.863 1049.5 677.86C1018.95 665.25 988.636 648.675 959.921 632.975C898.974 599.65 845.272 570.288 812.595 591.544L812.596 591.545C775.496 616.176 761.758 673.481 748.351 729.402C737.857 773.17 727.565 816.104 706.366 842.252C702.363 847.188 697.977 851.521 693.139 855.15L691.618 853.624C696.425 850.067 700.77 845.796 704.724 840.92C725.614 815.152 735.852 772.445 746.29 728.905C759.793 672.586 773.628 614.871 811.422 589.781L811.43 589.777C845.167 567.82 899.395 597.469 960.937 631.12C984.426 643.962 1008.99 657.391 1033.85 668.738C1005.33 654.397 977.628 637.077 951.602 620.802C893.118 584.229 843.159 552.986 812.221 573.209L812.222 573.21C774.927 598.062 761.295 657.021 747.894 714.971C737.179 761.319 726.608 807.03 704.148 834.539C699.266 840.519 693.826 845.632 687.716 849.709L686.176 848.164L686.176 848.164ZM1617.08 -26.4421L1617.08 -26.439ZM1835.49 192.807L1835.5 192.812ZM1617.08 -26.4389L1617.09 -26.4292Z" fill="white"/>
</mask>
<g mask="url(#mask1_872_76)">
<path d="M554.661 716.212L1015.21 1178.29L2054.89 142.06L1594.34 -320.02L554.661 716.212Z" fill="url(#paint2_linear_872_76)"/>
</g>
</g>
<defs>
<linearGradient id="paint0_linear_872_76" x1="1920" y1="400" x2="0" y2="400" gradientUnits="userSpaceOnUse">
<stop stop-color="#97BAFF"/>
<stop offset="1" stop-color="#4361EE"/>
</linearGradient>
<linearGradient id="paint1_linear_872_76" x1="1920" y1="400" x2="0" y2="400" gradientUnits="userSpaceOnUse">
<stop stop-color="#93C4FE"/>
<stop offset="1" stop-color="#3C96FF"/>
</linearGradient>
<linearGradient id="paint2_linear_872_76" x1="1010.91" y1="1190.29" x2="1594.04" y2="-320.118" gradientUnits="userSpaceOnUse">
<stop stop-color="white" stop-opacity="0.29"/>
<stop offset="0.5" stop-color="white" stop-opacity="0.3"/>
<stop offset="1" stop-color="#F5F5F5" stop-opacity="0.3"/>
</linearGradient>
</defs>
</svg>
