<svg width="1920" height="524" viewBox="0 0 1920 524" fill="none" xmlns="http://www.w3.org/2000/svg">
<rect width="1920" height="523.636" rx="30" fill="url(#paint0_linear_872_136)"/>
<mask id="mask0_872_136" style="mask-type:alpha" maskUnits="userSpaceOnUse" x="0" y="0" width="1920" height="524">
<rect width="1920" height="523.636" rx="30" fill="url(#paint1_linear_872_136)"/>
</mask>
<g mask="url(#mask0_872_136)">
<mask id="mask1_872_136" style="mask-type:luminance" maskUnits="userSpaceOnUse" x="730" y="-19" width="1285" height="748">
<path d="M1707.02 103.27L1707.79 105.851L1708.01 106.196C1707.68 105.211 1707.35 104.235 1707.02 103.27ZM1701.64 93.023C1702.26 95.2016 1702.87 97.4221 1703.49 99.6839C1703.83 100.144 1704.18 100.612 1704.53 101.089C1703.83 98.8081 1703.14 96.5813 1702.45 94.4021C1702.18 93.9356 1701.91 93.4779 1701.64 93.023ZM1699.02 83.9382L1699.96 87.1516L1700.23 87.5706C1699.83 86.3426 1699.42 85.1316 1699.02 83.9382ZM1436.52 541.847L1436.49 541.931L1436.53 541.838L1436.52 541.847ZM1696.9 85.596C1697.65 88.4463 1698.4 91.3638 1699.15 94.3434C1699.66 94.9206 1700.17 95.5159 1700.69 96.1313C1699.88 93.2189 1699.07 90.3802 1698.27 87.6137C1697.81 86.923 1697.36 86.2521 1696.9 85.596ZM1693.83 74.1715C1694.46 76.4548 1695.09 78.7777 1695.73 81.153C1696.08 81.6109 1696.43 82.0766 1696.78 82.5543C1696.07 80.1749 1695.36 77.8481 1694.65 75.5793C1694.38 75.1025 1694.1 74.6347 1693.83 74.1715ZM1691.05 64.4183C1691.45 65.7706 1691.84 67.1418 1692.24 68.5276L1692.58 69.0367C1692.07 67.4689 1691.56 65.9297 1691.05 64.4183ZM1442.34 529.045L1441.58 530.01C1440.92 531.57 1440.27 533.122 1439.61 534.671L1440.16 533.898C1440.89 532.287 1441.61 530.669 1442.34 529.045ZM1446.85 523.2L1446.75 523.333L1446.17 524.675L1446.85 523.2ZM1715.76 124.674L1715.94 124.95L1715.18 122.767L1715.76 124.674ZM1711.38 118.341C1711.72 118.799 1712.06 119.265 1712.4 119.74C1711.72 117.552 1711.04 115.408 1710.36 113.31C1710.1 112.854 1709.84 112.407 1709.58 111.963C1710.18 114.052 1710.78 116.177 1711.38 118.341ZM1706.97 112.798C1707.48 113.391 1708 113.996 1708.51 114.625C1707.71 111.809 1706.91 109.061 1706.11 106.376C1705.66 105.679 1705.2 104.998 1704.75 104.333C1705.49 107.098 1706.23 109.916 1706.97 112.798ZM1702.57 108.116C1703.19 108.711 1703.8 109.335 1704.42 109.98C1703.55 106.66 1702.68 103.425 1701.82 100.267C1701.24 99.4948 1700.65 98.7499 1700.07 98.0314L1700.91 101.435C1701.46 103.686 1702.02 105.909 1702.57 108.116ZM1447.95 516.175C1447.52 516.686 1447.09 517.19 1446.66 517.696C1445.81 519.782 1444.96 521.862 1444.11 523.929L1445.26 522.413C1446.16 520.344 1447.06 518.263 1447.95 516.175ZM1452.72 510.366C1452.44 510.723 1452.15 511.088 1451.86 511.443C1451.17 513.07 1450.49 514.693 1449.79 516.308L1450.45 515.406C1451.21 513.733 1451.97 512.051 1452.72 510.366ZM1457.32 504.514L1457.11 504.779L1455.97 507.372L1457.32 504.514ZM1723.89 143.615L1724.03 143.834L1723.42 142.131L1723.89 143.615ZM1719.42 137.107C1719.76 137.566 1720.09 138.035 1720.43 138.509C1719.76 136.4 1719.09 134.331 1718.42 132.303L1717.64 130.977C1718.24 132.987 1718.83 135.029 1719.42 137.107ZM1715.06 131.53C1715.53 132.092 1716 132.671 1716.48 133.261C1715.68 130.522 1714.88 127.847 1714.09 125.231C1713.63 124.526 1713.17 123.835 1712.72 123.159C1713.07 124.447 1713.42 125.747 1713.77 127.06C1714.2 128.561 1714.63 130.048 1715.06 131.53ZM1710.72 126.746C1711.26 127.292 1711.8 127.852 1712.34 128.435L1712.08 127.542L1712.08 127.529C1711.29 124.603 1710.51 121.742 1709.73 118.945C1709.15 118.169 1708.57 117.417 1707.99 116.688C1708.9 120.094 1709.81 123.445 1710.72 126.746ZM1706.32 122.664C1706.96 123.197 1707.59 123.76 1708.23 124.343C1707.37 121.175 1706.5 117.961 1705.64 114.698L1705.64 114.692L1705.33 113.478C1704.68 112.739 1704.03 112.031 1703.39 111.351C1704.36 115.19 1705.34 118.959 1706.32 122.664ZM1453.49 503.042C1452.91 503.68 1452.33 504.317 1451.75 504.947C1450.77 507.453 1449.78 509.948 1448.78 512.431C1449.31 511.789 1449.84 511.151 1450.37 510.501C1451.41 508.028 1452.45 505.539 1453.49 503.042ZM1458.42 497.435C1457.95 497.979 1457.48 498.515 1457.01 499.052C1456.14 501.195 1455.26 503.333 1454.37 505.46L1455.62 503.84C1456.56 501.714 1457.49 499.58 1458.42 497.435ZM1463.26 491.643L1462.29 492.83C1461.57 494.527 1460.84 496.221 1460.11 497.906L1460.88 496.85C1461.68 495.122 1462.47 493.386 1463.26 491.643ZM1467.93 485.814L1467.62 486.208L1466.11 489.572L1466.17 489.491C1466.76 488.269 1467.34 487.044 1467.93 485.814ZM1735.03 170.61L1734.71 170.061C1735.4 171.96 1736.09 173.839 1736.77 175.703C1736.19 173.979 1735.61 172.281 1735.03 170.61ZM1732.16 162.617L1732.27 162.791L1731.79 161.449L1732.16 162.617ZM1727.84 156.304C1728.11 156.666 1728.37 157.029 1728.63 157.4C1727.97 155.374 1727.31 153.386 1726.65 151.435C1726.39 150.985 1726.13 150.534 1725.87 150.093L1726.65 152.699L1727.84 156.304ZM1723.62 150.786C1723.94 151.186 1724.27 151.587 1724.6 152C1723.8 149.342 1723.01 146.742 1722.22 144.199C1721.8 143.543 1721.37 142.901 1720.95 142.269C1721.84 145.148 1722.73 147.986 1723.62 150.786ZM1719.3 145.83C1719.76 146.322 1720.22 146.821 1720.68 147.338C1719.96 145.045 1719.24 142.731 1718.52 140.387L1718.52 140.366L1717.78 137.761C1717.28 137.092 1716.79 136.434 1716.3 135.798C1717.3 139.198 1718.3 142.541 1719.3 145.83ZM1714.91 141.509C1715.49 142.03 1716.07 142.569 1716.64 143.127C1715.57 139.568 1714.5 135.948 1713.44 132.261C1712.86 131.58 1712.28 130.916 1711.7 130.279C1712.77 134.094 1713.84 137.835 1714.91 141.509ZM1710.47 137.845C1711.14 138.339 1711.8 138.859 1712.47 139.403C1711.35 135.53 1710.23 131.583 1709.12 127.558C1708.45 126.893 1707.78 126.259 1707.12 125.652C1708.23 129.801 1709.35 133.864 1710.47 137.845ZM1458.95 489.612C1458.26 490.326 1457.57 491.039 1456.87 491.742C1455.78 494.616 1454.67 497.477 1453.56 500.326C1454.22 499.591 1454.87 498.851 1455.52 498.104C1456.67 495.287 1457.82 492.456 1458.95 489.612ZM1464.02 484.251C1463.41 484.915 1462.8 485.573 1462.19 486.227C1461.17 488.796 1460.14 491.353 1459.11 493.9C1459.67 493.232 1460.24 492.566 1460.8 491.889C1461.88 489.357 1462.95 486.809 1464.02 484.251ZM1469.02 478.685C1468.52 479.256 1468.02 479.818 1467.52 480.381C1466.6 482.59 1465.69 484.792 1464.77 486.984L1466.11 485.28C1467.09 483.091 1468.06 480.894 1469.02 478.685ZM1473.95 472.912L1472.88 474.183C1472.12 475.954 1471.35 477.72 1470.58 479.48L1471.46 478.317C1472.29 476.523 1473.12 474.721 1473.95 472.912ZM1478.74 467.053L1478.3 467.61C1477.75 468.817 1477.21 470.023 1476.66 471.224L1476.84 470.97C1477.48 469.669 1478.11 468.362 1478.74 467.053ZM1732.8 170.769L1733.33 171.437C1732.69 169.667 1732.05 167.882 1731.41 166.08L1731.4 166.046L1730.53 163.303L1729.86 162.269C1730.84 165.144 1731.82 167.976 1732.8 170.769ZM1728.45 165.563C1728.82 165.978 1729.19 166.396 1729.56 166.825C1728.45 163.607 1727.33 160.336 1726.22 157.011C1725.86 156.521 1725.51 156.041 1725.15 155.566C1726.25 158.958 1727.35 162.289 1728.45 165.563ZM1724.03 160.92C1724.54 161.414 1725.05 161.927 1725.55 162.45C1724.37 158.887 1723.19 155.259 1722.02 151.562C1721.51 150.95 1721.01 150.353 1720.51 149.771C1721.68 153.562 1722.85 157.277 1724.03 160.92ZM1719.56 156.904C1720.17 157.407 1720.78 157.929 1721.4 158.473C1720.17 154.622 1718.94 150.695 1717.72 146.683C1717.11 146.038 1716.5 145.417 1715.89 144.817C1717.11 148.935 1718.33 152.963 1719.56 156.904ZM1715.05 153.526C1715.74 153.993 1716.43 154.48 1717.13 154.994C1715.86 150.903 1714.61 146.722 1713.35 142.445C1712.66 141.83 1711.97 141.237 1711.28 140.678C1712.53 145.065 1713.79 149.346 1715.05 153.526ZM1137.52 568.864L1138.62 568.506L1138.33 568.426L1137.13 568.702L1137.52 568.864ZM1464.38 475.839C1463.6 476.585 1462.81 477.321 1462.02 478.05C1460.84 481.253 1459.64 484.445 1458.44 487.62C1459.19 486.836 1459.95 486.041 1460.69 485.244C1461.93 482.125 1463.16 478.989 1464.38 475.839ZM1469.56 470.763C1468.83 471.494 1468.11 472.224 1467.38 472.943C1466.25 475.874 1465.11 478.792 1463.97 481.697C1464.66 480.94 1465.35 480.177 1466.03 479.41C1467.21 476.541 1468.39 473.658 1469.56 470.763ZM1474.71 465.441C1474.06 466.128 1473.41 466.815 1472.76 467.492C1471.71 470.12 1470.65 472.738 1469.58 475.343C1470.19 474.645 1470.79 473.943 1471.38 473.235C1472.5 470.649 1473.61 468.05 1474.71 465.441ZM1479.81 459.891C1479.27 460.496 1478.73 461.1 1478.18 461.697C1477.23 463.971 1476.28 466.236 1475.32 468.492C1475.8 467.899 1476.29 467.308 1476.77 466.708C1477.79 464.447 1478.8 462.172 1479.81 459.891ZM1484.85 454.154L1483.65 455.547C1482.84 457.391 1482.04 459.228 1481.22 461.058C1481.55 460.638 1481.88 460.222 1482.21 459.798C1483.09 457.924 1483.97 456.042 1484.85 454.154ZM1489.76 448.322L1489.13 449.079C1488.53 450.383 1487.93 451.684 1487.33 452.981L1487.7 452.483C1488.39 451.101 1489.07 449.714 1489.76 448.322ZM1742.87 191.812L1742.94 191.902L1741.65 188.662L1742.87 191.812ZM1738.38 186.182C1738.64 186.49 1738.9 186.795 1739.16 187.11C1737.92 183.869 1736.68 180.572 1735.44 177.213L1734.74 176.234C1735.95 179.614 1737.17 182.928 1738.38 186.182ZM1733.85 181.127C1734.28 181.578 1734.71 182.036 1735.14 182.504C1733.83 178.932 1732.52 175.285 1731.21 171.566C1730.79 171.037 1730.38 170.518 1729.96 170.008C1731.25 173.794 1732.55 177.499 1733.85 181.127ZM1729.28 176.665C1729.84 177.167 1730.39 177.69 1730.95 178.223C1729.59 174.374 1728.24 170.442 1726.88 166.419C1726.33 165.81 1725.79 165.22 1725.24 164.643C1726.59 168.746 1727.93 172.752 1729.28 176.665ZM1724.71 172.834C1725.35 173.331 1726 173.844 1726.64 174.379C1725.25 170.306 1723.87 166.138 1722.49 161.866C1721.84 161.244 1721.2 160.641 1720.55 160.065C1721.93 164.433 1723.32 168.687 1724.71 172.834ZM1720.11 169.62C1720.82 170.072 1721.54 170.538 1722.25 171.036C1720.84 166.778 1719.44 162.408 1718.03 157.923C1717.32 157.344 1716.6 156.797 1715.88 156.273C1717.28 160.846 1718.69 165.294 1720.11 169.62ZM1145.07 568.496L1146.15 568.079L1146.03 568.058L1144.82 568.421L1145.07 568.496ZM1140.72 570.214L1142.39 569.548L1141.75 569.366L1140.01 569.913L1140.72 570.214ZM1469.8 461.656C1468.94 462.412 1468.07 463.159 1467.2 463.897C1465.94 467.399 1464.67 470.888 1463.39 474.362C1464.23 473.563 1465.06 472.752 1465.89 471.936C1467.2 468.525 1468.51 465.098 1469.8 461.656ZM1475.08 456.912C1474.25 457.673 1473.43 458.424 1472.61 459.168C1471.38 462.43 1470.16 465.682 1468.92 468.919C1469.71 468.12 1470.49 467.31 1471.28 466.496C1472.55 463.316 1473.82 460.121 1475.08 456.912ZM1480.34 451.903C1479.58 452.648 1478.81 453.385 1478.05 454.118C1476.88 457.116 1475.7 460.105 1474.52 463.081C1475.25 462.304 1475.97 461.516 1476.69 460.727C1477.91 457.799 1479.13 454.857 1480.34 451.903ZM1485.58 446.639C1484.9 447.344 1484.21 448.039 1483.52 448.734C1482.43 451.436 1481.32 454.131 1480.21 456.812C1480.86 456.085 1481.5 455.347 1482.14 454.612C1483.29 451.966 1484.44 449.308 1485.58 446.639ZM1490.81 441.135C1490.22 441.765 1489.63 442.39 1489.05 443.013C1488.05 445.364 1487.05 447.708 1486.04 450.043C1486.57 449.41 1487.1 448.771 1487.63 448.131C1488.69 445.808 1489.75 443.476 1490.81 441.135ZM1495.97 435.438C1495.51 435.955 1495.05 436.465 1494.59 436.978C1493.73 438.912 1492.87 440.841 1492 442.761L1493.18 441.282C1494.11 439.342 1495.04 437.393 1495.97 435.438ZM1500.97 429.678L1500.17 430.609C1499.52 432.015 1498.86 433.417 1498.2 434.816L1498.73 434.115C1499.48 432.641 1500.23 431.162 1500.97 429.678ZM1749.46 208.172L1749.86 208.681C1748.48 205.433 1747.1 202.121 1745.71 198.743L1745.47 198.388C1746.8 201.717 1748.13 204.977 1749.46 208.172ZM1744.66 202.464C1745 202.849 1745.34 203.243 1745.69 203.638C1744.22 200.046 1742.76 196.375 1741.29 192.62C1740.97 192.203 1740.66 191.794 1740.34 191.386C1741.78 195.165 1743.22 198.857 1744.66 202.464ZM1739.9 197.434C1740.39 197.92 1740.88 198.417 1741.37 198.924C1739.85 195.062 1738.34 191.107 1736.83 187.054C1736.35 186.49 1735.87 185.94 1735.39 185.398C1736.89 189.515 1738.39 193.525 1739.9 197.434ZM1735.16 193.038C1735.76 193.553 1736.35 194.08 1736.95 194.624C1735.4 190.549 1733.86 186.367 1732.32 182.073C1731.73 181.461 1731.14 180.864 1730.54 180.284C1732.08 184.657 1733.62 188.906 1735.16 193.038ZM1730.44 189.268C1731.11 189.763 1731.79 190.275 1732.47 190.809C1730.9 186.56 1729.34 182.189 1727.78 177.695C1727.1 177.087 1726.43 176.496 1725.75 175.934C1727.31 180.514 1728.87 184.958 1730.44 189.268ZM1725.73 186.108C1726.47 186.556 1727.21 187.024 1727.95 187.517C1726.37 183.124 1724.79 178.596 1723.22 173.932C1722.48 173.373 1721.74 172.843 1721 172.338C1722.57 177.078 1724.15 181.667 1725.73 186.108ZM1152.92 567.468L1153.54 567.19L1152.83 567.449L1152.92 567.468ZM1148.42 569.511L1150.1 568.745L1149.59 568.655L1147.82 569.326L1148.42 569.511ZM1143.91 571.61L1146.02 570.619L1145.15 570.356L1142.99 571.205L1143.91 571.61ZM1116.74 566.223C1117.55 566.494 1118.37 566.757 1119.18 567.014L1118.56 566.603C1117.73 566.29 1116.89 565.971 1116.05 565.644L1116.74 566.223ZM1110.23 563.938C1110.84 564.164 1111.45 564.386 1112.06 564.605L1110.61 563.416L1109.09 562.763L1110.23 563.938ZM1475.22 447.068C1474.28 447.815 1473.34 448.553 1472.39 449.281C1471.07 453.051 1469.74 456.807 1468.4 460.549C1469.31 459.756 1470.22 458.955 1471.12 458.143C1472.5 454.466 1473.86 450.774 1475.22 447.068ZM1480.59 442.653C1479.68 443.419 1478.77 444.178 1477.86 444.926C1476.57 448.483 1475.27 452.025 1473.95 455.556C1474.83 454.745 1475.7 453.928 1476.57 453.1C1477.92 449.633 1479.26 446.15 1480.59 442.653ZM1485.96 437.976C1485.09 438.748 1484.23 439.511 1483.37 440.266C1482.11 443.587 1480.84 446.895 1479.57 450.192C1480.39 449.382 1481.22 448.565 1482.04 447.739C1483.35 444.499 1484.66 441.244 1485.96 437.976ZM1491.32 433.036C1490.52 433.795 1489.71 434.55 1488.91 435.295C1487.7 438.355 1486.48 441.402 1485.26 444.437C1486.02 443.645 1486.78 442.848 1487.54 442.044C1488.81 439.055 1490.07 436.052 1491.32 433.036ZM1496.69 427.848C1495.95 428.574 1495.22 429.296 1494.48 430.01C1493.35 432.772 1492.2 435.523 1491.05 438.266C1491.73 437.517 1492.42 436.763 1493.1 436.005C1494.3 433.297 1495.5 430.577 1496.69 427.848ZM1502.04 422.417C1501.39 423.087 1500.74 423.751 1500.1 424.412C1499.05 426.841 1497.99 429.26 1496.93 431.671C1497.53 430.992 1498.11 430.306 1498.7 429.619C1499.82 427.228 1500.93 424.828 1502.04 422.417ZM1507.31 416.831L1505.75 418.506C1504.83 420.523 1503.91 422.538 1502.99 424.544C1503.43 424.007 1503.88 423.468 1504.33 422.926C1505.32 420.901 1506.32 418.87 1507.31 416.831ZM1512.45 411.157L1511.45 412.285C1510.72 413.797 1510 415.304 1509.27 416.809L1510 415.882C1510.82 414.312 1511.64 412.737 1512.45 411.157ZM1517.37 405.533L1517.2 405.732L1516.48 407.147L1517.37 405.533ZM1757.03 225.666L1757.72 226.512C1756.08 222.923 1754.44 219.244 1752.79 215.476L1752.21 214.677C1753.82 218.436 1755.43 222.098 1757.03 225.666ZM1751.81 219.679C1752.22 220.125 1752.64 220.584 1753.05 221.045C1751.34 217.162 1749.64 213.174 1747.93 209.077C1747.53 208.578 1747.13 208.082 1746.73 207.598C1748.42 211.743 1750.12 215.768 1751.81 219.679ZM1746.76 214.517C1747.3 215.033 1747.83 215.561 1748.37 216.099C1746.63 212 1744.89 207.78 1743.15 203.434C1742.62 202.836 1742.08 202.249 1741.55 201.676C1743.28 206.093 1745.02 210.373 1746.76 214.517ZM1741.8 210.057C1742.43 210.585 1743.06 211.132 1743.69 211.691C1741.93 207.417 1740.17 203.007 1738.41 198.456C1737.78 197.83 1737.14 197.218 1736.51 196.629C1738.27 201.259 1740.04 205.733 1741.8 210.057ZM1736.92 206.246C1737.62 206.747 1738.32 207.273 1739.01 207.812C1737.23 203.401 1735.46 198.839 1733.7 194.123C1732.99 193.523 1732.29 192.946 1731.59 192.389C1733.36 197.177 1735.14 201.794 1736.92 206.246ZM1732.1 203.045C1732.85 203.496 1733.6 203.976 1734.34 204.469C1732.56 199.955 1730.78 195.277 1729 190.428C1728.24 189.879 1727.48 189.36 1726.73 188.861C1728.51 193.774 1730.3 198.5 1732.1 203.045ZM1156.41 568.145L1158.06 567.3L1157.7 567.272L1155.94 568.049L1156.41 568.145ZM1151.76 570.571L1153.9 569.449L1153.13 569.301L1150.92 570.301L1151.76 570.571ZM1147.09 573.049L1149.58 571.721L1148.54 571.392L1146.02 572.56L1147.09 573.049ZM1143.72 573.645L1144.2 573.672L1143.92 573.548L1143.72 573.645ZM1129.21 571.842C1130.42 572.067 1131.62 572.276 1132.81 572.464C1131.49 572.184 1130.15 571.88 1128.81 571.553L1129.21 571.842ZM1121.25 570.124C1122.5 570.427 1123.73 570.712 1124.96 570.98L1123.96 570.282C1122.7 569.928 1121.43 569.554 1120.16 569.164L1121.25 570.124ZM1114.42 568.314C1115.44 568.603 1116.45 568.883 1117.45 569.152L1115.86 567.791C1114.91 567.472 1113.95 567.143 1112.99 566.806L1114.42 568.314ZM1480.64 432.049C1479.63 432.775 1478.63 433.49 1477.62 434.194C1476.24 438.212 1474.86 442.22 1473.47 446.212C1474.44 445.439 1475.42 444.654 1476.39 443.86C1477.81 439.937 1479.23 435.999 1480.64 432.049ZM1486.1 427.976C1485.12 428.73 1484.14 429.472 1483.15 430.204C1481.8 434.029 1480.43 437.843 1479.06 441.641C1480 440.842 1480.95 440.031 1481.89 439.211C1483.31 435.481 1484.71 431.734 1486.1 427.976ZM1491.57 423.644C1490.62 424.415 1489.67 425.179 1488.72 425.932C1487.39 429.545 1486.05 433.147 1484.7 436.737C1485.61 435.92 1486.52 435.094 1487.43 434.26C1488.82 430.734 1490.2 427.195 1491.57 423.644ZM1497.06 419.046C1496.15 419.825 1495.24 420.595 1494.33 421.358C1493.03 424.744 1491.72 428.118 1490.41 431.481C1491.27 430.661 1492.13 429.834 1493 428.998C1494.36 425.694 1495.71 422.377 1497.06 419.046ZM1502.55 414.204C1501.7 414.975 1500.84 415.739 1499.98 416.497C1498.73 419.625 1497.46 422.744 1496.19 425.851C1497 425.043 1497.81 424.23 1498.61 423.409C1499.93 420.352 1501.25 417.283 1502.55 414.204ZM1508.05 409.116C1507.26 409.867 1506.46 410.613 1505.66 411.353C1504.47 414.192 1503.27 417.021 1502.06 419.841C1502.8 419.061 1503.55 418.276 1504.29 417.487C1505.55 414.707 1506.8 411.917 1508.05 409.116ZM1513.51 403.838C1512.8 404.534 1512.1 405.226 1511.39 405.914C1510.28 408.423 1509.17 410.924 1508.05 413.418C1508.69 412.71 1509.34 411.997 1509.98 411.282C1511.16 408.811 1512.34 406.328 1513.51 403.838ZM1518.92 398.4L1517.16 400.186C1516.18 402.299 1515.19 404.407 1514.19 406.51L1515.73 404.74C1516.8 402.633 1517.86 400.52 1518.92 398.4ZM1524.24 392.847L1522.98 394.175C1522.18 395.8 1521.37 397.424 1520.57 399.042L1521.54 397.875C1522.44 396.203 1523.34 394.527 1524.24 392.847ZM1529.31 387.377L1528.86 387.865L1527.3 390.819L1527.4 390.695L1529.31 387.377ZM1779.77 266.162L1779.7 266.062C1780.14 266.831 1780.57 267.594 1781.01 268.351L1779.77 266.162ZM1772.48 252.772L1772.55 252.865C1771.28 250.458 1770.02 248.005 1768.75 245.502C1770 247.976 1771.24 250.4 1772.48 252.772ZM1766.01 244.637C1766.31 244.996 1766.62 245.367 1766.92 245.732C1764.96 241.818 1762.99 237.78 1761.02 233.614L1760.13 232.433C1762.1 236.641 1764.05 240.709 1766.01 244.637ZM1760.21 238.099C1760.67 238.589 1761.13 239.094 1761.59 239.598C1759.58 235.424 1757.56 231.106 1755.54 226.639C1755.07 226.071 1754.6 225.51 1754.13 224.96C1756.16 229.504 1758.18 233.882 1760.21 238.099ZM1754.77 232.622C1755.33 233.157 1755.9 233.704 1756.46 234.261C1754.43 229.914 1752.39 225.406 1750.36 220.731C1749.78 220.104 1749.2 219.489 1748.62 218.889C1750.66 223.65 1752.71 228.226 1754.77 232.622ZM1749.54 227.959C1750.18 228.495 1750.82 229.049 1751.46 229.611C1749.42 225.131 1747.38 220.473 1745.34 215.63C1744.67 214.995 1744.01 214.379 1743.34 213.779C1745.4 218.708 1747.47 223.433 1749.54 227.959ZM1744.47 223.992C1745.17 224.497 1745.86 225.017 1746.55 225.552C1744.49 220.974 1742.44 216.202 1740.4 211.23C1739.68 210.629 1738.96 210.047 1738.24 209.487C1740.31 214.543 1742.39 219.376 1744.47 223.992ZM1739.53 220.64C1740.26 221.093 1740.98 221.56 1741.71 222.049C1739.65 217.407 1737.59 212.555 1735.55 207.488C1734.78 206.941 1734.02 206.414 1733.25 205.913C1735.33 211.062 1737.43 215.968 1739.53 220.64ZM1164.68 566.11L1166.28 565.2L1166.1 565.204L1164.36 566.078L1164.68 566.11ZM1159.89 568.867L1162.03 567.632L1161.39 567.574L1159.16 568.711L1159.89 568.867ZM1155.09 571.672L1157.62 570.191L1156.66 569.995L1154.09 571.337L1155.09 571.672ZM1150.27 574.524L1153.07 572.856L1151.92 572.475L1149.09 573.973L1150.27 574.524ZM1146.62 575.296L1147.67 575.256L1147.15 575.014L1146.62 575.296ZM1142.01 575.337L1142.63 575.347L1141.95 575.3L1142.01 575.337ZM1133.3 574.831C1135.01 574.997 1136.7 575.124 1138.37 575.212L1137.89 574.929C1136.09 574.728 1134.26 574.479 1132.43 574.187L1133.3 574.831ZM1125.41 573.822C1126.88 574.053 1128.34 574.26 1129.79 574.441L1128.49 573.499C1127.01 573.219 1125.52 572.91 1124.02 572.577L1125.41 573.822ZM1118.38 572.554C1119.65 572.812 1120.91 573.053 1122.16 573.277L1120.42 571.732C1119.2 571.431 1117.97 571.114 1116.73 570.782L1118.38 572.554ZM1486.07 416.603C1485 417.297 1483.93 417.982 1482.86 418.656C1481.44 422.903 1480.02 427.14 1478.58 431.364C1479.62 430.622 1480.65 429.866 1481.68 429.102C1483.15 424.949 1484.62 420.781 1486.07 416.603ZM1491.62 412.866C1490.58 413.593 1489.53 414.306 1488.47 415.012C1487.07 419.086 1485.64 423.149 1484.22 427.199C1485.23 426.425 1486.25 425.639 1487.26 424.842C1488.72 420.864 1490.18 416.871 1491.62 412.866ZM1497.2 408.877C1496.18 409.63 1495.15 410.375 1494.12 411.11C1492.72 414.996 1491.31 418.871 1489.9 422.734C1490.89 421.932 1491.88 421.12 1492.86 420.298C1494.32 416.503 1495.76 412.696 1497.2 408.877ZM1502.8 404.649C1501.8 405.42 1500.81 406.184 1499.81 406.938C1498.43 410.616 1497.04 414.283 1495.64 417.939C1496.6 417.118 1497.55 416.291 1498.5 415.454C1499.94 411.865 1501.37 408.262 1502.8 404.649ZM1508.41 400.184C1507.45 400.963 1506.5 401.734 1505.53 402.498C1504.18 405.949 1502.82 409.39 1501.45 412.821C1502.37 411.997 1503.28 411.164 1504.19 410.324C1505.6 406.956 1507.01 403.575 1508.41 400.184ZM1514.04 395.48C1513.13 396.262 1512.21 397.036 1511.29 397.805C1509.98 401.002 1508.66 404.191 1507.33 407.37C1508.2 406.544 1509.07 405.715 1509.93 404.877C1511.31 401.755 1512.68 398.623 1514.04 395.48ZM1519.66 390.586C1518.81 391.346 1517.95 392.103 1517.09 392.852C1515.84 395.765 1514.57 398.671 1513.3 401.568C1514.1 400.773 1514.9 399.972 1515.7 399.166C1517.03 396.315 1518.35 393.455 1519.66 390.586ZM1525.26 385.509C1524.49 386.223 1523.72 386.932 1522.94 387.636C1521.76 390.224 1520.58 392.806 1519.39 395.382C1520.1 394.645 1520.81 393.904 1521.52 393.16C1522.77 390.617 1524.02 388.067 1525.26 385.509ZM1530.84 380.267L1528.84 382.168C1527.78 384.374 1526.71 386.575 1525.64 388.771C1526.23 388.132 1526.82 387.492 1527.41 386.848C1528.56 384.661 1529.7 382.466 1530.84 380.267ZM1536.3 374.968L1534.79 376.453C1533.89 378.193 1533 379.93 1532.1 381.664L1533.34 380.275C1534.33 378.51 1535.32 376.74 1536.3 374.968ZM1541.56 369.719L1540.78 370.503L1538.9 373.914L1539.33 373.416L1541.56 369.719ZM1776.32 267.604C1775.87 267.062 1775.42 266.537 1774.97 266.008C1778.49 272.006 1782.02 277.537 1785.54 282.618C1782.47 277.934 1779.4 272.932 1776.32 267.604ZM1786.01 280.098L1785.57 279.486C1786.16 280.417 1786.76 281.335 1787.36 282.242C1786.91 281.534 1786.46 280.819 1786.01 280.098ZM1777.65 266.438L1778.51 267.476C1776.04 263.13 1773.56 258.59 1771.08 253.849C1770.7 253.355 1770.33 252.865 1769.96 252.381C1772.53 257.301 1775.09 261.985 1777.65 266.438ZM1770.73 258.566C1771.18 259.042 1771.62 259.532 1772.06 260.02C1769.57 255.467 1767.08 250.699 1764.59 245.708C1764.07 245.095 1763.56 244.489 1763.04 243.895C1765.61 249.04 1768.17 253.928 1770.73 258.566ZM1764.67 252.391C1765.2 252.903 1765.73 253.427 1766.27 253.957C1763.78 249.286 1761.3 244.381 1758.82 239.237C1758.22 238.595 1757.61 237.964 1757.01 237.347C1759.56 242.635 1762.11 247.648 1764.67 252.391ZM1759.06 247.291C1759.65 247.8 1760.24 248.318 1760.84 248.848C1758.36 244.089 1755.88 239.078 1753.41 233.81C1752.74 233.176 1752.07 232.559 1751.4 231.958C1753.94 237.365 1756.5 242.472 1759.06 247.291ZM1753.75 242.983C1754.37 243.459 1755 243.949 1755.63 244.448C1753.14 239.636 1750.67 234.551 1748.2 229.189C1747.49 228.597 1746.78 228.027 1746.07 227.47C1748.62 232.959 1751.18 238.127 1753.75 242.983ZM1748.7 239.377C1749.34 239.804 1749.98 240.245 1750.62 240.695C1748.12 235.849 1745.63 230.713 1743.16 225.275C1742.42 224.74 1741.68 224.227 1740.94 223.729C1743.51 229.29 1746.1 234.502 1748.7 239.377ZM1173.26 563.393L1174.65 562.526L1173.09 563.392L1173.26 563.393ZM1168.32 566.493L1170.44 565.158L1169.94 565.159L1167.7 566.425L1168.32 566.493ZM1163.37 569.633L1165.92 568.01L1165.07 567.923L1162.45 569.426L1163.37 569.633ZM1158.41 572.817L1161.27 570.972L1160.19 570.735L1157.29 572.425L1158.41 572.817ZM1153.44 576.04L1156.53 574.029L1155.29 573.602L1152.18 575.436L1153.44 576.04ZM1145.51 577.468C1147.39 577.321 1149.24 577.116 1151.05 576.85L1150.36 576.52L1149.9 576.796L1149.72 576.904L1149.51 576.918C1148 577.022 1146.47 577.083 1144.92 577.106L1145.51 577.468ZM1137.18 577.748C1138.96 577.76 1140.72 577.731 1142.45 577.655L1141.52 577.095C1139.7 577.056 1137.84 576.967 1135.96 576.829L1137.18 577.748ZM1129.37 577.43C1130.99 577.545 1132.59 577.633 1134.17 577.687L1132.63 576.539C1131.03 576.376 1129.4 576.181 1127.76 575.953L1129.37 577.43ZM1122.2 576.735C1123.65 576.91 1125.09 577.065 1126.51 577.197L1124.62 575.48C1123.22 575.256 1121.81 575.012 1120.39 574.744L1122.2 576.735ZM1491.51 400.732C1490.38 401.389 1489.25 402.036 1488.12 402.673C1486.67 407.129 1485.21 411.577 1483.74 416.014C1484.83 415.311 1485.92 414.597 1487.01 413.871C1488.52 409.503 1490.02 405.122 1491.51 400.732ZM1497.17 397.313C1496.06 398.004 1494.94 398.686 1493.82 399.358C1492.37 403.66 1490.91 407.953 1489.43 412.235C1490.51 411.498 1491.59 410.75 1492.66 409.99C1494.17 405.775 1495.68 401.548 1497.17 397.313ZM1502.85 393.672C1501.76 394.394 1500.66 395.105 1499.56 395.809C1498.1 399.943 1496.64 404.07 1495.17 408.185C1496.23 407.41 1497.29 406.626 1498.34 405.833C1499.86 401.791 1501.36 397.736 1502.85 393.672ZM1508.56 389.814C1507.49 390.559 1506.41 391.293 1505.33 392.02C1503.89 395.969 1502.43 399.91 1500.96 403.84C1502 403.043 1503.03 402.233 1504.06 401.416C1505.57 397.56 1507.07 393.691 1508.56 389.814ZM1514.29 385.741C1513.24 386.502 1512.19 387.255 1511.14 388.002C1509.71 391.744 1508.27 395.478 1506.82 399.204C1507.83 398.388 1508.83 397.565 1509.83 396.734C1511.33 393.08 1512.81 389.415 1514.29 385.741ZM1520.05 381.457C1519.03 382.231 1518.01 382.998 1516.99 383.759C1515.58 387.275 1514.16 390.785 1512.73 394.286C1513.7 393.457 1514.68 392.621 1515.64 391.777C1517.12 388.346 1518.59 384.906 1520.05 381.457ZM1525.81 376.993C1524.83 377.765 1523.85 378.531 1522.87 379.292C1521.5 382.557 1520.11 385.815 1518.72 389.066C1519.65 388.24 1520.57 387.408 1521.49 386.571C1522.94 383.387 1524.38 380.192 1525.81 376.993ZM1531.57 372.355C1530.65 373.11 1529.73 373.862 1528.8 374.608C1527.47 377.59 1526.14 380.567 1524.8 383.537C1525.67 382.734 1526.53 381.926 1527.39 381.113C1528.79 378.202 1530.19 375.282 1531.57 372.355ZM1537.34 367.56C1536.49 368.281 1535.63 369 1534.77 369.713C1533.52 372.373 1532.26 375.031 1530.99 377.681C1531.78 376.924 1532.57 376.161 1533.35 375.395C1534.69 372.79 1536.02 370.177 1537.34 367.56ZM1543.06 362.66C1542.31 363.314 1541.55 363.966 1540.79 364.615C1539.64 366.903 1538.49 369.188 1537.33 371.469L1539.35 369.446C1540.59 367.189 1541.83 364.925 1543.06 362.66ZM1548.69 357.705L1546.86 359.325C1545.87 361.168 1544.87 363.009 1543.88 364.847L1545.42 363.256C1546.51 361.408 1547.6 359.558 1548.69 357.705ZM1554.13 352.817L1552.97 353.869L1550.73 357.708L1551.54 356.854C1552.4 355.511 1553.27 354.164 1554.13 352.817ZM1559.14 348.232L1559.14 348.237L1559.12 348.26L1559.14 348.232ZM1810.52 314.045C1819.08 323.678 1827.36 332.675 1835.37 341.04C1829.7 334.859 1823.9 328.308 1817.96 321.368C1816.78 320.21 1815.6 319.011 1814.42 317.769C1813.12 316.58 1811.82 315.34 1810.52 314.045ZM1779.39 276.726L1779.82 277.166C1776.36 271.813 1772.89 266.023 1769.43 259.783C1768.88 259.194 1768.33 258.609 1767.78 258.039C1771.65 264.867 1775.51 271.087 1779.39 276.726ZM1772.74 270.227L1773.53 270.963C1770.14 265.642 1766.76 259.875 1763.39 253.65C1762.79 253.071 1762.18 252.503 1761.58 251.947C1765.29 258.632 1769.01 264.717 1772.74 270.227ZM1767.01 265.162C1767.29 265.396 1767.57 265.643 1767.85 265.881C1764.49 260.588 1761.14 254.83 1757.8 248.586C1757.18 248.054 1756.55 247.533 1755.93 247.024C1759.6 253.689 1763.3 259.726 1767.01 265.162ZM1761.92 261.1C1762.16 261.283 1762.41 261.479 1762.65 261.665C1759.26 256.399 1755.88 250.632 1752.53 244.346C1751.9 243.868 1751.27 243.402 1750.64 242.948C1754.37 249.673 1758.13 255.713 1761.92 261.1ZM1177.02 563.432L1179.1 562.02L1178.76 562.051L1176.54 563.424L1177.02 563.432ZM1171.93 566.917L1174.49 565.166L1173.75 565.16L1171.11 566.816L1171.93 566.917ZM1166.83 570.438L1169.73 568.431L1168.73 568.315L1165.78 570.189L1166.83 570.438ZM1161.72 573.996L1164.88 571.79L1163.69 571.515C1162.64 572.192 1161.57 572.875 1160.51 573.56L1161.72 573.996ZM1156.6 577.59L1159.95 575.233L1158.64 574.765L1155.29 576.941L1156.6 577.59ZM1148.95 579.614C1150.8 579.291 1152.62 578.91 1154.39 578.464L1153.56 578.061L1153.37 578.19L1153.22 578.286L1153.04 578.318C1151.38 578.6 1149.7 578.829 1147.99 579.01L1148.95 579.614ZM1140.93 580.632C1142.75 580.481 1144.55 580.282 1146.3 580.032L1145.07 579.265C1143.23 579.397 1141.37 579.475 1139.47 579.501L1140.93 580.632ZM1133.21 580.994C1134.92 580.972 1136.61 580.91 1138.28 580.815L1136.56 579.501C1134.87 579.478 1133.15 579.418 1131.42 579.322L1133.21 580.994ZM1125.94 580.887C1127.53 580.952 1129.09 580.988 1130.63 580.999L1128.63 579.14C1127.1 579.022 1125.55 578.876 1123.99 578.708L1125.94 580.887ZM1491.2 387.371C1485.72 390.067 1480.17 392.546 1474.54 394.762L1474.54 394.764C1430.61 413.026 1384.1 435.397 1332.56 465.288C1307.2 479.995 1280.62 496.524 1252.52 515.279C1277.44 500.486 1301.19 487.459 1323.97 475.758C1374.55 449.77 1420.26 430.348 1463.01 412.68L1463.03 412.673C1471.08 409.553 1478.95 405.774 1486.66 401.471C1488.19 396.779 1489.7 392.077 1491.2 387.371ZM1496.96 384.445C1495.77 385.065 1494.59 385.675 1493.4 386.276C1491.92 390.921 1490.43 395.56 1488.93 400.189C1490.08 399.53 1491.23 398.858 1492.37 398.177C1493.91 393.608 1495.44 389.03 1496.96 384.445ZM1502.74 381.325C1501.56 381.978 1500.38 382.622 1499.2 383.256C1497.71 387.768 1496.21 392.272 1494.7 396.769C1495.84 396.072 1496.97 395.361 1498.11 394.642C1499.66 390.212 1501.21 385.771 1502.74 381.325ZM1508.54 378.015C1507.37 378.696 1506.21 379.369 1505.04 380.034C1503.54 384.398 1502.03 388.754 1500.5 393.104C1501.63 392.371 1502.76 391.627 1503.88 390.875C1505.44 386.596 1507 382.309 1508.54 378.015ZM1514.37 374.521C1513.22 375.227 1512.06 375.924 1510.91 376.613C1509.41 380.81 1507.89 385.002 1506.37 389.185C1507.48 388.424 1508.58 387.652 1509.69 386.874C1511.26 382.764 1512.82 378.646 1514.37 374.521ZM1520.22 370.851C1519.09 371.575 1517.95 372.293 1516.82 373.003C1515.32 377.016 1513.8 381.022 1512.28 385.021C1513.37 384.236 1514.45 383.442 1515.54 382.641C1517.11 378.719 1518.67 374.787 1520.22 370.851ZM1526.1 367.006C1524.99 367.746 1523.87 368.482 1522.76 369.209C1521.26 373.017 1519.76 376.82 1518.24 380.617C1519.31 379.809 1520.37 378.995 1521.44 378.175C1523 374.459 1524.56 370.735 1526.1 367.006ZM1531.99 363.011C1530.91 363.758 1529.82 364.501 1528.73 365.239C1527.25 368.819 1525.77 372.395 1524.27 375.964C1525.31 375.149 1526.34 374.326 1527.37 373.498C1528.92 370.008 1530.46 366.511 1531.99 363.011ZM1537.9 358.876C1536.85 359.622 1535.8 360.361 1534.75 361.098C1533.3 364.423 1531.84 367.745 1530.37 371.062C1531.37 370.25 1532.36 369.432 1533.34 368.61C1534.87 365.371 1536.39 362.126 1537.9 358.876ZM1543.82 354.611C1542.82 355.342 1541.81 356.071 1540.81 356.794C1539.4 359.835 1537.99 362.874 1536.56 365.908C1537.5 365.111 1538.44 364.31 1539.38 363.506C1540.87 360.546 1542.35 357.579 1543.82 354.611ZM1549.73 350.249C1548.79 350.949 1547.85 351.647 1546.9 352.343C1545.56 355.065 1544.21 357.785 1542.86 360.501C1543.73 359.742 1544.59 358.979 1545.46 358.214C1546.89 355.562 1548.31 352.906 1549.73 350.249ZM1555.6 345.82L1553.04 347.758C1551.8 350.11 1550.54 352.462 1549.29 354.812L1551.59 352.739C1552.93 350.434 1554.27 348.127 1555.6 345.82ZM1561.39 341.38L1559.22 343.054C1558.11 344.978 1557.01 346.902 1555.9 348.825L1557.78 347.098C1558.98 345.193 1560.19 343.287 1561.39 341.38ZM1567.01 337.014L1565.44 338.239L1562.81 342.433L1564.02 341.299L1567.01 337.014ZM1572.24 332.919L1571.71 333.33L1570.26 335.425L1570.32 335.366L1572.24 332.919ZM1186.03 559.672L1188.03 558.211L1187.85 558.241L1185.68 559.697L1186.03 559.672ZM1180.79 563.513L1183.32 561.653L1182.71 561.702L1180.07 563.494L1180.79 563.513ZM1175.55 567.382L1178.47 565.221L1177.56 565.204L1174.56 567.251L1175.55 567.382ZM1170.29 571.282L1173.51 568.893L1172.38 568.751L1169.13 570.994L1170.29 571.282ZM1165.03 575.212L1168.46 572.646L1167.19 572.336L1163.74 574.735L1165.03 575.212ZM1159.76 579.174L1163.36 576.471L1161.98 575.965L1158.4 578.485L1159.76 579.174ZM1152.37 581.792C1154.19 581.293 1155.97 580.735 1157.71 580.11L1156.76 579.636L1156.71 579.672L1156.56 579.712C1154.8 580.206 1152.98 580.631 1151.13 581L1152.37 581.792ZM1144.6 583.51C1146.45 583.188 1148.26 582.815 1150.04 582.389L1148.58 581.464C1146.74 581.771 1144.87 582.02 1142.96 582.215L1144.6 583.51ZM1136.95 584.537C1138.74 584.362 1140.5 584.149 1142.23 583.892L1140.38 582.44C1138.62 582.572 1136.84 582.665 1135.03 582.715L1136.95 584.537ZM1129.62 585.031C1131.31 584.966 1132.97 584.868 1134.61 584.741L1132.51 582.757C1130.88 582.77 1129.23 582.752 1127.56 582.703L1129.62 585.031ZM1496.53 370.496C1492.84 372.149 1489.13 373.731 1485.38 375.228L1485.38 375.227C1440.26 394.088 1392.92 419.42 1340.34 453.253C1316.44 468.635 1291.45 485.774 1265.09 504.864C1288.26 489.723 1310.4 476.102 1331.68 463.763C1383.3 433.825 1429.87 411.422 1473.86 393.136L1473.88 393.131C1479.99 390.727 1486.01 388.011 1491.95 385.037C1493.49 380.195 1495.01 375.347 1496.53 370.496ZM1502.42 367.785C1501.17 368.371 1499.93 368.95 1498.68 369.522C1497.18 374.326 1495.67 379.125 1494.15 383.919C1495.35 383.3 1496.56 382.672 1497.75 382.032C1499.32 377.289 1500.87 372.538 1502.42 367.785ZM1508.33 364.921C1507.09 365.535 1505.85 366.142 1504.6 366.742C1503.08 371.436 1501.55 376.13 1500.01 380.818C1501.21 380.164 1502.4 379.5 1503.6 378.826C1505.19 374.197 1506.76 369.561 1508.33 364.921ZM1514.26 361.915C1513.03 362.552 1511.79 363.183 1510.55 363.807C1509.02 368.378 1507.46 372.948 1505.9 377.511C1507.09 376.824 1508.28 376.127 1509.47 375.423C1511.08 370.925 1512.67 366.421 1514.26 361.915ZM1520.22 358.773C1518.99 359.43 1517.77 360.081 1516.54 360.725C1514.99 365.152 1513.42 369.575 1511.85 373.994C1513.02 373.279 1514.2 372.557 1515.37 371.826C1517 367.48 1518.61 363.127 1520.22 358.773ZM1526.2 355.503C1524.99 356.175 1523.77 356.843 1522.56 357.505C1520.99 361.767 1519.42 366.026 1517.83 370.28C1519 369.542 1520.16 368.795 1521.32 368.041C1522.96 363.866 1524.58 359.685 1526.2 355.503ZM1532.21 352.114C1531.01 352.8 1529.81 353.482 1528.6 354.157C1527.03 358.231 1525.46 362.305 1523.87 366.374C1525.02 365.614 1526.17 364.847 1527.31 364.073C1528.95 360.091 1530.59 356.103 1532.21 352.114ZM1538.23 348.619C1537.05 349.313 1535.87 350.002 1534.68 350.688C1533.11 354.552 1531.54 358.417 1529.95 362.276C1531.08 361.501 1532.21 360.72 1533.34 359.935C1534.98 356.166 1536.61 352.394 1538.23 348.619ZM1544.26 345.036C1543.11 345.729 1541.95 346.418 1540.79 347.107C1539.24 350.736 1537.67 354.366 1536.1 357.993C1537.2 357.213 1538.3 356.428 1539.4 355.639C1541.03 352.106 1542.65 348.572 1544.26 345.036ZM1550.32 341.367C1549.19 342.055 1548.07 342.742 1546.94 343.426C1545.4 346.793 1543.86 350.162 1542.31 353.527C1543.38 352.75 1544.45 351.967 1545.51 351.181C1547.13 347.912 1548.73 344.64 1550.32 341.367ZM1556.38 337.644L1553.11 339.657C1551.62 342.732 1550.12 345.81 1548.61 348.885C1549.63 348.122 1550.65 347.357 1551.67 346.589C1553.25 343.607 1554.82 340.624 1556.38 337.644ZM1562.43 333.88L1559.32 335.815C1557.89 338.565 1556.44 341.316 1554.99 344.068L1557.87 341.866C1559.4 339.204 1560.91 336.541 1562.43 333.88ZM1568.43 330.113L1565.56 331.918C1564.21 334.301 1562.85 336.686 1561.49 339.072L1564.11 337.038C1565.56 334.728 1567 332.42 1568.43 330.113ZM1574.37 326.378L1573.63 326.846L1571.83 327.975C1570.61 329.939 1569.39 331.907 1568.17 333.875L1570.41 332.113C1571.74 330.199 1573.06 328.288 1574.37 326.378ZM1580.15 322.749L1578.14 324.006L1575.11 328.414L1576.76 327.112L1580.15 322.749ZM1585.56 319.359L1584.47 320.038L1582.51 322.574L1583.15 322.061L1584.52 320.524L1585.56 319.359ZM1195.32 555.199L1197.21 553.727L1195.13 555.229L1195.32 555.199ZM1189.94 559.402L1192.43 557.456L1191.95 557.535L1189.33 559.441L1189.94 559.402ZM1184.55 563.631L1187.47 561.338L1186.65 561.395L1183.64 563.599L1184.55 563.631ZM1179.15 567.884L1182.4 565.321L1181.34 565.29L1178.04 567.725L1179.15 567.884ZM1173.75 572.161L1177.24 569.394L1176.01 569.226L1172.49 571.838L1173.75 572.161ZM1168.34 576.463L1172.02 573.535L1170.67 573.194L1166.99 575.948L1168.34 576.463ZM1162.92 580.786L1166.74 577.738L1165.32 577.201L1161.51 580.063L1162.92 580.786ZM1155.77 584.003C1157.57 583.328 1159.32 582.59 1161.01 581.787L1159.84 581.187C1158.05 581.881 1156.22 582.504 1154.33 583.061L1155.77 584.003ZM1148.23 586.401C1150.1 585.905 1151.92 585.353 1153.69 584.746L1152.07 583.692C1150.23 584.175 1148.35 584.597 1146.43 584.965L1148.23 586.401ZM1140.65 588.086C1142.5 587.75 1144.31 587.368 1146.08 586.942L1144.12 585.38C1142.32 585.676 1140.49 585.926 1138.62 586.132L1140.65 588.086ZM1133.26 589.177C1135.03 588.97 1136.78 588.73 1138.5 588.455L1136.32 586.365C1134.61 586.519 1132.87 586.637 1131.11 586.723L1133.26 589.177ZM1501.83 353.373C1499.97 354.153 1498.11 354.924 1496.24 355.683C1449.92 375.145 1401.74 403.439 1348.12 441.219C1325.77 456.97 1302.47 474.366 1277.97 493.456C1299.28 478.3 1319.7 464.44 1339.39 451.771C1392.07 417.875 1439.49 392.497 1484.71 373.597L1484.73 373.591C1488.93 371.909 1493.1 370.12 1497.23 368.241C1498.78 363.287 1500.31 358.329 1501.83 353.373ZM1507.87 350.79C1506.57 351.357 1505.26 351.919 1503.95 352.477C1502.44 357.403 1500.92 362.33 1499.39 367.254C1500.65 366.67 1501.91 366.076 1503.16 365.475C1504.74 360.582 1506.32 355.685 1507.87 350.79ZM1513.94 348.12C1512.64 348.702 1511.33 349.28 1510.02 349.855C1508.47 354.708 1506.92 359.564 1505.35 364.416C1506.61 363.802 1507.87 363.181 1509.13 362.552C1510.74 357.743 1512.35 352.93 1513.94 348.12ZM1520.02 345.376C1518.72 345.97 1517.42 346.56 1516.11 347.148C1514.54 351.905 1512.95 356.665 1511.36 361.423C1512.61 360.784 1513.86 360.136 1515.11 359.484C1516.76 354.782 1518.4 350.078 1520.02 345.376ZM1526.13 342.56C1524.83 343.163 1523.53 343.763 1522.23 344.361C1520.64 348.999 1519.02 353.641 1517.4 358.281C1518.65 357.619 1519.89 356.949 1521.13 356.274C1522.81 351.703 1524.48 347.131 1526.13 342.56ZM1532.24 339.684L1528.38 341.506C1526.76 345.999 1525.13 350.495 1523.48 354.992C1524.72 354.31 1525.95 353.625 1527.19 352.934C1528.88 348.517 1530.57 344.099 1532.24 339.684ZM1538.39 336.754L1534.54 338.593C1532.91 342.917 1531.26 347.245 1529.6 351.573C1530.83 350.874 1532.06 350.171 1533.28 349.463C1535 345.226 1536.7 340.989 1538.39 336.754ZM1544.55 333.791L1540.73 335.631C1539.09 339.759 1537.43 343.893 1535.76 348.025C1536.98 347.314 1538.19 346.602 1539.4 345.884C1541.13 341.852 1542.84 337.82 1544.55 333.791ZM1550.71 330.804L1546.95 332.628C1545.3 336.535 1543.64 340.446 1541.97 344.359C1543.17 343.643 1544.36 342.925 1545.55 342.204C1547.28 338.401 1549 334.6 1550.71 330.804ZM1556.89 327.796L1555.28 328.577L1553.18 329.599C1551.54 333.255 1549.89 336.918 1548.23 340.582C1549.41 339.865 1550.58 339.148 1551.75 338.427C1553.47 334.88 1555.19 331.335 1556.89 327.796ZM1563.07 324.794L1559.44 326.557C1557.81 329.936 1556.18 333.321 1554.54 336.708L1557.98 334.577C1559.69 331.312 1561.38 328.05 1563.07 324.794ZM1569.25 321.808L1565.72 323.512C1564.13 326.583 1562.53 329.661 1560.93 332.741L1564.25 330.661C1565.93 327.705 1567.59 324.753 1569.25 321.808ZM1575.41 318.859L1572.01 320.48C1570.48 323.212 1568.93 325.951 1567.38 328.695L1570.55 326.703C1572.18 324.083 1573.8 321.468 1575.41 318.859ZM1581.52 315.972L1578.33 317.474L1573.95 324.567L1576.9 322.712L1581.52 315.972ZM1587.57 313.167C1586.6 313.611 1585.64 314.058 1584.67 314.508L1584.13 315.29L1580.66 320.35L1583.28 318.709L1584.04 317.718L1587.57 313.167ZM1593.46 310.501C1592.64 310.867 1591.83 311.229 1591.01 311.598L1587.58 316.027L1589.69 314.717L1593.46 310.501ZM1599.01 308.044L1597.37 308.766L1594.93 311.497L1596.15 310.753L1599.01 308.044ZM1204.91 549.992L1205.03 549.894L1204.9 549.995L1204.91 549.992ZM1199.38 554.573L1201.81 552.563L1201.48 552.643L1198.9 554.645L1199.38 554.573ZM1193.84 559.169L1196.74 556.76L1196.04 556.87L1193.04 559.213L1193.84 559.169ZM1188.3 563.787L1191.56 561.069L1190.59 561.128L1187.26 563.741L1188.3 563.787ZM1182.75 568.423L1186.29 565.463L1185.13 565.416L1181.55 568.238L1182.75 568.423ZM1177.2 573.074L1180.95 569.933L1179.65 569.738L1175.88 572.721L1177.2 573.074ZM1171.64 577.743L1175.55 574.458L1174.15 574.089L1170.24 577.197L1171.64 577.743ZM1166.06 582.424L1166.13 582.382L1170.1 579.036L1168.65 578.47L1164.63 581.676L1166.06 582.424ZM1159.17 586.247C1160.95 585.396 1162.66 584.48 1164.32 583.499L1162.96 582.791C1161.22 583.659 1159.43 584.458 1157.58 585.189L1159.17 586.247ZM1151.82 589.308C1153.7 588.634 1155.53 587.903 1157.3 587.114L1155.55 585.957C1153.72 586.619 1151.84 587.219 1149.91 587.761L1151.82 589.308ZM1144.31 591.635C1146.2 591.132 1148.05 590.583 1149.86 589.985L1147.8 588.326C1145.97 588.793 1144.1 589.208 1142.19 589.579L1144.31 591.635ZM1136.87 593.341C1138.72 592.981 1140.53 592.582 1142.31 592.145L1140.07 589.969C1138.29 590.277 1136.49 590.547 1134.65 590.779L1136.87 593.341ZM1507.06 336.156C1459.55 356.221 1410.54 387.472 1355.9 429.184C1335.22 444.963 1313.74 462.243 1291.23 480.981C1310.56 466.163 1329.14 452.436 1347.11 439.774C1400.83 401.922 1449.12 373.568 1495.57 354.054L1495.58 354.05C1497.9 353.107 1500.2 352.147 1502.5 351.173C1504.03 346.165 1505.55 341.158 1507.06 336.156ZM1513.31 333.569L1509.17 335.283C1507.66 340.275 1506.15 345.272 1504.62 350.272C1505.94 349.704 1507.26 349.134 1508.58 348.558C1510.17 343.559 1511.74 338.561 1513.31 333.569ZM1519.56 330.99L1515.42 332.694C1513.87 337.664 1512.3 342.639 1510.73 347.617C1512.05 347.034 1513.37 346.446 1514.69 345.855C1516.33 340.897 1517.95 335.941 1519.56 330.99ZM1525.82 328.43L1521.7 330.116C1520.1 335.031 1518.49 339.952 1516.86 344.876C1518.18 344.279 1519.5 343.679 1520.81 343.076C1522.5 338.19 1524.17 333.307 1525.82 328.43ZM1532.1 325.895L1527.98 327.556C1526.34 332.383 1524.69 337.217 1523.03 342.055C1524.34 341.446 1525.66 340.835 1526.97 340.222C1528.69 335.441 1530.4 330.664 1532.1 325.895ZM1538.38 323.394C1537.01 323.932 1535.64 324.476 1534.28 325.022C1532.6 329.73 1530.92 334.446 1529.22 339.165L1533.15 337.309C1534.9 332.665 1536.65 328.024 1538.38 323.394ZM1544.67 320.931C1543.31 321.459 1541.95 321.99 1540.58 322.524C1538.88 327.08 1537.17 331.646 1535.44 336.215L1539.35 334.343C1541.14 329.865 1542.91 325.392 1544.67 320.931ZM1550.96 318.523C1549.61 319.035 1548.25 319.551 1546.9 320.072C1545.18 324.444 1543.44 328.826 1541.69 333.214L1545.58 331.334C1547.39 327.056 1549.18 322.785 1550.96 318.523ZM1557.25 316.175C1555.9 316.668 1554.56 317.167 1553.22 317.67C1551.49 321.828 1549.74 325.996 1547.98 330.171L1551.83 328.3C1553.65 324.25 1555.45 320.207 1557.25 316.175ZM1563.54 313.894C1562.21 314.368 1560.88 314.848 1559.55 315.332C1557.81 319.243 1556.06 323.167 1554.3 327.098L1554.51 326.996L1558.12 325.243C1559.94 321.452 1561.74 317.667 1563.54 313.894ZM1569.83 311.692C1568.52 312.144 1567.2 312.601 1565.89 313.064C1564.15 316.702 1562.41 320.351 1560.66 324.008L1564.42 322.187C1566.23 318.679 1568.04 315.179 1569.83 311.692ZM1576.11 309.581C1574.82 310.006 1573.53 310.438 1572.23 310.874C1570.52 314.208 1568.8 317.553 1567.06 320.908L1570.75 319.132L1576.11 309.581ZM1582.37 307.568C1581.11 307.965 1579.84 308.367 1578.58 308.775L1573.51 317.815L1577.11 316.107L1580.7 310.271L1582.37 307.568ZM1588.61 305.661C1587.38 306.025 1586.16 306.396 1584.93 306.773L1582.2 311.196L1580.02 314.733C1581.18 314.19 1582.33 313.65 1583.49 313.114L1588.61 305.661ZM1594.79 303.878C1593.62 304.205 1592.45 304.537 1591.29 304.875L1586.62 311.665C1587.71 311.163 1588.8 310.666 1589.89 310.171C1591.53 308.062 1593.16 305.965 1594.79 303.878ZM1600.89 302.229C1599.81 302.513 1598.72 302.8 1597.63 303.094L1593.32 308.632C1594.32 308.184 1595.32 307.739 1596.33 307.298C1597.85 305.598 1599.37 303.909 1600.89 302.229ZM1606.84 300.734C1605.89 300.963 1604.94 301.198 1603.98 301.437C1602.73 302.818 1601.47 304.207 1600.21 305.605C1601.07 305.234 1601.93 304.864 1602.79 304.5C1604.14 303.236 1605.49 301.98 1606.84 300.734ZM1612.47 299.427L1610.33 299.912C1609.38 300.784 1608.43 301.66 1607.48 302.542L1609.27 301.808C1610.34 301.008 1611.4 300.214 1612.47 299.427ZM1617.28 298.397L1616.69 298.517L1615.65 299.279L1615.8 299.221L1617.28 298.397ZM1209.12 549.007L1211.46 546.959L1211.29 547.012L1208.78 549.084L1209.12 549.007ZM1203.43 553.986L1206.29 551.48L1205.71 551.617L1202.73 554.084L1203.43 553.986ZM1197.74 558.973L1201 556.116L1200.12 556.246L1196.78 559.019L1197.74 558.973ZM1192.04 563.98L1195.61 560.843L1194.51 560.901L1190.89 563.917L1192.04 563.98ZM1186.34 568.994L1190.15 565.641L1188.9 565.579L1185.06 568.785L1186.34 568.994ZM1180.64 574.019L1184.63 570.504L1183.26 570.288L1179.26 573.637L1180.64 574.019ZM1174.93 579.054L1179.06 575.41L1177.62 575.015L1173.5 578.479L1174.93 579.054ZM1169.19 584.082L1169.53 583.828L1173.45 580.36L1171.96 579.768L1167.75 583.317L1169.19 584.082ZM1162.58 588.526C1164.33 587.498 1166.01 586.404 1167.62 585.244L1166.13 584.453C1164.44 585.495 1162.68 586.47 1160.86 587.375L1162.58 588.526ZM1155.39 592.233C1157.27 591.379 1159.1 590.469 1160.87 589.495L1159.02 588.259C1157.21 589.101 1155.33 589.88 1153.4 590.599L1155.39 592.233ZM1147.94 595.205C1149.87 594.53 1151.75 593.804 1153.58 593.027L1151.46 591.294C1149.61 591.934 1147.71 592.524 1145.76 593.062L1147.94 595.205ZM1140.46 597.509C1142.37 596.992 1144.25 596.439 1146.08 595.84L1143.79 593.588C1141.96 594.055 1140.09 594.478 1138.19 594.864L1140.46 597.509ZM1151.15 600.87C1149.24 601.671 1147.28 602.427 1145.27 603.135C1150.35 609.108 1155.49 615.206 1160.65 621.338C1207.86 677.397 1257.4 736.243 1289.39 725.34C1327.22 712.449 1360.47 677.416 1390.09 629.178C1363.43 668.02 1333.89 696.137 1300.82 707.462C1267.45 719.095 1219.27 670.057 1171.81 621.757C1164.89 614.715 1157.99 607.688 1151.15 600.87ZM1158.74 597.304C1156.85 598.302 1154.9 599.237 1152.89 600.122C1159.57 606.789 1166.31 613.649 1173.07 620.524C1220.14 668.43 1267.93 717.069 1300.24 705.799L1300.25 705.797C1337.88 692.912 1370.94 657.982 1400.4 610.135C1373.91 648.606 1344.56 676.598 1311.68 687.917L1311.69 687.919C1277.99 699.91 1231.13 659.502 1183.8 618.685C1175.43 611.474 1167.06 604.25 1158.74 597.304ZM1165.98 592.968C1164.19 594.175 1162.33 595.317 1160.4 596.394C1168.55 603.212 1176.76 610.288 1184.95 617.351C1231.89 657.83 1278.36 697.904 1311.09 686.257L1311.1 686.255C1348.49 673.389 1381.32 638.642 1410.59 591.332C1384.29 629.301 1355.17 657.078 1322.54 668.371L1322.55 668.373C1288.49 680.715 1242.68 647.781 1195.49 613.855C1185.68 606.801 1175.81 599.705 1165.98 592.968ZM1172.6 587.925C1170.98 589.319 1169.29 590.642 1167.53 591.897C1177.19 598.529 1186.89 605.499 1196.52 612.428C1243.32 646.076 1288.76 678.741 1321.94 666.717L1321.95 666.714C1358.73 653.988 1391.07 619.996 1419.95 573.969L1420.17 573.504C1394.21 610.46 1365.52 637.647 1333.4 648.828L1333.4 648.83C1298.99 661.506 1254.07 635.185 1207.07 607.65C1195.66 600.965 1184.13 594.209 1172.6 587.925ZM1178.59 582.45L1174.11 586.577L1174 586.681C1185.36 592.887 1196.72 599.541 1207.96 606.13C1254.59 633.451 1299.16 659.565 1332.79 647.178L1332.81 647.173C1367.15 635.223 1397.59 604.687 1424.96 563.379C1425.41 562.41 1425.86 561.442 1426.31 560.469C1401.61 593.973 1374.46 618.707 1344.26 629.284L1344.26 629.285C1309.52 642.269 1265.4 621.887 1218.67 600.302C1205.46 594.202 1192.05 588.01 1178.59 582.45ZM1184.54 576.962L1180.02 581.132C1193.26 586.621 1206.43 592.707 1219.41 598.704C1265.79 620.13 1309.59 640.361 1343.64 627.636L1343.66 627.631C1375.6 616.451 1404.14 589.185 1429.99 552.365C1430.69 550.815 1431.38 549.253 1432.07 547.692C1408.74 577.623 1383.26 599.819 1355.12 609.739L1355.12 609.741C1320.12 622.996 1276.78 607.999 1230.42 591.961C1215.39 586.759 1200.03 581.447 1184.54 576.962ZM1190.49 571.482L1187.38 574.35L1186.06 575.565C1201.23 579.998 1216.27 585.2 1231 590.298C1277.04 606.227 1320.1 621.124 1354.49 608.094L1354.51 608.089C1384.07 597.675 1410.71 573.504 1435.01 540.964C1435.89 538.95 1436.75 536.924 1437.62 534.89C1415.74 561.296 1391.99 580.973 1365.96 590.206L1365.96 590.205C1330.81 603.669 1288.29 593.578 1242.49 582.709C1225.53 578.683 1208.12 574.554 1190.49 571.482ZM1196.42 566.01L1192.12 569.979C1209.34 573.034 1226.33 577.064 1242.89 580.992C1288.44 591.8 1330.71 601.83 1365.34 588.554L1365.36 588.545C1392.59 578.888 1417.32 557.629 1440.06 529.119C1441.08 526.69 1442.09 524.245 1443.1 521.793C1422.7 544.827 1400.72 562.119 1376.81 570.663L1376.81 570.66C1341.68 584.273 1300.08 578.646 1255.03 572.552C1236.03 569.983 1216.41 567.332 1196.42 566.01ZM1202.34 560.554L1198.21 564.367C1217.67 565.724 1236.76 568.302 1255.27 570.805C1300.1 576.869 1341.49 582.468 1376.19 569.012L1376.22 569.001C1401.15 560.091 1424 541.514 1445.15 516.758C1446.28 513.997 1447.39 511.221 1448.5 508.431C1429.64 528.261 1409.46 543.275 1387.67 551.12L1387.67 551.118C1352.76 564.781 1312.28 563.185 1268.29 561.451C1247.05 560.614 1224.98 559.747 1202.34 560.554ZM1208.26 555.107L1204.33 558.721C1226.3 558.032 1247.71 558.875 1268.35 559.69C1312.17 561.417 1352.49 563.007 1387.05 549.472L1387.07 549.461C1409.75 541.293 1430.71 525.226 1450.26 503.982C1451.46 500.915 1452.66 497.831 1453.85 494.733C1436.57 511.562 1418.2 524.434 1398.53 531.575L1398.52 531.573C1364.17 545.151 1325.1 547.125 1282.59 549.272C1258.81 550.473 1233.95 551.731 1208.26 555.107ZM1214.15 549.676L1210.5 553.041C1235.37 549.895 1259.45 548.674 1282.5 547.51C1324.88 545.371 1363.82 543.404 1397.9 529.931L1397.92 529.92C1418.39 522.488 1437.46 508.742 1455.38 490.743C1456.66 487.388 1457.93 484.015 1459.2 480.628C1443.52 494.681 1426.98 505.583 1409.41 512.024L1409.41 512.025C1376.08 525.318 1338.88 530.325 1298.45 535.767C1271.7 539.367 1243.53 543.164 1214.15 549.676ZM1220.05 544.256L1216.73 547.306C1245.1 541.173 1272.32 537.504 1298.21 534.019C1338.53 528.592 1375.62 523.599 1408.75 510.387L1408.77 510.379C1427.07 503.677 1444.26 492.064 1460.53 477.045C1461.87 473.422 1463.2 469.78 1464.53 466.123C1450.48 477.647 1435.77 486.744 1420.26 492.482L1420.26 492.482C1388.7 505.173 1354.11 512.529 1316.69 520.49C1286.31 526.951 1254.05 533.818 1220.05 544.256ZM1225.92 538.858L1223.04 541.506C1255.82 531.642 1286.94 525.019 1316.32 518.77C1353.65 510.826 1388.16 503.487 1419.6 490.845L1419.62 490.837C1435.79 484.86 1451.11 475.178 1465.71 462.859C1467.1 458.991 1468.48 455.103 1469.86 451.205C1457.47 460.45 1444.59 467.902 1431.12 472.938L1431.12 472.939C1402.52 484.527 1371.75 493.264 1338.76 502.637C1303.71 512.593 1266.12 523.272 1225.92 538.858ZM1231.79 533.466L1229.46 535.609C1268.15 520.865 1304.39 510.568 1338.27 500.944C1371.21 491.589 1401.91 482.868 1430.45 471.305L1430.47 471.297C1444.55 466.038 1458 458.099 1470.91 448.202C1472.35 444.104 1473.77 439.989 1475.19 435.861C1464.49 443.087 1453.44 449.059 1441.97 453.393L1441.97 453.394C1418.48 462.981 1393.7 471.57 1367.51 480.647C1326.01 495.034 1280.97 510.646 1231.79 533.466ZM1237.63 528.113L1236.04 529.574C1283.34 507.965 1326.79 492.901 1366.93 478.986C1393.06 469.929 1417.79 461.359 1441.3 451.763L1441.33 451.755C1453.35 447.211 1464.94 440.838 1476.14 433.082C1477.61 428.767 1479.07 424.439 1480.52 420.098C1471.54 425.563 1462.32 430.219 1452.83 433.85L1452.83 433.852C1438.89 439.577 1424.3 445.34 1409.27 451.276C1357.92 471.564 1301.41 493.891 1237.63 528.113ZM1243.5 522.744L1242.86 523.329C1304.24 490.881 1358.85 469.307 1408.62 449.642C1423.46 443.781 1437.87 438.091 1452.16 432.221L1452.18 432.215C1462.2 428.382 1471.92 423.388 1481.39 417.495C1482.89 412.983 1484.38 408.458 1485.86 403.924C1478.62 407.883 1471.23 411.38 1463.69 414.305L1463.69 414.307C1420.94 431.973 1375.26 451.386 1324.77 477.324C1299.03 490.549 1272.02 505.478 1243.5 522.744ZM1512.13 319.201C1448.71 347.422 1383.1 398.331 1304.96 467.352C1322.14 453.269 1338.73 440.073 1354.83 427.782C1409.61 385.968 1458.75 354.639 1506.42 334.513L1506.42 334.51L1507.72 333.974C1509.2 329.043 1510.67 324.118 1512.13 319.201ZM1518.64 316.403C1517.18 317.019 1515.71 317.63 1514.25 318.265C1512.79 323.203 1511.31 328.15 1509.82 333.103L1513.99 331.378C1515.55 326.379 1517.1 321.386 1518.64 316.403ZM1525.14 313.74C1523.68 314.32 1522.22 314.898 1520.76 315.504C1519.22 320.495 1517.67 325.497 1516.11 330.505L1520.28 328.791C1521.91 323.765 1523.53 318.747 1525.14 313.74ZM1531.63 311.213C1530.17 311.758 1528.71 312.337 1527.25 312.913C1525.65 317.905 1524.04 322.909 1522.41 327.919L1526.57 326.224C1528.27 321.211 1529.96 316.205 1531.63 311.213ZM1538.1 308.904C1536.65 309.41 1535.2 309.936 1533.74 310.46C1532.09 315.411 1530.41 320.376 1528.73 325.35C1530.12 324.79 1531.5 324.233 1532.89 323.679C1534.64 318.743 1536.38 313.816 1538.1 308.904ZM1544.56 306.752C1543.12 307.217 1541.68 307.658 1540.24 308.144C1538.53 313.019 1536.8 317.91 1535.06 322.811C1536.45 322.26 1537.83 321.714 1539.21 321.171C1541.01 316.352 1542.79 311.543 1544.56 306.752ZM1551.02 304.739C1549.57 305.167 1548.13 305.609 1546.69 306.066C1544.94 310.798 1543.18 315.548 1541.41 320.307C1542.79 319.767 1544.17 319.232 1545.55 318.701C1547.38 314.034 1549.21 309.377 1551.02 304.739ZM1557.45 302.893C1556.02 303.284 1554.58 303.711 1553.14 304.13C1551.36 308.687 1549.57 313.261 1547.77 317.847C1549.14 317.322 1550.52 316.801 1551.89 316.285C1553.76 311.807 1555.61 307.341 1557.45 302.893ZM1563.85 301.266C1562.43 301.615 1561.01 301.97 1559.59 302.335C1557.79 306.686 1555.98 311.056 1554.15 315.439C1555.52 314.931 1556.88 314.43 1558.24 313.931C1560.13 309.693 1562 305.469 1563.85 301.266ZM1570.25 299.777C1568.84 300.087 1567.43 300.389 1566.02 300.722C1564.21 304.828 1562.38 308.954 1560.55 313.095C1561.9 312.604 1563.26 312.119 1564.62 311.64C1566.51 307.669 1568.39 303.713 1570.25 299.777ZM1576.64 298.431C1575.24 298.705 1573.83 299.009 1572.42 299.313C1570.61 303.13 1568.79 306.969 1566.96 310.82C1568.3 310.351 1569.65 309.888 1570.99 309.431L1575.54 300.582L1576.64 298.431ZM1582.99 297.305C1581.6 297.537 1580.21 297.793 1578.83 298.044L1577.11 301.385L1573.39 308.623C1574.72 308.178 1576.05 307.739 1577.39 307.307L1578.29 305.694L1582.99 297.305ZM1589.31 296.343C1587.95 296.536 1586.58 296.706 1585.22 296.916L1579.84 306.515C1581.16 306.096 1582.47 305.683 1583.78 305.279C1585.63 302.281 1587.47 299.303 1589.31 296.343ZM1595.61 295.517C1594.26 295.673 1592.92 295.842 1591.57 296.025C1589.83 298.832 1588.09 301.657 1586.33 304.5C1587.62 304.111 1588.91 303.728 1590.19 303.353C1592.01 300.724 1593.81 298.11 1595.61 295.517ZM1601.86 294.872C1600.54 294.99 1599.23 295.139 1597.92 295.279C1596.24 297.696 1594.56 300.133 1592.86 302.585C1594.11 302.23 1595.36 301.885 1596.61 301.545C1598.37 299.302 1600.11 297.078 1601.86 294.872ZM1608.01 294.423C1606.76 294.503 1605.51 294.577 1604.26 294.67C1602.66 296.693 1601.05 298.731 1599.44 300.784C1600.64 300.467 1601.84 300.157 1603.05 299.853C1604.71 298.028 1606.36 296.217 1608.01 294.423ZM1614.1 294.096C1612.92 294.144 1611.74 294.189 1610.56 294.255C1609.08 295.854 1607.6 297.467 1606.12 299.092C1607.24 298.82 1608.37 298.551 1609.49 298.291C1611.03 296.879 1612.57 295.48 1614.1 294.096ZM1620.03 293.927C1618.96 293.944 1617.89 293.987 1616.82 294.019C1615.53 295.173 1614.24 296.339 1612.95 297.514C1613.95 297.296 1614.95 297.08 1615.95 296.871C1617.31 295.878 1618.67 294.898 1620.03 293.927ZM1625.55 293.931C1624.74 293.924 1623.93 293.913 1623.12 293.909C1622.12 294.609 1621.13 295.316 1620.13 296.029C1620.89 295.882 1621.65 295.738 1622.41 295.597C1623.46 295.035 1624.51 294.479 1625.55 293.931ZM1630.39 293.974C1630.05 293.965 1629.71 293.974 1629.37 293.965L1628.13 294.597L1628.88 294.477C1629.38 294.306 1629.89 294.14 1630.39 293.974ZM1625.8 292.031C1626.92 292.042 1628.05 292.037 1629.17 292.064C1687.91 262.154 1746.35 254.645 1816.52 331.903C1842.7 356.457 1866.13 376.97 1887.24 393.769C1864.02 374.975 1838.07 350.705 1808.83 320.323L1808.8 320.284L1808.78 320.264C1740.58 234.906 1683.95 251.696 1625.8 292.031ZM1619.03 292.05C1620.27 292.023 1621.51 292.006 1622.75 292.001C1682.31 250.096 1740.13 231.539 1810.14 319.141C1827.52 337.204 1843.73 353.088 1858.88 366.944C1841.45 350.451 1822.68 330.73 1802.37 307.464L1802.35 307.436L1802.32 307.397C1801.13 305.726 1799.94 304.107 1798.76 302.51C1797.11 300.951 1795.46 299.297 1793.81 297.548C1791.4 295.421 1789 293.081 1786.61 290.53C1784.16 288.385 1781.72 286.009 1779.29 283.406C1773.11 278.031 1766.99 271.145 1760.95 262.638C1721.02 232.393 1684.65 242.493 1648.08 268.549C1638.44 275.421 1628.78 283.403 1619.03 292.05ZM1612.44 292.232C1613.72 292.177 1615.01 292.163 1616.3 292.125C1626.61 282.91 1636.84 274.402 1647.06 267.117C1683.06 241.465 1718.86 231.009 1757.89 258.174C1754.41 252.939 1750.97 247.159 1747.55 240.808C1719.45 222.162 1693.06 226.623 1666.85 243.464C1648.82 255.044 1630.84 272.453 1612.44 292.232ZM1605.86 292.649C1607.21 292.559 1608.55 292.461 1609.89 292.387C1628.82 271.957 1647.31 253.924 1665.9 241.981C1691.93 225.259 1718.09 220.428 1745.8 237.51C1743.28 232.663 1740.78 227.502 1738.29 222.019C1716.82 208.778 1696.34 210.966 1676.07 222.811C1652.86 236.372 1629.82 262.51 1605.86 292.649ZM1599.36 293.21C1600.73 293.065 1602.11 292.915 1603.49 292.803C1627.92 261.996 1651.4 235.18 1675.18 221.289C1695.38 209.485 1715.75 206.964 1736.98 219.114C1734.91 214.429 1732.84 209.521 1730.79 204.378C1713.54 194.128 1696.94 195.153 1680.52 203.943C1653.77 218.259 1627.33 253.026 1599.36 293.21ZM1592.88 293.914C1594.27 293.739 1595.66 293.597 1597.04 293.446C1625.46 252.554 1652.32 217.039 1679.69 202.389C1696.09 193.611 1712.63 192.282 1729.72 201.671C1727.92 197.086 1726.13 192.324 1724.35 187.375C1709.93 178.823 1695.96 179.14 1682.14 185.956C1652.83 200.418 1623.96 243.856 1592.88 293.914ZM1586.4 294.819C1587.81 294.613 1589.21 294.419 1590.62 294.23C1622.13 243.424 1651.38 199.171 1681.36 184.381C1695.18 177.562 1709.11 176.96 1723.42 184.772C1721.83 180.271 1720.25 175.625 1718.67 170.826C1706.14 163.157 1693.97 162.957 1681.92 168.462C1650.69 182.74 1620.02 234.965 1586.4 294.819ZM1579.92 295.909C1581.35 295.65 1582.77 295.385 1584.2 295.154C1618.22 234.535 1649.25 181.463 1681.19 166.862C1693.25 161.348 1705.4 161.271 1717.83 168.262C1716.4 163.854 1714.98 159.325 1713.57 154.665C1702.29 147.287 1691.3 146.63 1680.43 151.255C1647.73 165.171 1615.69 226.302 1579.92 295.909ZM1573.45 297.144C1574.88 296.847 1576.31 296.564 1577.74 296.295C1613.91 225.895 1646.28 163.874 1679.74 149.633C1690.63 144.999 1701.6 145.377 1712.79 152.088C1711.5 147.794 1710.22 143.4 1708.95 138.894C1698.43 131.312 1688.18 130.19 1678.04 134.223C1644.4 147.603 1611.48 216.985 1574.13 295.723L1573.45 297.144ZM1566.99 298.522C1568.42 298.195 1569.86 297.912 1571.29 297.606L1572.54 294.969C1610.05 215.895 1643.11 146.216 1677.39 132.584C1687.55 128.542 1697.77 129.367 1708.2 136.25C1707.05 132.123 1705.9 127.909 1704.75 123.603C1694.62 115.331 1684.74 113.655 1674.98 117.299C1641.42 129.819 1608.58 204.254 1570.94 289.589L1566.99 298.522ZM1560.5 300.143C1561.94 299.778 1563.38 299.408 1564.83 299.061L1569.32 288.879C1607.12 203.182 1640.1 128.43 1674.36 115.651C1684.14 112 1693.99 113.346 1704.02 120.843C1703 116.94 1701.97 112.968 1700.95 108.918C1690.88 99.4115 1681.09 97.0493 1671.4 100.45C1638.03 112.166 1605.37 191.35 1567.57 283.011C1565.23 288.678 1562.88 294.394 1560.5 300.143ZM1554.01 301.907C1555.46 301.486 1556.92 301.061 1558.37 300.673C1560.92 294.517 1563.44 288.4 1565.94 282.337C1603.9 190.287 1636.7 110.768 1670.82 98.7902C1680.51 95.3867 1690.27 97.3682 1700.21 105.962L1699.2 101.853C1698.63 99.5371 1698.07 97.2685 1697.5 95.0261C1687.24 83.6563 1677.27 80.3884 1667.43 83.6494C1634.32 94.6172 1601.92 178.269 1564.06 276.003C1560.75 284.544 1557.4 293.191 1554.01 301.907ZM1547.52 303.81C1548.98 303.361 1550.43 302.938 1551.88 302.513C1555.45 293.377 1558.96 284.313 1562.42 275.368C1600.44 177.213 1632.98 93.2025 1666.88 81.9746C1676.69 78.7223 1686.57 81.4996 1696.66 91.6821C1695.79 88.2695 1694.92 84.9407 1694.06 81.7053C1683.48 68.0385 1673.25 63.7112 1663.15 66.8761C1630.37 77.1485 1598.27 165.014 1560.43 268.592C1556.2 280.165 1551.9 291.933 1547.52 303.81ZM1541.02 305.898C1542.48 305.418 1543.94 304.958 1545.39 304.496C1549.94 292.178 1554.4 279.978 1558.78 267.986C1596.77 163.969 1629.01 75.7291 1662.62 65.1963C1672.63 62.059 1682.7 65.721 1693 77.7657C1692.18 74.7514 1691.36 71.8191 1690.55 68.9605C1679.59 52.5765 1669.03 47.0322 1658.62 50.1263C1626.21 59.7586 1594.45 151.599 1556.7 260.793C1551.59 275.565 1546.37 290.653 1541.02 305.898ZM1534.51 308.183C1535.97 307.654 1537.44 307.12 1538.91 306.617C1544.41 290.93 1549.78 275.406 1555.03 260.215C1592.95 150.556 1624.84 58.3247 1658.11 48.437C1668.34 45.3981 1678.62 50.0274 1689.16 64.1432C1688.44 61.6551 1687.71 59.2348 1686.99 56.8735C1675.6 37.2929 1664.66 30.3442 1653.88 33.3868C1621.88 42.4246 1590.49 138.021 1552.87 252.619C1546.91 270.755 1540.8 289.365 1534.51 308.183ZM1527.99 310.606C1529.46 310.036 1530.93 309.473 1532.4 308.933C1538.85 289.672 1545.1 270.623 1551.2 252.069C1588.98 136.985 1620.5 40.9821 1653.4 31.6911C1663.82 28.7494 1674.29 34.3707 1685.04 50.6293C1684.49 48.8794 1683.93 47.1689 1683.38 45.4917C1671.5 22.2056 1660.15 13.6537 1648.98 16.6571C1617.41 25.1445 1586.41 124.289 1548.96 244.09C1542.2 265.727 1535.22 288.036 1527.99 310.606ZM1521.48 313.166C1522.95 312.567 1524.41 312.006 1525.88 311.43C1533.26 288.401 1540.38 265.635 1547.28 243.568C1584.89 123.26 1616.01 23.6958 1648.52 14.9573C1658.99 12.1421 1669.52 18.6037 1680.34 36.6129L1679.73 34.9164C1667.32 7.34614 1655.53 -3.03719 1643.94 -0.0655444C1612.81 7.9145 1582.22 110.416 1544.98 235.223C1537.44 260.491 1529.63 286.67 1521.48 313.166ZM1514.94 315.935C1516.42 315.305 1517.89 314.676 1519.36 314.063C1527.66 287.091 1535.62 260.433 1543.29 234.719C1580.69 109.385 1611.41 6.452 1643.5 -1.77497C1653.44 -4.32453 1663.43 2.07504 1673.69 19.508C1661.58 -8.73281 1650.08 -19.557 1638.78 -16.7878C1608.12 -9.27822 1577.94 96.399 1540.94 226.029C1532.64 255.077 1524.01 285.321 1514.94 315.935ZM1219.14 542.692L1221.27 540.736L1218.96 542.747L1219.14 542.692ZM1213.31 548.057L1216.11 545.477L1215.67 545.615L1212.73 548.185L1213.31 548.057ZM1207.47 553.433L1210.71 550.452L1209.94 550.628L1206.6 553.549L1207.47 553.433ZM1201.63 558.813L1205.21 555.518L1204.19 555.658L1200.55 558.854L1201.63 558.813ZM1195.78 564.204L1199.63 560.659L1198.43 560.71L1194.55 564.126L1195.78 564.204ZM1189.93 569.596L1193.99 565.857L1192.67 565.779L1188.59 569.367L1189.93 569.596ZM1184.08 574.993L1186.19 573.049L1188.29 571.106L1186.88 570.869L1182.66 574.587L1184.08 574.993ZM1178.22 580.391L1182.56 576.391L1181.09 575.974L1176.76 579.792L1178.22 580.391ZM1172.35 585.785C1172.54 585.613 1172.73 585.45 1172.92 585.277L1176.79 581.711L1175.28 581.096L1170.88 584.987L1172.35 585.785ZM1165.98 590.838C1167.7 589.632 1169.36 588.362 1170.94 587.023L1169.35 586.166C1167.69 587.384 1165.97 588.533 1164.18 589.613L1165.98 590.838ZM1158.95 595.181C1160.84 594.148 1162.66 593.054 1164.41 591.897L1162.5 590.598C1160.7 591.621 1158.83 592.581 1156.9 593.478L1158.95 595.181ZM1151.56 598.789C1153.52 597.939 1155.42 597.037 1157.27 596.079L1155.1 594.286C1153.23 595.106 1151.31 595.869 1149.33 596.58L1151.56 598.789ZM1144.05 601.703C1146.02 601.024 1147.93 600.296 1149.8 599.526L1147.48 597.222C1145.6 597.852 1143.69 598.44 1141.73 598.985L1144.05 601.703ZM933.302 309.9L922.057 315.542C895.788 336.58 873.831 376.047 851.569 416.069C826.207 461.659 800.445 507.973 767.661 528.171C756.202 535.23 743.86 539.083 730.345 538.602L731.257 540.418C744.737 540.703 757.089 536.758 768.586 529.675C801.758 509.237 827.636 462.717 853.11 416.923C878.12 371.962 902.744 327.705 933.302 309.9ZM2014.14 370.662L2013.3 368.974C2008.66 374.21 2003.93 378.96 1999.07 383.186L2004.88 380.27C2008.02 377.279 2011.1 374.073 2014.14 370.662ZM749.088 575.956C754.949 574.387 760.542 571.808 765.914 568.385C790.524 552.701 810.709 519.475 831.175 485.786C857.083 443.143 883.44 399.758 920.09 389.651L920.097 389.649C950.947 381.426 982.649 419.584 1019.76 464.254C1032.8 479.945 1046.5 496.444 1061.06 512.003C1044.3 492.723 1029.04 472.059 1014.81 452.786C981.038 407.062 953.084 369.212 925.051 376.748L925.052 376.749C888.851 386.796 862.328 431.199 836.084 475.139C814.673 510.985 793.442 546.529 767.128 563.184C760.723 567.239 754.026 570.174 746.965 571.726L746.138 570.077C753.173 568.603 759.831 565.719 766.188 561.695C792.149 545.265 813.272 509.901 834.574 474.236C861 429.993 887.706 385.283 924.577 375.05L924.585 375.05C953.784 367.193 982.064 405.484 1016.23 451.741C1027.31 466.757 1039.03 482.619 1051.59 498.002C1036.8 478.508 1023.5 458.23 1011.17 439.432C980.455 392.597 955.805 355.01 929.538 362.149L929.538 362.15C893.121 372.319 866.251 418.026 839.492 463.544C817.253 501.376 795.088 539.08 767.406 556.491C760.005 561.147 752.219 564.344 743.95 565.717L743.111 564.044C751.364 562.768 759.116 559.627 766.472 555C793.787 537.819 815.844 500.301 837.973 462.655C864.913 416.828 891.965 370.811 929.063 360.452L929.068 360.453C956.577 352.973 981.541 391.038 1012.64 438.467C1021.98 452.699 1031.87 467.779 1042.54 482.719C1029.65 463.294 1018.19 443.563 1007.62 425.363C980.011 377.828 958.513 340.818 934.022 347.552L934.021 347.551C897.381 357.847 870.164 404.844 842.897 451.928C819.842 491.741 796.746 531.623 767.689 549.793C759.281 555.051 750.386 558.483 740.872 559.581L740.015 557.875C749.527 556.897 758.396 553.53 766.761 548.298C795.433 530.369 818.422 490.672 841.372 451.042C868.818 403.647 896.214 356.34 933.547 345.853L933.553 345.85C959.353 338.758 981.151 376.283 1009.15 424.481C1016.89 437.813 1025.11 451.968 1034.02 466.217C1022.97 447.135 1013.22 428.115 1004.27 410.638C979.761 362.802 961.227 326.631 938.511 332.952L938.51 332.95C901.637 343.371 874.073 391.644 846.301 440.284C822.432 482.088 798.409 524.165 767.983 543.09C758.555 548.953 748.531 552.594 737.73 553.321L736.856 551.579C747.664 550.996 757.67 547.432 767.055 541.595C797.095 522.911 821.011 481.023 844.773 439.407C872.723 390.453 900.465 341.869 938.034 331.255L938.036 331.253C962.136 324.548 980.954 361.271 1005.84 409.837C1012.13 422.12 1018.82 435.168 1026.07 448.462C1016.79 430.019 1008.66 411.917 1001.2 395.328C979.743 347.563 963.967 312.443 943 318.35L943 318.349C905.886 328.895 877.978 378.432 849.707 428.614C825.034 472.41 800.083 516.698 768.279 536.382C757.822 542.854 746.644 546.662 734.522 546.927L733.636 545.16C745.779 545.062 756.94 541.332 767.357 534.885C798.763 515.447 823.605 471.353 848.169 427.749C876.62 377.249 904.705 327.399 942.518 316.656L942.521 316.654C964.949 310.334 980.989 346.039 1002.81 394.6C1007.78 405.664 1013.05 417.404 1018.77 429.467C1011.17 411.974 1004.54 395.013 998.478 379.486C979.983 332.14 966.744 298.248 947.49 303.749C945.278 304.381 943.098 305.158 940.948 306.063L950.109 301.467C969.178 299.653 982.235 333.072 1000.12 378.842C1013.26 412.481 1029.03 452.86 1051.61 490.748C1054.81 495.884 1058.12 500.972 1061.57 505.989C1064.83 510.538 1068.19 515.023 1071.67 519.424C1075 523.466 1078.42 527.434 1081.94 531.303C1085.25 534.782 1088.63 538.174 1092.08 541.464C1095.39 544.457 1098.75 547.358 1102.17 550.145C1105.36 552.608 1108.6 554.973 1111.88 557.228C1114.93 559.192 1118.01 561.054 1121.11 562.811L1121.41 562.906C1123.67 563.289 1125.93 563.722 1128.2 564.198C1130.57 564.368 1132.94 564.584 1135.31 564.841C1137.78 564.793 1140.25 564.789 1142.72 564.825C1145.3 564.558 1147.87 564.332 1150.43 564.144C1153.1 563.658 1155.75 563.209 1158.4 562.797C1161.17 562.086 1163.92 561.411 1166.67 560.77C1169.55 559.827 1172.41 558.92 1175.26 558.046C1178.22 556.874 1181.17 555.74 1184.1 554.634C1187.15 553.233 1190.17 551.867 1193.19 550.529C1196.36 548.87 1199.52 547.245 1202.66 545.651C1205.92 543.751 1209.17 541.884 1212.39 540.049C1215.77 537.886 1219.12 535.758 1222.46 533.661C1225.93 531.245 1229.37 528.864 1232.79 526.515C1236.36 523.838 1239.89 521.195 1243.41 518.585C1247.07 515.638 1250.71 512.727 1254.32 509.85C1258.11 506.607 1261.87 503.402 1265.6 500.233C1361.83 413.039 1438.76 349.47 1512.84 316.831C1522.05 285.745 1530.83 255.027 1539.24 225.543C1576.41 95.3716 1606.7 -10.748 1638.36 -18.5005C1652.42 -21.944 1666.57 -6.30371 1681.46 34.7389C1683.96 40.2913 1686.47 46.5073 1689.01 53.425C1691.55 59.037 1694.11 65.2959 1696.69 72.2329C1699.26 77.8736 1701.84 84.1321 1704.45 91.043C1707.08 96.7723 1709.73 103.111 1712.4 110.088C1715.05 115.825 1717.72 122.138 1720.42 129.063C1723.15 134.888 1725.89 141.284 1728.67 148.276C1731.43 154.11 1734.22 160.491 1737.03 167.44C1739.86 173.327 1742.72 179.744 1745.61 186.714C1748.52 192.651 1751.45 199.098 1754.41 206.083C1757.39 212.02 1760.39 218.443 1763.42 225.381C1765.33 229.086 1767.25 232.979 1769.17 237.053C1773.48 245.125 1777.74 252.808 1781.95 260.114C1789.59 272.923 1797.05 284.638 1804.37 295.333C1811.95 297.263 1819.6 297.186 1827.3 295.3C1859.47 287.422 1892.52 248.315 1924.86 192.719L1925.77 194.525C1893.33 250.033 1860.14 289.074 1827.72 297.012C1820.38 298.811 1813.08 299.019 1805.84 297.481L1806.81 298.878L1806.86 298.951L1806.86 298.958C1807.63 300.035 1808.39 301.103 1809.15 302.158C1818.63 305.426 1828.17 305.61 1837.76 303.079C1868.98 294.833 1900.67 258.103 1931.56 206.06L1932.46 207.86C1901.49 259.807 1869.66 296.477 1838.21 304.782C1829.05 307.2 1819.93 307.226 1810.88 304.557C1811.89 305.934 1812.88 307.288 1813.88 308.63C1825.36 313.591 1836.9 314.114 1848.43 310.83C1878.61 302.243 1908.89 267.904 1938.26 219.431L1939.17 221.228C1909.71 269.602 1879.31 303.876 1848.92 312.523C1837.88 315.664 1826.86 315.446 1815.9 311.339C1816.75 312.474 1817.6 313.598 1818.45 314.708C1832.1 321.777 1845.76 322.716 1859.35 318.549C1888.37 309.652 1917.16 277.717 1944.99 232.832L1945.89 234.619C1917.99 279.401 1889.08 311.277 1859.87 320.232C1846.89 324.215 1833.85 323.688 1820.84 317.812C1821.51 318.668 1822.17 319.527 1822.83 320.368C1838.87 330 1854.8 331.429 1870.55 326.227C1898.28 317.067 1925.51 287.525 1951.72 246.249L1952.62 248.034C1926.34 289.207 1899.01 318.685 1871.1 327.901C1856.09 332.859 1840.94 331.987 1825.71 323.996C1826.15 324.535 1826.58 325.059 1827.01 325.591C1845.66 338.28 1864.04 340.261 1882.04 333.854C1908.35 324.492 1933.93 297.359 1958.47 259.703L1959.36 261.477C1934.76 299.026 1909.09 326.1 1882.63 335.516C1865.55 341.594 1848.17 340.36 1830.57 329.933L1830.88 330.3C1852.47 346.636 1873.49 349.236 1893.86 341.425C1918.6 331.939 1942.44 307.217 1965.24 273.192L1966.13 274.963C1943.28 308.88 1919.36 333.533 1894.49 343.068C1875.99 350.167 1856.99 348.936 1837.56 336.999C1861.34 355.357 1884.16 357.968 1906.04 348.921C1929.03 339.411 1951.03 317.096 1972.02 286.706L1972.9 288.47C1951.88 318.747 1929.82 340.996 1906.72 350.549C1886.97 358.717 1866.5 357.664 1845.32 344.532C1871.12 364.307 1895.51 366.644 1918.6 356.338C1939.68 346.929 1959.73 327.03 1978.83 300.27L1979.7 302.02C1960.58 328.666 1940.49 348.499 1919.32 357.944C1898.28 367.334 1876.23 366.52 1853.1 352.067C1881.17 373.395 1907.23 375.401 1931.57 363.663C1950.56 354.508 1968.55 337.03 1985.66 313.884L1986.53 315.624C1969.4 338.654 1951.39 356.064 1932.34 365.248C1909.92 376.058 1886.12 375.533 1860.74 359.511C1891.43 382.666 1919.31 384.265 1944.96 370.891C1961.68 362.173 1977.48 347.121 1992.52 327.555L1993.38 329.285C1978.34 348.736 1962.53 363.717 1945.77 372.453C1921.95 384.874 1896.3 384.725 1868.39 366.974C1902.03 392.134 1931.82 393.242 1958.77 378.022C1973.04 369.959 1986.54 357.326 1999.4 341.281L2000.26 342.997C1987.41 358.924 1973.91 371.489 1959.63 379.557C1934.34 393.842 1906.65 394.108 1875.79 374.256C1912.87 401.822 1944.72 402.387 1972.97 385.068C1984.65 377.908 1995.73 367.7 2006.33 355.089L2007.18 356.79C1996.61 369.286 1985.55 379.425 1973.89 386.576C1947.17 402.952 1917.37 403.726 1883.18 381.538C1910.23 401.476 1934.2 408.234 1955.84 404.875L1951.11 407.252C1932.56 408.807 1912.37 403.153 1890.12 388.522C1908.08 401.688 1924.55 409.569 1939.8 412.927L1937.3 414.178C1924.63 411.055 1911.13 404.884 1896.68 395.247C1909.58 404.656 1921.64 411.608 1932.99 416.342L1930.91 417.383C1922.02 413.541 1912.7 408.367 1902.9 401.749C1912.02 408.357 1920.69 413.87 1928.96 418.363L1927.05 419.32C1920.85 415.894 1914.43 411.907 1907.77 407.325C1914.13 411.926 1920.27 416.058 1926.2 419.751L1924.37 420.666C1919.13 417.37 1913.73 413.74 1908.15 409.747C1913.61 413.73 1918.89 417.422 1924.01 420.847L1922.21 421.75C1892.46 401.763 1857.39 372.662 1815.3 333.186L1815.25 333.134C1747.12 258.081 1690.07 263.896 1632.9 292.189C1633.78 292.221 1634.67 292.272 1635.55 292.314C1693.5 274.301 1752.56 277.663 1822.91 344.697L1822.91 344.695C1861.62 377.268 1894.19 402.801 1921.98 421.864L1920.2 422.76C1892.49 403.699 1860.12 378.308 1821.78 346.046L1821.74 346.008C1754.02 281.461 1696.79 276.457 1640.84 292.6C1641.25 292.629 1641.67 292.674 1642.08 292.705C1647.93 292.077 1653.8 291.661 1659.7 291.482C1711.57 289.912 1766.11 306.528 1829.32 357.505C1864.25 383.677 1894.08 405.445 1919.82 422.951L1918.02 423.852C1892.4 406.402 1862.81 384.798 1828.25 358.904L1828.23 358.886C1765.39 308.206 1711.22 291.685 1659.76 293.243C1657.11 293.323 1654.48 293.452 1651.85 293.625C1707.24 299.879 1766.47 324.51 1835.7 370.293C1848.71 378.897 1858.85 385.624 1868.54 392.057C1886.23 403.8 1902.4 414.535 1917.24 424.246L1915.41 425.161C1900.8 415.592 1884.91 405.043 1867.56 393.526C1856.44 386.142 1844.7 378.352 1834.73 371.759C1761.55 323.36 1699.57 298.718 1641.43 294.548C1637.42 294.994 1633.42 295.539 1629.42 296.176C1625.12 297.629 1620.82 299.19 1616.52 300.847C1612.23 303.244 1607.93 305.738 1603.63 308.302C1599.36 311.577 1595.07 314.926 1590.75 318.316L1584.84 323.963C1582.55 326.153 1580.25 328.351 1577.94 330.553C1573.77 335.226 1569.56 339.913 1565.31 344.576C1561.23 349.729 1557.11 354.864 1552.94 359.946C1548.91 365.516 1544.84 371.04 1540.72 376.483C1536.81 382.274 1532.86 387.998 1528.85 393.62C1525.04 399.589 1521.19 405.471 1517.27 411.235C1513.52 417.376 1509.72 423.411 1505.86 429.314C1502.19 435.532 1498.46 441.635 1494.68 447.593C1491.09 453.836 1487.45 459.957 1483.76 465.926C1480.22 472.22 1476.63 478.384 1472.98 484.39C1469.55 490.613 1466.06 496.702 1462.52 502.635C1459.11 508.903 1455.65 515.029 1452.14 520.998C1448.71 527.398 1445.22 533.646 1441.68 539.731C1438.36 545.964 1434.99 552.05 1431.58 557.978C1428.29 564.218 1424.95 570.311 1421.57 576.243C1418.24 582.598 1414.87 588.799 1411.45 594.833C1376.81 661.387 1336.91 711.007 1289.97 727.005C1256.83 738.297 1206.89 678.978 1159.31 622.469C1153.99 616.158 1148.71 609.881 1143.48 603.745C1102.83 617.34 1043.51 613.149 985.838 609.067C935.944 605.537 887.279 602.092 853.236 610.347C821.721 617.991 801.818 634.793 786.041 649.606L785.219 647.967C801.088 633.095 821.127 616.32 852.818 608.635C887.129 600.315 935.928 603.768 985.96 607.31C1043.16 611.358 1101.98 615.516 1142.25 602.303L1139.85 599.493C1101.24 609.556 1047.04 603.757 993.645 598.041C942.801 592.598 892.681 587.234 857.723 595.748C823.055 604.249 801.997 625.847 784.66 643.625L783.591 644.723L782.757 643.061L783.404 642.397C800.901 624.453 822.155 602.655 857.304 594.036C892.562 585.449 942.832 590.831 993.831 596.288C1046.7 601.947 1100.36 607.687 1138.57 598.004L1136.2 595.25C1099.61 602.047 1050.18 594.779 1000.96 587.537C949.371 579.947 898.007 572.39 862.21 581.148L862.21 581.147C827.663 589.712 806.206 613.156 788.146 632.893C785.833 635.421 783.575 637.888 781.351 640.258L780.507 638.577C782.581 636.358 784.69 634.055 786.846 631.7C805.069 611.786 826.719 588.13 861.788 579.438L861.791 579.436C897.909 570.599 949.449 578.182 1001.21 585.797C1049.85 592.954 1098.7 600.138 1134.87 593.711L1132.54 591.028C1097.93 594.832 1052.89 586.216 1007.68 577.563C955.569 567.59 903.217 557.569 866.7 566.548L866.699 566.547C832.201 575.187 810.358 600.402 791.606 622.05C787.356 626.956 783.264 631.682 779.213 635.998L778.371 634.32C782.258 630.153 786.195 625.609 790.278 620.895C809.198 599.054 831.235 573.613 866.271 564.84L866.274 564.838C903.171 555.768 955.71 565.823 1008.01 575.832C1052.58 584.36 1096.97 592.852 1131.13 589.409L1128.85 586.815C1096.15 587.891 1055.12 578.039 1013.71 568.094C961.315 555.51 908.303 542.778 871.186 551.948L871.185 551.947C836.698 560.67 814.474 587.591 795.058 611.115C788.901 618.574 783.024 625.693 777.111 631.808L776.273 630.138C781.994 624.171 787.714 617.242 793.699 609.99C813.286 586.261 835.703 559.104 870.758 550.24L870.761 550.238C908.302 540.964 961.523 553.747 1014.12 566.379C1054.81 576.152 1095.13 585.834 1127.34 585.1C1126.6 584.265 1125.86 583.435 1125.12 582.611C1094.23 581.21 1056.81 570.215 1018.93 559.084C966.52 543.681 913.24 528.023 875.679 537.347L875.68 537.349C841.15 546.164 818.555 574.733 798.499 600.092C790.468 610.245 782.841 619.889 774.995 627.59L774.165 625.937C781.796 618.376 789.263 608.936 797.118 599.003C817.351 573.419 840.145 544.599 875.24 535.639L875.248 535.639C913.272 526.195 966.786 541.923 1019.43 557.394C1056.5 568.289 1093.14 579.056 1123.48 580.769L1121.34 578.403C1092.12 574.757 1057.88 562.678 1023.25 550.455C971.078 532.046 917.976 513.307 880.167 522.746L880.167 522.749C845.577 531.66 822.612 561.83 801.931 588.999C792.067 601.958 782.717 614.241 772.833 623.283L772.013 621.648C781.645 612.742 790.838 600.667 800.531 587.932C821.389 560.53 844.552 530.102 879.727 521.04L879.732 521.041C918.062 511.469 971.417 530.298 1023.83 548.795C1057.58 560.703 1090.94 572.472 1119.51 576.388C1118.83 575.642 1118.15 574.902 1117.47 574.167C1089.75 568.47 1058.3 555.34 1026.55 542.086C974.919 520.529 922.5 498.646 884.657 508.147L884.658 508.148C849.981 517.16 826.649 548.888 805.361 577.837C793.697 593.697 782.642 608.733 770.609 618.85L769.796 617.229C781.539 607.252 792.442 592.424 803.94 576.79C825.403 547.603 848.929 515.61 884.21 506.442L884.218 506.442C922.635 496.793 975.329 518.793 1027.24 540.463C1057.98 553.298 1088.44 566.013 1115.39 571.924C1114.75 571.235 1114.11 570.551 1113.47 569.873C1087.07 562.274 1058 548.086 1028.8 533.834C977.987 509.033 926.783 484.042 889.143 493.548L889.144 493.549C854.357 502.665 830.662 535.912 808.783 566.613C795.354 585.455 782.603 603.348 768.309 614.265L767.504 612.662C781.476 601.892 794.08 584.205 807.35 565.587C829.406 534.638 853.294 501.121 888.697 491.843L888.705 491.843C926.972 482.174 978.469 507.308 1029.57 532.251C1057.63 545.947 1085.57 559.584 1111.04 567.32C1110.44 566.692 1109.85 566.069 1109.25 565.454C1083.98 556.046 1056.93 540.761 1029.95 525.516C980.265 497.443 930.807 469.496 893.628 478.951L893.627 478.949C858.712 488.177 834.657 522.906 812.201 555.329C797.037 577.225 782.593 598.077 765.925 609.514L765.129 607.927C781.448 596.643 795.746 575.997 810.755 554.325C833.392 521.642 857.639 486.634 893.181 477.245L893.187 477.241C931.05 467.612 980.821 495.735 1030.81 523.984C1056.47 538.481 1082.18 553.01 1106.3 562.443C1105.75 561.882 1105.2 561.326 1104.64 560.774C1080.35 549.606 1055.05 533.191 1030.03 516.956C981.788 485.651 934.576 455.016 898.115 464.352L898.114 464.351C863.057 473.688 838.644 509.871 815.621 543.998C799.42 568.013 783.898 591.019 765.725 603.157C764.974 603.658 764.218 604.135 763.458 604.598L762.664 603.015C763.363 602.587 764.057 602.148 764.748 601.687C782.633 589.742 798.059 566.877 814.16 543.009C837.364 508.616 861.966 472.15 897.668 462.646L897.674 462.643C934.879 453.116 982.415 483.962 1030.99 515.48C1054.39 530.667 1078.04 546.01 1100.83 557.027L1100.69 556.897C1100.22 556.444 1099.75 555.989 1099.29 555.533C1075.95 542.639 1052.29 525.128 1029.12 507.977C982.627 473.56 938.097 440.598 902.6 449.752L902.6 449.751C867.377 459.205 842.611 496.811 819.033 532.617C801.924 558.597 785.433 583.638 765.914 596.527C764.267 597.614 762.599 598.611 760.91 599.519L760.116 597.938C761.747 597.063 763.357 596.102 764.944 595.054C784.172 582.357 800.562 557.469 817.566 531.647C841.327 495.566 866.283 457.669 902.15 448.047L902.16 448.043C938.468 438.68 983.331 471.888 1030.17 506.562C1051.48 522.333 1073.2 538.409 1094.66 550.88L1093.59 549.775C1071.1 535.178 1048.88 516.513 1027.34 498.425C982.898 461.097 941.395 426.239 907.091 435.152L907.09 435.151C871.697 444.718 846.576 483.726 822.449 521.194C804.453 549.139 787.005 576.236 766.127 589.88C763.563 591.556 760.947 593.024 758.278 594.273L757.484 592.691C760.099 591.478 762.656 590.042 765.163 588.404C785.727 574.965 803.076 548.024 820.967 520.241C845.275 482.491 870.585 443.191 906.637 433.448L906.643 433.445C941.834 424.303 983.674 459.443 1028.48 497.074C1048 513.474 1068.1 530.347 1088.4 544.2L1087.91 543.655C1066.07 527.309 1045.01 507.325 1024.84 488.178C982.74 448.213 944.509 411.926 911.578 420.551L911.577 420.549C876 430.236 850.527 470.623 825.86 509.733C806.993 539.646 788.592 568.822 766.357 583.22C762.857 585.487 759.262 587.381 755.563 588.862L754.763 587.268C758.413 585.828 761.954 583.972 765.4 581.74C787.306 567.555 805.605 538.54 824.368 508.792C849.215 469.395 874.876 428.712 911.121 418.85L911.13 418.845C945.007 409.973 983.578 446.583 1026.06 486.905C1043.71 503.658 1062.03 521.054 1080.95 536.064C1060.08 518.116 1040.42 497.092 1021.81 477.177C982.29 434.908 947.472 397.663 916.074 405.949L916.075 405.95C880.297 415.751 854.472 457.498 829.27 498.236C809.545 530.121 790.198 561.398 766.602 576.55C762.148 579.41 757.547 581.692 752.772 583.3L751.968 581.696C756.699 580.137 761.25 577.893 765.651 575.067C788.902 560.135 808.148 529.024 827.77 497.305C853.152 456.277 879.16 414.232 915.606 404.248L915.613 404.247C948.033 395.684 983.192 433.292 1023.09 475.975C1038.32 492.265 1054.25 509.299 1070.95 524.765C1052.14 505.975 1034.74 485.044 1018.4 465.376C981.682 421.179 950.316 383.424 920.564 391.348L920.564 391.348C884.575 401.274 858.402 444.357 832.676 486.701C812.102 520.568 791.809 553.97 766.861 569.87C761.438 573.326 755.8 575.95 749.903 577.581L749.088 575.956L749.088 575.956ZM1713.77 127.057L1713.78 127.06ZM1829.32 357.505L1829.33 357.512ZM1713.77 127.06L1713.78 127.069Z" fill="white"/>
</mask>
<g mask="url(#mask1_872_136)">
<path d="M679.491 437.247L923.209 922.991L2016.13 374.626L1772.41 -111.118L679.491 437.247Z" fill="url(#paint2_linear_872_136)"/>
</g>
</g>
<defs>
<linearGradient id="paint0_linear_872_136" x1="1920" y1="261.818" x2="0" y2="261.818" gradientUnits="userSpaceOnUse">
<stop stop-color="#FF9D68"/>
<stop offset="1" stop-color="#D35816"/>
</linearGradient>
<linearGradient id="paint1_linear_872_136" x1="1920" y1="261.818" x2="0" y2="261.818" gradientUnits="userSpaceOnUse">
<stop stop-color="#FF9D68"/>
<stop offset="1" stop-color="#D35816"/>
</linearGradient>
<linearGradient id="paint2_linear_872_136" x1="916.679" y1="931.364" x2="1772.2" y2="-111.274" gradientUnits="userSpaceOnUse">
<stop stop-color="white" stop-opacity="0.29"/>
<stop offset="0.5" stop-color="white" stop-opacity="0.3"/>
<stop offset="1" stop-color="#F5F5F5" stop-opacity="0.3"/>
</linearGradient>
</defs>
</svg>
